<svg xmlns="http://www.w3.org/2000/svg" xmlns:xlink="http://www.w3.org/1999/xlink" viewBox="0 0 792 612">
  <defs>
    <linearGradient id="linear-gradient" x1="225.33" y1="359.24" x2="180" y2="359.24" gradientUnits="userSpaceOnUse">
      <stop offset="0" stop-color="#fff"/>
      <stop offset="1" stop-color="#fd0"/>
    </linearGradient>
    <linearGradient id="linear-gradient-2" x1="536.62" y1="359.24" x2="491.28" y2="359.24" xlink:href="#linear-gradient"/>
  </defs>
  <title>pres_slides_svg</title>
  <g id="SchoolZone">
    <text transform="translate(36 585.27) scale(1.05 1)" font-size="27.55" fill="#231f20" font-family="RobotoSlab-Regular, Roboto Slab">Sc<tspan x="31.63" y="0" letter-spacing="0em">h</tspan><tspan x="49.28" y="0">o</tspan><tspan x="64.74" y="0" letter-spacing="-0.01em">o</tspan><tspan x="79.93" y="0" letter-spacing="0em">l Zo</tspan><tspan x="127.32" y="0" letter-spacing="0em">n</tspan><tspan x="144.92" y="0" letter-spacing="0em">e &amp; Age G</tspan><tspan x="266.86" y="0" letter-spacing="-0.01em">r</tspan><tspan x="277.98" y="0">oup</tspan></text>
    <g>
      <rect x="90" y="35.08" width="90" height="315.27" stroke-width="2" stroke="#f1f1f2" stroke-linecap="round" stroke-linejoin="round" fill="#f9a01b"/>
      <rect x="90" y="350.35" width="90" height="116.73" stroke-width="2" stroke="#f1f1f2" stroke-linecap="round" stroke-linejoin="round" fill="#fd0"/>
      <text transform="translate(120.41 404.23) scale(1.05 1)" font-size="17" fill="#231f20" font-family="NewsCycle-Bold, News Cycle" font-weight="700">796</text>
      <text transform="translate(123.9 417.36) scale(1.05 1)" font-size="10" fill="#231f20" font-family="NewsCycle, News Cycle">(27%)</text>
      <text transform="translate(116.24 183.37) scale(1.05 1)" font-size="17" fill="#231f20" font-family="NewsCycle-Bold, News Cycle" font-weight="700">2150</text>
      <text transform="translate(123.93 196.5) scale(1.05 1)" font-size="10" fill="#231f20" font-family="NewsCycle, News Cycle">(73%)</text>
    </g>
    <g>
      <line x1="224.94" y1="467.3" x2="338.25" y2="467.3" fill="none" stroke="#ebebeb" stroke-linejoin="round" stroke-width="1.07"/>
      <line x1="224.94" y1="413.3" x2="338.25" y2="413.3" fill="none" stroke="#ebebeb" stroke-linejoin="round" stroke-width="1.07"/>
      <line x1="224.94" y1="359.3" x2="338.25" y2="359.3" fill="none" stroke="#ebebeb" stroke-linejoin="round" stroke-width="1.07"/>
      <line x1="224.94" y1="305.3" x2="338.25" y2="305.3" fill="none" stroke="#ebebeb" stroke-linejoin="round" stroke-width="1.07"/>
      <line x1="224.94" y1="251.3" x2="338.25" y2="251.3" fill="none" stroke="#ebebeb" stroke-linejoin="round" stroke-width="1.07"/>
      <text transform="translate(318.57 465.64) scale(1.05 1)" font-size="9" fill="#231f20" font-family="NewsCycle, News Cycle" style="isolation: isolate">0%</text>
      <text transform="translate(316.75 411.45) scale(1.05 1)" font-size="9" fill="#231f20" font-family="NewsCycle, News Cycle" style="isolation: isolate">25%</text>
      <text transform="translate(316.75 357.07) scale(1.05 1)" font-size="9" fill="#231f20" font-family="NewsCycle, News Cycle" style="isolation: isolate">50%</text>
      <text transform="translate(316.75 303.19) scale(1.05 1)" font-size="9" fill="#231f20" font-family="NewsCycle, News Cycle" style="isolation: isolate">75%</text>
      <text transform="translate(314.94 249.06) scale(1.05 1)" font-size="9" fill="#231f20" font-family="NewsCycle, News Cycle" style="isolation: isolate">100%</text>
      <g>
        <rect x="224.94" y="456.97" width="90" height="10.11" fill="#1c9850"/>
        <rect x="224.94" y="409.26" width="90" height="47.7" fill="#93ca61"/>
        <rect x="224.94" y="354.92" width="90" height="54.34" fill="#d9e58d"/>
        <rect x="224.94" y="305.01" width="90" height="49.92" fill="#fbf7c1"/>
        <rect x="224.94" y="286.05" width="90" height="18.96" fill="#fde08b"/>
        <rect x="224.94" y="255.41" width="90" height="30.64" fill="#f68d5c"/>
        <rect x="224.94" y="251.3" width="90" height="4.11" fill="#d73227"/>
      </g>
    </g>
    <g>
      <rect x="401.48" y="35.11" width="90" height="343.12" stroke-width="2" stroke="#f1f1f2" stroke-linecap="round" stroke-linejoin="round" fill="#f9a01b"/>
      <rect x="401.48" y="378.23" width="90" height="88.88" stroke-width="2" stroke="#f1f1f2" stroke-linecap="round" stroke-linejoin="round" fill="#fd0"/>
      <text transform="translate(430.93 404.23) scale(1.05 1)" font-size="17" fill="#231f20" font-family="NewsCycle-Bold, News Cycle" font-weight="700">323</text>
      <text transform="translate(431.15 417.36) scale(1.05 1)" font-size="10" fill="#231f20" font-family="NewsCycle, News Cycle">(20.6%)</text>
      <text transform="translate(427.6 183.37) scale(1.05 1)" font-size="17" fill="#231f20" font-family="NewsCycle-Bold, News Cycle" font-weight="700">12<tspan x="17.43" y="0" letter-spacing="-0.02em">4</tspan><tspan x="27.77" y="0">7</tspan></text>
      <text transform="translate(431.31 196.5) scale(1.05 1)" font-size="10" fill="#231f20" font-family="NewsCycle, News Cycle">(79.4%)</text>
    </g>
    <g>
      <line x1="539.75" y1="467.37" x2="653.06" y2="467.37" fill="none" stroke="#ebebeb" stroke-linejoin="round" stroke-width="1.07"/>
      <line x1="539.75" y1="413.47" x2="653.06" y2="413.47" fill="none" stroke="#ebebeb" stroke-linejoin="round" stroke-width="1.07"/>
      <line x1="539.75" y1="359.56" x2="653.06" y2="359.56" fill="none" stroke="#ebebeb" stroke-linejoin="round" stroke-width="1.07"/>
      <line x1="539.75" y1="305.66" x2="653.06" y2="305.66" fill="none" stroke="#ebebeb" stroke-linejoin="round" stroke-width="1.07"/>
      <line x1="539.75" y1="251.75" x2="653.06" y2="251.75" fill="none" stroke="#ebebeb" stroke-linejoin="round" stroke-width="1.07"/>
      <text transform="translate(635.3 465.59)" font-size="9" fill="#231f20" font-family="NewsCycle, News Cycle" style="isolation: isolate">0%</text>
      <text transform="translate(632.52 411.68)" font-size="9" fill="#231f20" font-family="NewsCycle, News Cycle" style="isolation: isolate">25%</text>
      <text transform="translate(632.52 357.78)" font-size="9" fill="#231f20" font-family="NewsCycle, News Cycle" style="isolation: isolate">50%</text>
      <text transform="translate(632.52 303.87)" font-size="9" fill="#231f20" font-family="NewsCycle, News Cycle" style="isolation: isolate">75%</text>
      <text transform="translate(629.75 249.97)" font-size="9" fill="#231f20" font-family="NewsCycle, News Cycle" style="isolation: isolate">100%</text>
      <g>
        <rect x="536.42" y="463.93" width="90" height="3.17" fill="#1c9850"/>
        <rect x="536.42" y="439.32" width="90" height="24.61" fill="#93ca61"/>
        <rect x="536.42" y="385.32" width="90" height="54" fill="#d9e58d"/>
        <rect x="536.42" y="324.98" width="90" height="60.35" fill="#fbf7c1"/>
        <rect x="536.42" y="300.36" width="90" height="24.61" fill="#fde08b"/>
        <rect x="536.42" y="251.13" width="90" height="49.23" fill="#f68d5c"/>
      </g>
    </g>
    <rect x="90" y="479.18" width="90" height="34.4" fill="#cfcece" stroke="#cfcece" stroke-linecap="round" stroke-linejoin="round"/>
    <text transform="translate(93.72 495.43) scale(1.05 1)" font-size="11" font-family="RobotoSlab-Regular, Roboto Slab">Crash Location<tspan x="-0.21" y="13.2" letter-spacing="-0.01em">b</tspan><tspan x="6.1" y="13.2">y Sc</tspan><tspan x="27.7" y="13.2" letter-spacing="0em">h</tspan><tspan x="34.75" y="13.2">o</tspan><tspan x="40.92" y="13.2" letter-spacing="-0.01em">o</tspan><tspan x="46.99" y="13.2">l Zo</tspan><tspan x="65.91" y="13.2" letter-spacing="0em">n</tspan><tspan x="72.93" y="13.2" letter-spacing="0em">e</tspan></text>
    <g>
      <rect x="224.94" y="479.18" width="90" height="34.4" fill="#cfcece" stroke="#cfcece" stroke-linecap="round" stroke-linejoin="round"/>
      <text transform="translate(234.21 495.43) scale(1.05 1)" font-size="11" font-family="RobotoSlab-Regular, Roboto Slab">Sc<tspan x="12.63" y="0" letter-spacing="0em">h</tspan><tspan x="19.67" y="0">o</tspan><tspan x="25.85" y="0" letter-spacing="-0.01em">o</tspan><tspan x="31.91" y="0" letter-spacing="0em">l-Zo</tspan><tspan x="52.38" y="0" letter-spacing="0em">n</tspan><tspan x="59.4" y="0" letter-spacing="0em">e </tspan><tspan x="-6.02" y="13.2">Cras</tspan><tspan x="17.29" y="13.2" letter-spacing="0em">h</tspan><tspan x="24.34" y="13.2" letter-spacing="0em">es </tspan><tspan x="38.59" y="13.2" letter-spacing="-0.01em">b</tspan><tspan x="44.9" y="13.2" letter-spacing="0em">y Age</tspan></text>
    </g>
    <rect x="90" y="522.34" width="224.94" height="24.9" fill="#cfcece" stroke="#cfcece" stroke-linecap="round" stroke-linejoin="round"/>
    <text transform="translate(95.67 540.76) scale(0.97 1)" font-size="16" font-family="RobotoSlab-Regular, Roboto Slab">All <tspan x="25.77" y="0" letter-spacing="-0.01em">P</tspan><tspan x="35.84" y="0">edestrian Cras</tspan><tspan x="145.52" y="0" letter-spacing="0em">h</tspan><tspan x="155.77" y="0" xml:space="preserve">es:  2946</tspan></text>
    <text transform="translate(628.75 567.98) scale(0.97 1)" font-size="10" font-family="RobotoSlab-Light, Roboto Slab" font-weight="300">Age-wise distribution <tspan x="0" y="12">of cras</tspan><tspan x="31.48" y="12" letter-spacing="0em">h</tspan><tspan x="37.77" y="12">es is similar in </tspan><tspan x="0" y="24" letter-spacing="0em">n</tspan><tspan x="6.39" y="24">on sc</tspan><tspan x="31.24" y="24" letter-spacing="0em">h</tspan><tspan x="37.52" y="24">o</tspan><tspan x="43.15" y="24" letter-spacing="-0.01em">o</tspan><tspan x="48.68" y="24">l-</tspan><tspan x="55.53" y="24" letter-spacing="-0.01em">z</tspan><tspan x="60.72" y="24">o</tspan><tspan x="66.35" y="24" letter-spacing="0em">n</tspan><tspan x="72.74" y="24">e cases as well</tspan></text>
    <rect x="401.48" y="479.18" width="90" height="34.4" fill="#cfcece" stroke="#cfcece" stroke-linecap="round" stroke-linejoin="round"/>
    <text transform="translate(405.2 495.43) scale(1.05 1)" font-size="11" font-family="RobotoSlab-Regular, Roboto Slab">Crash Location<tspan x="-0.21" y="13.2" letter-spacing="-0.01em">b</tspan><tspan x="6.1" y="13.2">y Sc</tspan><tspan x="27.7" y="13.2" letter-spacing="0em">h</tspan><tspan x="34.75" y="13.2">o</tspan><tspan x="40.92" y="13.2" letter-spacing="-0.01em">o</tspan><tspan x="46.99" y="13.2">l Zo</tspan><tspan x="65.91" y="13.2" letter-spacing="0em">n</tspan><tspan x="72.93" y="13.2" letter-spacing="0em">e</tspan></text>
    <g>
      <rect x="536.42" y="479.18" width="90" height="34.4" fill="#cfcece" stroke="#cfcece" stroke-linecap="round" stroke-linejoin="round"/>
      <text transform="translate(545.69 495.43) scale(1.05 1)" font-size="11" font-family="RobotoSlab-Regular, Roboto Slab">Sc<tspan x="12.63" y="0" letter-spacing="0em">h</tspan><tspan x="19.67" y="0">o</tspan><tspan x="25.85" y="0" letter-spacing="-0.01em">o</tspan><tspan x="31.91" y="0" letter-spacing="0em">l-Zo</tspan><tspan x="52.38" y="0" letter-spacing="0em">n</tspan><tspan x="59.4" y="0" letter-spacing="0em">e </tspan><tspan x="-6.02" y="13.2">Cras</tspan><tspan x="17.29" y="13.2" letter-spacing="0em">h</tspan><tspan x="24.34" y="13.2" letter-spacing="0em">es </tspan><tspan x="38.59" y="13.2" letter-spacing="-0.01em">b</tspan><tspan x="44.9" y="13.2" letter-spacing="0em">y Age</tspan></text>
    </g>
    <rect x="401.48" y="522.34" width="224.94" height="24.9" fill="#cfcece" stroke="#cfcece" stroke-linecap="round" stroke-linejoin="round"/>
    <text transform="translate(424.14 540.76) scale(0.97 1)" font-size="16" font-family="RobotoSlab-Regular, Roboto Slab">All Bic<tspan x="50.16" y="0" letter-spacing="-0.01em">y</tspan><tspan x="59.14" y="0">cle Cras</tspan><tspan x="119.29" y="0" letter-spacing="0em">h</tspan><tspan x="129.54" y="0" xml:space="preserve">es:  1570</tspan></text>
    <g>
      <path d="M767.31,333c0,4.88-3.24,8.84-7.23,8.84H678.54c-4,0-7.23-4-7.23-8.84v-10.5c0-4.89,3.24-8.85,7.23-8.85h81.54c4,0,7.23,4,7.23,8.85Z" fill="#f9a01b"/>
      <path d="M767.31,369.38c0,4.89-3.25,8.85-7.26,8.85H678.57c-4,0-7.26-4-7.26-8.85v-10.5c0-4.88,3.25-8.84,7.26-8.84h81.48c4,0,7.26,4,7.26,8.84Z" fill="#fd0"/>
      <text transform="translate(688.62 368.11) scale(1.05 1)" font-size="12" fill="#231f20" font-family="NewsCycle, News Cycle">School-Zone</text>
      <text transform="translate(673.92 331.97) scale(1.05 1)" font-size="12" fill="#231f20" font-family="NewsCycle, News Cycle">Not a School-Zone</text>
    </g>
    <g>
      <rect x="681.31" y="384.98" width="12.13" height="8.95" fill="#d73227"/>
      <rect x="681.31" y="396.97" width="12.13" height="8.94" fill="#f68d5c"/>
      <rect x="681.31" y="408.89" width="12.13" height="8.94" fill="#fde08b"/>
      <rect x="681.31" y="420.84" width="12.13" height="8.94" fill="#fbf7c1"/>
      <rect x="681.31" y="432.79" width="12.13" height="8.94" fill="#d9e58d"/>
      <rect x="681.31" y="444.74" width="12.13" height="8.95" fill="#93ca61"/>
      <rect x="681.31" y="456.69" width="12.13" height="8.94" fill="#1c9850"/>
      <text transform="translate(699.91 392.91)" font-size="9" fill="#231f20" font-family="NewsCycle, News Cycle" style="isolation: isolate">Younger than 6</text>
      <text transform="translate(699.91 404.89)" font-size="9" fill="#231f20" font-family="NewsCycle, News Cycle" style="isolation: isolate">6 to 15</text>
      <text transform="translate(699.91 416.81)" font-size="9" fill="#231f20" font-family="NewsCycle, News Cycle" style="isolation: isolate">16 to 20</text>
      <text transform="translate(699.91 428.76)" font-size="9" fill="#231f20" font-family="NewsCycle, News Cycle" style="isolation: isolate">21 to 34</text>
      <text transform="translate(699.91 440.72)" font-size="9" fill="#231f20" font-family="NewsCycle, News Cycle" style="isolation: isolate">35 to 54</text>
      <text transform="translate(699.91 452.67)" font-size="9" fill="#231f20" font-family="NewsCycle, News Cycle" style="isolation: isolate">55 to 74</text>
      <text transform="translate(699.91 464.62)" font-size="9" fill="#231f20" font-family="NewsCycle, News Cycle" style="isolation: isolate">Older than 74</text>
    </g>
    <g opacity="0.6">
      <polygon points="224.94 467.08 180 467.08 180 350.35 225.33 251.41 224.94 467.08" fill="url(#linear-gradient)"/>
    </g>
    <g opacity="0.6">
      <polygon points="536.22 467.08 491.28 467.08 491.28 350.35 536.62 251.41 536.22 467.08" fill="url(#linear-gradient-2)"/>
    </g>
    <text transform="translate(622.28 567.98) scale(0.97 1)" font-size="10" font-family="RobotoSlab-Bold, Roboto Slab" font-weight="700">*</text>
  </g>
</svg>
