<svg xmlns="http://www.w3.org/2000/svg" viewBox="0 0 792 612"><defs><style>.cls-1{font-size:27.55px;}.cls-1,.cls-11,.cls-4{fill:#231f20;}.cls-1,.cls-4{font-family:RobotoSlab-Regular, Roboto Slab;}.cls-2{letter-spacing:-0.01em;}.cls-3{letter-spacing:0.01em;}.cls-4{font-size:21px;}.cls-5{letter-spacing:-0.12em;}.cls-22,.cls-6{letter-spacing:-0.04em;}.cls-7{letter-spacing:-0.01em;}.cls-8{letter-spacing:-0.01em;}.cls-9{letter-spacing:-0.01em;}.cls-10{letter-spacing:0em;}.cls-11{font-size:14px;font-family:RobotoSlab-Light, Roboto Slab;font-weight:300;}.cls-12{letter-spacing:-0.01em;}.cls-13{letter-spacing:-0.01em;}.cls-14,.cls-21,.cls-22,.cls-23,.cls-24{font-family:RobotoSlab-Bold, Roboto Slab;font-weight:700;}.cls-15{letter-spacing:-0.01em;}.cls-16,.cls-24{letter-spacing:0em;}.cls-17{letter-spacing:-0.01em;}.cls-18{letter-spacing:-0.01em;}.cls-19,.cls-21{letter-spacing:0em;}.cls-20{letter-spacing:-0.01em;}.cls-23{letter-spacing:-0.01em;}.cls-25{letter-spacing:-0.15em;}.cls-26{letter-spacing:-0.02em;}.cls-27{letter-spacing:0em;}</style></defs><title>pres_slides_svg</title><g id="Intro_Summary" data-name="Intro Summary"><text class="cls-1" transform="translate(35 585.27) scale(1.05 1)">Int<tspan class="cls-2" x="36.73" y="0">r</tspan><tspan x="47.85" y="0">oduc</tspan><tspan class="cls-2" x="111.43" y="0">t</tspan><tspan x="121.25" y="0">o</tspan><tspan class="cls-3" x="136.71" y="0">r</tspan><tspan x="148.35" y="0">y Summa</tspan><tspan class="cls-3" x="271.58" y="0">r</tspan><tspan x="283.21" y="0">y</tspan></text><text class="cls-4" transform="translate(84.33 53.52) scale(1.05 1)">IM<tspan class="cls-5" x="26.32" y="0">P</tspan><tspan class="cls-6" x="37.04" y="0">A</tspan><tspan class="cls-7" x="51.6" y="0">C</tspan><tspan x="64.85" y="0">T: </tspan><tspan x="0" y="25.2">S</tspan><tspan class="cls-8" x="12.79" y="25.2">ev</tspan><tspan x="35.53" y="25.2">e</tspan><tspan class="cls-9" x="46.82" y="25.2">r</tspan><tspan x="55.31" y="25.2">ely Injurious Cras</tspan><tspan class="cls-10" x="229.81" y="25.2">h</tspan><tspan x="243.26" y="25.2">es</tspan></text><text class="cls-11" transform="translate(84.33 116.52) scale(1.05 1)">2017 Had a <tspan class="cls-12" x="73.33" y="0">t</tspan><tspan x="78.2" y="0">otal of:</tspan><tspan class="cls-13" x="0" y="33.6">P</tspan><tspan x="8.63" y="33.6">edestrian crash cases: </tspan><tspan class="cls-14" x="157.09" y="33.6">2946</tspan><tspan x="0" y="67.2">Bic</tspan><tspan class="cls-15" x="20.88" y="67.2">y</tspan><tspan x="28.81" y="67.2">cle crash cases: </tspan><tspan class="cls-14" x="134.33" y="67.2">1570 </tspan><tspan x="0" y="100.8">Out of t</tspan><tspan class="cls-16" x="48.12" y="100.8">h</tspan><tspan x="56.92" y="100.8">ese, s</tspan><tspan class="cls-17" x="92.09" y="100.8">ev</tspan><tspan x="107.34" y="100.8">e</tspan><tspan class="cls-18" x="114.87" y="100.8">r</tspan><tspan class="cls-19" x="120.37" y="100.8">ely injurious we</tspan><tspan class="cls-20" x="224.92" y="100.8">r</tspan><tspan class="cls-19" x="230.42" y="100.8">e:</tspan><tspan class="cls-13" x="0" y="134.4">P</tspan><tspan x="8.63" y="134.4">edestrians: </tspan><tspan class="cls-14" x="83.83" y="134.4">347 cases</tspan><tspan x="0" y="168">Bic</tspan><tspan class="cls-15" x="20.88" y="168">y</tspan><tspan x="28.81" y="168">cles: </tspan><tspan class="cls-14" x="61.07" y="168">105 cases</tspan></text><text class="cls-11" transform="translate(481.33 116.52) scale(1.05 1)">2017 Had a <tspan class="cls-12" x="73.33" y="0">t</tspan><tspan x="78.2" y="0">otal of </tspan><tspan class="cls-21" x="122.62" y="0">85 f</tspan><tspan class="cls-22" x="146.35" y="0">a</tspan><tspan class="cls-14" x="153.49" y="0">tal c</tspan><tspan class="cls-23" x="181.68" y="0">r</tspan><tspan class="cls-14" x="187.43" y="0">as</tspan><tspan class="cls-24" x="202.33" y="0">h</tspan><tspan class="cls-14" x="211.16" y="0">es.</tspan><tspan x="0" y="33.6">Of which:</tspan><tspan class="cls-13" x="0" y="67.2">P</tspan><tspan x="8.63" y="67.2" xml:space="preserve">edestrians:  </tspan><tspan class="cls-14" x="87.23" y="67.2">74 cases</tspan><tspan x="0" y="100.8">Bic</tspan><tspan class="cls-15" x="20.88" y="100.8">y</tspan><tspan x="28.81" y="100.8">cles: </tspan><tspan class="cls-14" x="61.07" y="100.8">11 cases</tspan></text><text class="cls-4" transform="translate(481.33 53.52) scale(1.05 1)"><tspan class="cls-25">F</tspan><tspan x="9.99" y="0">ARS: </tspan><tspan class="cls-26" x="0" y="25.2">F</tspan><tspan x="12.7" y="25.2">atal Cras</tspan><tspan class="cls-27" x="99.86" y="25.2">h</tspan><tspan x="113.32" y="25.2">es</tspan></text></g></svg>