<svg xmlns="http://www.w3.org/2000/svg" viewBox="0 0 792 612"><defs><style>.cls-1{font-size:27.55px;font-family:RobotoSlab-Regular, Roboto Slab;}.cls-1,.cls-19,.cls-3{fill:#231f20;}.cls-2{letter-spacing:0em;}.cls-3{font-size:21px;}.cls-19,.cls-3{font-family:NewsCycle-Bold, News Cycle;font-weight:700;}.cls-4{letter-spacing:-0.02em;}.cls-5{letter-spacing:-0.01em;}.cls-6{letter-spacing:-0.02em;}.cls-7{letter-spacing:0em;}.cls-25,.cls-26,.cls-31,.cls-32,.cls-35,.cls-41,.cls-42,.cls-8{font-family:NewsCycle, News Cycle;font-weight:400;}.cls-9{letter-spacing:-0.03em;}.cls-10{letter-spacing:-0.03em;}.cls-11{letter-spacing:0.86em;}.cls-12{letter-spacing:0.86em;}.cls-13{letter-spacing:0.03em;}.cls-14{letter-spacing:0.03em;}.cls-15{letter-spacing:0.22em;}.cls-16{letter-spacing:0.51em;}.cls-17{letter-spacing:0.35em;}.cls-18{letter-spacing:0.35em;}.cls-19{font-size:21.65px;}.cls-20{letter-spacing:0em;}.cls-21,.cls-25{letter-spacing:0.51em;}.cls-22{letter-spacing:-0.01em;}.cls-23{letter-spacing:0em;}.cls-24,.cls-26{letter-spacing:0.51em;}.cls-27{letter-spacing:-0.05em;}.cls-28{letter-spacing:-0.02em;}.cls-29,.cls-31{letter-spacing:0.3em;}.cls-30{letter-spacing:0.27em;}.cls-32{letter-spacing:0.3em;}.cls-33,.cls-35{letter-spacing:0.01em;}.cls-34{letter-spacing:-0.01em;}.cls-36{letter-spacing:-0.04em;}.cls-37{letter-spacing:-0.02em;}.cls-38{letter-spacing:-0.01em;}.cls-39{letter-spacing:-0.03em;}.cls-40,.cls-41{letter-spacing:0.03em;}.cls-42{letter-spacing:0.03em;}.cls-43{letter-spacing:1.72em;}.cls-44{letter-spacing:1.72em;}.cls-45{letter-spacing:-0.01em;}.cls-46{letter-spacing:-0.01em;}.cls-47{letter-spacing:0.72em;}.cls-48{letter-spacing:0.72em;}</style></defs><title>pres_slides_svg</title><g id="Conclusions"><text class="cls-1" transform="translate(36 585.27) scale(1.05 1)">Co<tspan class="cls-2" x="33.23" y="0">n</tspan><tspan x="50.83" y="0">clusions</tspan></text></g><g id="Intro_Summary" data-name="Intro Summary"><text class="cls-3" transform="translate(35.92 50.6)"><tspan class="cls-4">K</tspan><tspan class="cls-5" x="11.44" y="0">e</tspan><tspan class="cls-6" x="20.82" y="0">y</tspan><tspan x="29.73" y="0" xml:space="preserve"> Obser</tspan><tspan class="cls-7" x="83.73" y="0">v</tspan><tspan x="92.87" y="0">ations:</tspan><tspan class="cls-8"><tspan x="0" y="25.2">Higher</tspan><tspan class="cls-9" x="53.51" y="25.2"> </tspan><tspan x="58.23" y="25.2">degree</tspan><tspan class="cls-10" x="113.63" y="25.2"> </tspan><tspan x="118.35" y="25.2">of</tspan><tspan class="cls-9" x="134.16" y="25.2"> </tspan><tspan x="138.88" y="25.2">bike</tspan><tspan class="cls-9" x="172.17" y="25.2"> </tspan><tspan x="176.89" y="25.2">crashes</tspan><tspan class="cls-10" x="239.98" y="25.2"> </tspan><tspan x="244.7" y="25.2">with</tspan><tspan class="cls-9" x="278.72" y="25.2"> </tspan><tspan x="283.44" y="25.2">heavy </tspan><tspan x="0" y="50.4">trucks.</tspan><tspan x="0" y="100.8">Crashes</tspan><tspan class="cls-11" x="65.63" y="100.8"> </tspan><tspan x="88.85" y="100.8">involving</tspan><tspan class="cls-12" x="160.32" y="100.8"> </tspan><tspan x="183.54" y="100.8">younger</tspan><tspan class="cls-11" x="249.11" y="100.8"> </tspan><tspan x="272.33" y="100.8">victims </tspan><tspan x="0" y="126">around</tspan><tspan class="cls-13" x="56.11" y="126"> </tspan><tspan x="61.93" y="126">school</tspan><tspan class="cls-14" x="114.68" y="126"> </tspan><tspan x="120.5" y="126">start/end</tspan><tspan class="cls-13" x="197.8" y="126"> </tspan><tspan x="203.62" y="126">times,</tspan><tspan class="cls-14" x="252.19" y="126"> </tspan><tspan x="258.01" y="126">and</tspan><tspan class="cls-13" x="287.56" y="126"> </tspan><tspan x="293.39" y="126">after </tspan><tspan x="0" y="151.2">school activities.</tspan><tspan x="0" y="176.4">Vast</tspan><tspan class="cls-15" x="36.05" y="176.4"> </tspan><tspan x="45.86" y="176.4">majority</tspan><tspan class="cls-15" x="111.55" y="176.4"> </tspan><tspan x="121.35" y="176.4">of</tspan><tspan class="cls-15" x="137.17" y="176.4"> </tspan><tspan x="146.97" y="176.4">crashes</tspan><tspan class="cls-15" x="210.07" y="176.4"> </tspan><tspan x="219.87" y="176.4">(95%)</tspan><tspan class="cls-15" x="264.77" y="176.4"> </tspan><tspan x="274.57" y="176.4">involve </tspan><tspan x="0" y="201.6">passenger</tspan><tspan class="cls-16" x="83.7" y="201.6"> </tspan><tspan x="99.62" y="201.6">cars</tspan><tspan class="cls-16" x="134.18" y="201.6"> </tspan><tspan x="150.1" y="201.6">and</tspan><tspan class="cls-16" x="179.65" y="201.6"> </tspan><tspan x="195.57" y="201.6">SUVs</tspan><tspan class="cls-16" x="238.92" y="201.6"> </tspan><tspan x="254.84" y="201.6">(may</tspan><tspan class="cls-16" x="295.4" y="201.6"> </tspan><tspan x="311.32" y="201.6">be </tspan><tspan x="0" y="226.8">attributed</tspan><tspan class="cls-17" x="78.79" y="226.8"> </tspan><tspan x="91.37" y="226.8">to</tspan><tspan class="cls-18" x="107.55" y="226.8"> </tspan><tspan x="120.14" y="226.8">higher</tspan><tspan class="cls-17" x="170.83" y="226.8"> </tspan><tspan x="183.41" y="226.8">number</tspan><tspan class="cls-17" x="245.8" y="226.8"> </tspan><tspan x="258.38" y="226.8">of</tspan><tspan class="cls-18" x="274.19" y="226.8"> </tspan><tspan x="286.77" y="226.8">these </tspan><tspan x="0" y="252">vehicle types on the roads)</tspan><tspan x="0" y="302.4">Marked increase in crashes around 6pm.</tspan></tspan></text><text class="cls-19" transform="translate(425 51.12)">Challen<tspan class="cls-20" x="62.86" y="0">g</tspan><tspan x="73.41" y="0">es:</tspan><tspan class="cls-20" x="0" y="51.97">D</tspan><tspan x="12.89" y="51.97">ata</tspan><tspan class="cls-21" x="39.24" y="51.97"> </tspan><tspan x="55.69" y="51.97">Sou</tspan><tspan class="cls-22" x="87.63" y="51.97">r</tspan><tspan class="cls-23" x="94.21" y="51.97">c</tspan><tspan x="104.04" y="51.97">es:</tspan><tspan class="cls-24" x="126.97" y="51.97"> </tspan><tspan class="cls-8" x="143.42" y="51.97">Unclear</tspan><tspan class="cls-25" x="207.05" y="51.97"> </tspan><tspan class="cls-8" x="223.5" y="51.97">ideas</tspan><tspan class="cls-26" x="267.19" y="51.97"> </tspan><tspan class="cls-8" x="283.64" y="51.97">about </tspan><tspan class="cls-8"><tspan x="0" y="77.95">secondary sources of data.</tspan></tspan><tspan class="cls-27" x="0" y="129.92">F</tspan><tspan x="9.82" y="129.92">o</tspan><tspan class="cls-28" x="20.21" y="129.92">r</tspan><tspan class="cls-29" x="26.68" y="129.92"> </tspan><tspan x="38.66" y="129.92">intersection</tspan><tspan class="cls-30" x="138.09" y="129.92"> </tspan><tspan x="149.33" y="129.92">type:</tspan><tspan class="cls-31" x="189.77" y="129.92"> </tspan><tspan class="cls-8" x="201.76" y="129.92">No</tspan><tspan class="cls-32" x="225.26" y="129.92"> </tspan><tspan class="cls-8" x="237.25" y="129.92">idea</tspan><tspan class="cls-31" x="271.65" y="129.92"> </tspan><tspan class="cls-8" x="283.64" y="129.92">about </tspan><tspan class="cls-8"><tspan x="0" y="155.91">vehicle volumes</tspan></tspan><tspan class="cls-27" x="0" y="207.88">F</tspan><tspan x="9.82" y="207.88">o</tspan><tspan class="cls-28" x="20.21" y="207.88">r</tspan><tspan class="cls-33" x="26.68" y="207.88"> </tspan><tspan x="32.24" y="207.88">school</tspan><tspan class="cls-33" x="87.63" y="207.88"> </tspan><tspan class="cls-34" x="93.19" y="207.88">z</tspan><tspan x="101.44" y="207.88">ones:</tspan><tspan class="cls-35" x="145.2" y="207.88"> </tspan><tspan class="cls-8" x="150.76" y="207.88">Data</tspan><tspan class="cls-35" x="189.63" y="207.88"> </tspan><tspan class="cls-8" x="195.19" y="207.88">on</tspan><tspan class="cls-35" x="215.72" y="207.88"> </tspan><tspan class="cls-8" x="221.29" y="207.88">zone</tspan><tspan class="cls-35" x="259.84" y="207.88"> </tspan><tspan class="cls-8" x="265.4" y="207.88">timings, </tspan><tspan class="cls-8"><tspan x="0" y="233.86">and actual spatial spread is missing</tspan></tspan><tspan x="0" y="285.83">IM</tspan><tspan class="cls-36" x="20.25" y="285.83">P</tspan><tspan class="cls-37" x="31.48" y="285.83">A</tspan><tspan class="cls-38" x="43.04" y="285.83">C</tspan><tspan class="cls-39" x="55.3" y="285.83">T</tspan><tspan class="cls-40" x="65.92" y="285.83"> </tspan><tspan x="72.03" y="285.83">portal:</tspan><tspan class="cls-41" x="124.99" y="285.83"> </tspan><tspan class="cls-8" x="131.09" y="285.83">a</tspan><tspan class="cls-42" x="140.91" y="285.83"> </tspan><tspan class="cls-8" x="147.01" y="285.83">‘FAQ’</tspan><tspan class="cls-41" x="189.97" y="285.83"> </tspan><tspan class="cls-8" x="196.08" y="285.83">style</tspan><tspan class="cls-41" x="235.52" y="285.83"> </tspan><tspan class="cls-8" x="241.63" y="285.83">section</tspan><tspan class="cls-41" x="301.83" y="285.83"> </tspan><tspan class="cls-8" x="307.94" y="285.83">for </tspan><tspan class="cls-8"><tspan x="0" y="311.82">most requested data extracts</tspan></tspan><tspan class="cls-20" x="0" y="363.79">D</tspan><tspan x="12.89" y="363.79">ata</tspan><tspan class="cls-43" x="39.24" y="363.79"> </tspan><tspan class="cls-23" x="81.84" y="363.79">c</tspan><tspan x="91.66" y="363.79">ollection</tspan><tspan class="cls-44" x="163.3" y="363.79"> </tspan><tspan x="205.9" y="363.79">imp</tspan><tspan class="cls-22" x="238.23" y="363.79">r</tspan><tspan class="cls-45" x="244.82" y="363.79">o</tspan><tspan class="cls-46" x="255.02" y="363.79">v</tspan><tspan x="264.36" y="363.79">ements:</tspan><tspan class="cls-8" x="330.99" y="363.79"> </tspan><tspan class="cls-8"><tspan x="0" y="389.77">Simplifying</tspan><tspan class="cls-47" x="92.44" y="389.77"> </tspan><tspan x="113.38" y="389.77">variables.</tspan><tspan class="cls-48" x="191.21" y="389.77"> </tspan><tspan x="212.15" y="389.77">Are</tspan><tspan class="cls-47" x="240.64" y="389.77"> </tspan><tspan x="261.58" y="389.77">all</tspan><tspan class="cls-48" x="280.21" y="389.77"> </tspan><tspan x="301.15" y="389.77">115 </tspan><tspan x="0" y="415.76">variables impactful?</tspan></tspan></text></g></svg>