<svg xmlns="http://www.w3.org/2000/svg" viewBox="0 0 792 612">
  <title>pres_slides_svg</title>
  <g id="Intro_Summary" data-name="Intro Summary">
    <text transform="translate(35 585.27) scale(1.05 1)" font-size="27.55" fill="#231f20" font-family="RobotoSlab-Regular, Roboto Slab">Int<tspan x="36.73" y="0" letter-spacing="-0.01em">r</tspan><tspan x="47.85" y="0">oduc</tspan><tspan x="111.43" y="0" letter-spacing="-0.01em">t</tspan><tspan x="121.25" y="0">o</tspan><tspan x="136.71" y="0" letter-spacing="0.01em">r</tspan><tspan x="148.35" y="0">y Summa</tspan><tspan x="271.58" y="0" letter-spacing="0.01em">r</tspan><tspan x="283.21" y="0">y</tspan></text>
    <text transform="translate(84.33 53.52) scale(1.05 1)" font-size="21" fill="#231f20" font-family="RobotoSlab-Regular, Roboto Slab">IM<tspan x="26.32" y="0" letter-spacing="-0.12em">P</tspan><tspan x="37.04" y="0" letter-spacing="-0.04em">A</tspan><tspan x="51.6" y="0" letter-spacing="-0.01em">C</tspan><tspan x="64.85" y="0">T: </tspan><tspan x="0" y="25.2">S</tspan><tspan x="12.79" y="25.2" letter-spacing="-0.01em">ev</tspan><tspan x="35.53" y="25.2">e</tspan><tspan x="46.82" y="25.2" letter-spacing="-0.01em">r</tspan><tspan x="55.31" y="25.2">ely Injurious Cras</tspan><tspan x="229.81" y="25.2" letter-spacing="0em">h</tspan><tspan x="243.26" y="25.2">es</tspan></text>
    <text transform="translate(84.33 116.52) scale(1.05 1)" font-size="14" fill="#231f20" font-family="RobotoSlab-Light, Roboto Slab" font-weight="300">2017 Had a <tspan x="73.33" y="0" letter-spacing="-0.01em">t</tspan><tspan x="78.2" y="0">otal of:</tspan><tspan x="0" y="33.6" letter-spacing="-0.01em">P</tspan><tspan x="8.63" y="33.6">edestrian crash cases: </tspan><tspan x="157.09" y="33.6" font-family="RobotoSlab-Bold, Roboto Slab" font-weight="700">2946</tspan><tspan x="0" y="67.2">Bic</tspan><tspan x="20.88" y="67.2" letter-spacing="-0.01em">y</tspan><tspan x="28.81" y="67.2">cle crash cases: </tspan><tspan x="134.33" y="67.2" font-family="RobotoSlab-Bold, Roboto Slab" font-weight="700">1570 </tspan><tspan x="0" y="100.8">Out of t</tspan><tspan x="48.12" y="100.8" letter-spacing="0em">h</tspan><tspan x="56.92" y="100.8">ese, s</tspan><tspan x="92.09" y="100.8" letter-spacing="-0.01em">ev</tspan><tspan x="107.34" y="100.8">e</tspan><tspan x="114.87" y="100.8" letter-spacing="-0.01em">r</tspan><tspan x="120.37" y="100.8" letter-spacing="0em">ely injurious we</tspan><tspan x="224.92" y="100.8" letter-spacing="-0.01em">r</tspan><tspan x="230.42" y="100.8" letter-spacing="0em">e:</tspan><tspan x="0" y="134.4" letter-spacing="-0.01em">P</tspan><tspan x="8.63" y="134.4">edestrians: </tspan><tspan x="83.83" y="134.4" font-family="RobotoSlab-Bold, Roboto Slab" font-weight="700">347 cases</tspan><tspan x="0" y="168">Bic</tspan><tspan x="20.88" y="168" letter-spacing="-0.01em">y</tspan><tspan x="28.81" y="168">cles: </tspan><tspan x="61.07" y="168" font-family="RobotoSlab-Bold, Roboto Slab" font-weight="700">105 cases</tspan></text>
    <text transform="translate(481.33 116.52) scale(1.05 1)" font-size="14" fill="#231f20" font-family="RobotoSlab-Light, Roboto Slab" font-weight="300">2017 Had a <tspan x="73.33" y="0" letter-spacing="-0.01em">t</tspan><tspan x="78.2" y="0">otal of </tspan><tspan x="122.62" y="0" font-family="RobotoSlab-Bold, Roboto Slab" font-weight="700" letter-spacing="0em">85 f</tspan><tspan x="146.35" y="0" font-family="RobotoSlab-Bold, Roboto Slab" font-weight="700" letter-spacing="-0.04em">a</tspan><tspan x="153.49" y="0" font-family="RobotoSlab-Bold, Roboto Slab" font-weight="700">tal c</tspan><tspan x="181.68" y="0" font-family="RobotoSlab-Bold, Roboto Slab" font-weight="700" letter-spacing="-0.01em">r</tspan><tspan x="187.43" y="0" font-family="RobotoSlab-Bold, Roboto Slab" font-weight="700">as</tspan><tspan x="202.33" y="0" font-family="RobotoSlab-Bold, Roboto Slab" font-weight="700" letter-spacing="0em">h</tspan><tspan x="211.16" y="0" font-family="RobotoSlab-Bold, Roboto Slab" font-weight="700">es.</tspan><tspan x="0" y="33.6">Of which:</tspan><tspan x="0" y="67.2" letter-spacing="-0.01em">P</tspan><tspan x="8.63" y="67.2" xml:space="preserve">edestrians:  </tspan><tspan x="87.23" y="67.2" font-family="RobotoSlab-Bold, Roboto Slab" font-weight="700">74 cases</tspan><tspan x="0" y="100.8">Bic</tspan><tspan x="20.88" y="100.8" letter-spacing="-0.01em">y</tspan><tspan x="28.81" y="100.8">cles: </tspan><tspan x="61.07" y="100.8" font-family="RobotoSlab-Bold, Roboto Slab" font-weight="700">11 cases</tspan></text>
    <text transform="translate(481.33 53.52) scale(1.05 1)" font-size="21" fill="#231f20" font-family="RobotoSlab-Regular, Roboto Slab"><tspan letter-spacing="-0.15em">F</tspan><tspan x="9.99" y="0">ARS: </tspan><tspan x="0" y="25.2" letter-spacing="-0.02em">F</tspan><tspan x="12.7" y="25.2">atal Cras</tspan><tspan x="99.86" y="25.2" letter-spacing="0em">h</tspan><tspan x="113.32" y="25.2">es</tspan></text>
  </g>
</svg>
