<svg xmlns="http://www.w3.org/2000/svg" viewBox="0 0 792 612">
  <title>pres_slides_svg</title>
  <g id="Intersection">
    <g id="Bikes-2" data-name="Bikes">
      <g>
        <polygon points="468.63 151.1 472.57 152.5 476.5 153.9 480.43 155.3 484.36 156.7 488.29 158.1 492.23 159.5 496.16 160.89 500.09 162.29 504.03 163.69 507.96 165.08 511.89 166.48 515.82 167.88 519.76 169.28 523.69 170.68 527.62 172.08 531.55 173.48 535.48 174.88 539.42 176.27 543.36 177.67 547.29 179.07 551.22 180.47 555.15 181.87 559.08 183.27 563.01 184.67 566.95 186.06 570.88 187.46 574.81 188.86 578.75 190.25 582.68 191.65 584 187.73 585.18 183.77 586.24 179.77 587.15 175.74 587.92 171.67 588.55 167.57 589.05 163.47 589.4 159.34 589.61 155.2 589.68 151.07 589.61 146.93 589.4 142.8 589.04 138.67 588.54 134.56 587.91 130.47 587.13 126.4 586.22 122.38 585.17 118.37 583.98 114.41 582.66 110.48 581.2 106.61 579.62 102.78 577.91 99.02 576.05 95.31 574.09 91.67 571.99 88.1 569.79 84.61 567.45 81.19 564.04 83.6 560.63 86.01 557.23 88.42 553.82 90.83 550.41 93.24 547 95.65 543.6 98.06 540.18 100.48 536.78 102.89 533.38 105.29 529.96 107.71 526.56 110.11 523.15 112.53 519.74 114.94 516.33 117.35 512.93 119.76 509.52 122.17 506.11 124.58 502.71 126.99 499.29 129.41 495.89 131.81 492.49 134.22 489.08 136.64 485.67 139.05 482.26 141.46 478.86 143.87 475.44 146.28 472.04 148.69 468.63 151.1 468.63 151.1" fill="#dcb680" stroke="#e6e7e8" stroke-miterlimit="10" stroke-width="2"/>
        <polygon points="468.63 151.1 469.75 155.12 470.87 159.14 471.99 163.17 473.11 167.19 474.23 171.2 475.35 175.24 476.48 179.25 477.59 183.26 478.71 187.29 479.84 191.31 480.95 195.34 482.07 199.35 483.19 203.37 484.31 207.4 485.43 211.41 486.55 215.43 487.67 219.46 488.8 223.48 489.91 227.5 491.03 231.52 492.16 235.54 493.27 239.57 494.39 243.58 495.52 247.6 496.63 251.63 497.75 255.64 498.87 259.67 500 263.69 501.12 267.71 505.08 266.54 509 265.22 512.89 263.77 516.71 262.19 520.48 260.48 524.19 258.65 527.84 256.68 531.41 254.6 534.91 252.39 538.33 250.07 541.67 247.62 544.93 245.06 548.1 242.41 551.18 239.64 554.15 236.76 557.04 233.79 559.81 230.72 562.47 227.55 565.03 224.3 567.48 220.97 569.82 217.55 572.03 214.04 574.12 210.47 576.09 206.83 577.93 203.13 579.64 199.36 581.23 195.54 582.68 191.65 578.75 190.25 574.81 188.86 570.88 187.46 566.95 186.06 563.01 184.67 559.08 183.27 555.15 181.87 551.22 180.47 547.29 179.07 543.36 177.67 539.42 176.27 535.48 174.88 531.55 173.48 527.62 172.08 523.69 170.68 519.76 169.28 515.82 167.88 511.89 166.48 507.96 165.08 504.03 163.69 500.09 162.29 496.16 160.89 492.23 159.5 488.29 158.1 484.36 156.7 480.43 155.3 476.5 153.9 472.57 152.5 468.63 151.1 468.63 151.1" fill="#8db936" stroke="#e6e7e8" stroke-miterlimit="10" stroke-width="2"/>
        <polygon points="468.63 151.1 468.63 146.93 468.61 142.75 468.6 138.58 468.59 134.41 468.58 130.24 468.57 126.06 468.56 121.89 468.55 117.72 468.55 113.53 468.53 109.36 468.52 105.19 468.51 101.02 468.5 96.84 468.49 92.67 468.48 88.5 468.47 84.32 468.46 80.15 468.45 75.96 468.44 71.79 468.43 67.61 468.42 63.44 468.41 59.27 468.39 55.09 468.38 50.92 468.37 46.75 468.36 42.58 468.35 38.4 468.35 34.22 468.34 30.05 464.2 30.13 460.09 30.35 455.97 30.72 451.88 31.22 447.79 31.86 443.75 32.64 439.72 33.56 435.73 34.61 431.78 35.81 427.86 37.12 424.01 38.58 420.19 40.17 416.43 41.89 412.74 43.72 409.11 45.7 405.55 47.79 402.06 50 398.65 52.33 395.32 54.77 392.09 57.33 388.93 59.99 385.88 62.76 382.9 65.64 380.05 68.61 377.27 71.68 374.62 74.84 372.08 78.09 369.64 81.42 367.32 84.85 365.13 88.33 363.05 91.9 361.09 95.54 359.26 99.23 357.55 103 355.98 106.81 354.53 110.67 353.22 114.59 352.04 118.55 351 122.54 350.1 126.57 349.33 130.63 348.7 134.71 348.21 138.81 347.85 142.93 347.65 147.05 347.58 151.18 347.65 155.3 347.86 159.43 348.22 163.54 348.71 167.64 349.35 171.71 350.13 175.78 351.04 179.8 352.08 183.79 353.26 187.75 354.57 191.66 356.03 195.52 357.61 199.35 359.31 203.1 361.15 206.8 363.12 210.44 365.2 213.99 367.41 217.48 369.73 220.9 372.16 224.23 374.73 227.48 377.38 230.64 380.14 233.71 383.01 236.67 385.99 239.54 389.04 242.32 392.21 244.97 395.45 247.52 398.78 249.96 402.19 252.28 405.67 254.5 409.25 256.58 412.87 258.54 416.57 260.39 420.32 262.1 424.13 263.68 428.01 265.13 431.92 266.45 435.87 267.63 439.87 268.68 443.89 269.6 447.94 270.37 452.03 271.01 456.13 271.5 460.23 271.86 464.36 272.06 468.49 272.15 472.62 272.09 476.74 271.88 480.86 271.53 484.95 271.05 489.04 270.42 493.09 269.65 497.12 268.75 501.12 267.71 500 263.69 498.87 259.67 497.75 255.64 496.63 251.63 495.52 247.6 494.39 243.58 493.27 239.57 492.16 235.54 491.03 231.52 489.91 227.5 488.8 223.48 487.67 219.46 486.55 215.43 485.43 211.41 484.31 207.4 483.19 203.37 482.07 199.35 480.95 195.34 479.84 191.31 478.71 187.29 477.59 183.26 476.48 179.25 475.35 175.24 474.23 171.2 473.11 167.19 471.99 163.17 470.87 159.14 469.75 155.12 468.63 151.1 468.63 151.1" fill="#bccd30" stroke="#e6e7e8" stroke-miterlimit="10" stroke-width="2"/>
        <polygon points="468.63 151.1 472.04 148.69 475.44 146.28 478.86 143.87 482.26 141.46 485.67 139.05 489.08 136.64 492.49 134.22 495.89 131.81 499.29 129.41 502.71 126.99 506.11 124.58 509.52 122.17 512.93 119.76 516.33 117.35 519.74 114.94 523.15 112.53 526.56 110.11 529.96 107.71 533.38 105.29 536.78 102.89 540.18 100.48 543.6 98.06 547 95.65 550.41 93.24 553.82 90.83 557.23 88.42 560.63 86.01 564.04 83.6 567.45 81.19 565 77.84 562.44 74.6 559.77 71.43 556.99 68.36 554.11 65.39 551.14 62.52 548.05 59.75 544.88 57.09 541.62 54.54 538.28 52.1 534.85 49.78 531.35 47.57 527.78 45.48 524.13 43.52 520.42 41.7 516.65 39.99 512.83 38.41 508.94 36.96 505.03 35.65 501.06 34.48 497.05 33.43 493 32.53 488.94 31.77 484.85 31.14 480.74 30.66 476.61 30.31 472.48 30.11 468.34 30.05 468.35 34.22 468.35 38.4 468.36 42.58 468.37 46.75 468.38 50.92 468.39 55.09 468.41 59.27 468.42 63.44 468.43 67.61 468.44 71.79 468.45 75.96 468.46 80.15 468.47 84.32 468.48 88.5 468.49 92.67 468.5 96.84 468.51 101.02 468.52 105.19 468.53 109.36 468.55 113.53 468.55 117.72 468.56 121.89 468.57 126.06 468.58 130.24 468.59 134.41 468.6 138.58 468.61 142.75 468.63 146.93 468.63 151.1 468.63 151.1" fill="#969f3c" stroke="#e6e7e8" stroke-miterlimit="10" stroke-width="2"/>
      </g>
      <path d="M395.06,167.51a75.38,75.38,0,1,1,90,57.16A75.38,75.38,0,0,1,395.06,167.51Z" fill="#fff"/>
      <g>
        <g opacity="0.8">
          <rect x="125.6" y="443.33" width="90" height="24.62" fill="#f15a29" stroke="#e6e7e8" stroke-miterlimit="10" stroke-width="2"/>
        </g>
        <g opacity="0.8">
          <rect x="125.6" y="311.61" width="90" height="131.72" fill="#f7941d" stroke="#e6e7e8" stroke-miterlimit="10" stroke-width="2"/>
        </g>
        <g opacity="0.8">
          <rect x="125.6" y="229.32" width="90" height="82.29" fill="#ef4136" stroke="#e6e7e8" stroke-miterlimit="10" stroke-width="2"/>
        </g>
        <g opacity="0.8">
          <rect x="125.6" y="35.95" width="90" height="193.37" fill="#be1e2d" stroke="#e6e7e8" stroke-miterlimit="10" stroke-width="2"/>
        </g>
      </g>
      <text transform="translate(76.75 462.57) scale(1.05 1)" font-size="14" fill="#231f20" font-family="NewsCycle, News Cycle">Others</text>
      <text transform="translate(30.72 380.03) scale(1.05 1)" font-size="14" fill="#231f20" font-family="NewsCycle, News Cycle">T-Intersections</text>
      <text transform="translate(77.17 266.87) scale(1.05 1)" font-size="14" fill="#231f20" font-family="NewsCycle, News Cycle">4-Way<tspan x="-33.48" y="16.8">Intersections</tspan></text>
      <text transform="translate(37.91 144.41) scale(1.05 1)" font-size="14" fill="#231f20" font-family="NewsCycle, News Cycle">Straight Road</text>
      <text transform="translate(37.34 548.69) scale(1.05 1)" font-size="27.55" fill="#231f20" font-family="RobotoSlab-Regular, Roboto Slab">S<tspan x="16.78" y="0" letter-spacing="-0.01em">ev</tspan><tspan x="46.62" y="0">e</tspan><tspan x="61.43" y="0" letter-spacing="-0.01em">r</tspan><tspan x="72.57" y="0">e Bic</tspan><tspan x="136.23" y="0" letter-spacing="-0.01em">y</tspan><tspan x="151.68" y="0">cle Cras</tspan><tspan x="255.26" y="0" letter-spacing="0em">h</tspan><tspan x="272.91" y="0">es:</tspan><tspan x="0" y="33.06">Road Intersections &amp; </tspan><tspan x="276.72" y="33.06" letter-spacing="-0.02em">V</tspan><tspan x="295.9" y="33.06" letter-spacing="0em">ehicle Action</tspan></text>
      <g>
        <g>
          <polygon points="468.63 440.53 468.64 437.27 468.63 434.01 468.64 430.76 468.63 427.5 468.63 424.24 468.63 420.98 468.63 417.72 468.63 414.46 468.63 411.2 468.63 407.95 468.63 404.69 468.63 401.43 468.63 398.17 468.63 394.91 468.63 391.64 468.62 388.39 468.62 385.13 468.63 381.87 468.62 378.61 468.63 375.35 468.62 372.09 468.62 368.83 468.62 365.57 468.62 362.31 468.62 359.06 468.62 355.8 468.61 352.54 468.62 349.28 468.61 346.02 465.42 346.08 462.23 346.24 459.04 346.51 455.86 346.88 452.7 347.37 449.55 347.97 446.43 348.67 443.33 349.48 440.26 350.38 437.23 351.39 434.23 352.51 431.27 353.72 428.35 355.03 425.48 356.45 422.66 357.95 419.89 359.56 417.18 361.26 414.52 363.05 411.94 364.92 409.4 366.88 406.95 368.93 404.56 371.05 402.25 373.26 400 375.55 397.85 377.91 395.76 380.34 393.77 382.84 391.87 385.41 390.04 388.04 388.31 390.73 386.67 393.48 385.12 396.28 383.68 399.13 382.33 402.03 381.07 404.97 379.92 407.96 378.86 410.98 377.92 414.03 377.06 417.12 376.32 420.23 375.7 423.36 375.17 426.52 374.75 429.69 374.43 432.88 374.22 436.07 374.14 439.27 374.14 442.47 374.27 445.67 374.49 448.85 374.82 452.05 375.27 455.21 375.82 458.36 376.47 461.5 377.24 464.61 378.1 467.68 379.08 470.73 380.14 473.74 381.32 476.72 384.34 475.47 387.35 474.22 390.35 472.98 393.37 471.73 396.37 470.48 399.39 469.23 402.4 467.98 405.41 466.73 408.42 465.49 411.43 464.24 414.44 462.99 417.45 461.74 420.47 460.49 423.47 459.25 426.49 458 429.5 456.75 432.5 455.51 435.52 454.26 438.52 453.01 441.54 451.76 444.55 450.51 447.56 449.27 450.57 448.02 453.58 446.77 456.6 445.52 459.6 444.27 462.62 443.02 465.62 441.78 468.63 440.53 468.63 440.53" fill="#bccd30" stroke="#e6e7e8" stroke-miterlimit="10" stroke-width="2"/>
          <polygon points="468.63 440.53 471.64 441.78 474.66 443.03 477.67 444.28 480.68 445.51 483.69 446.77 486.7 448.01 489.71 449.26 492.73 450.51 495.74 451.75 498.74 453 501.76 454.25 504.77 455.5 507.78 456.73 510.79 457.98 513.8 459.23 516.82 460.48 519.83 461.73 522.84 462.97 525.84 464.22 528.86 465.46 531.87 466.71 534.88 467.96 537.9 469.2 540.9 470.45 543.91 471.7 546.93 472.95 549.94 474.19 552.95 475.43 555.96 476.68 557.13 473.71 558.2 470.69 559.17 467.64 560.04 464.57 560.81 461.46 561.46 458.33 562.01 455.17 562.45 452 562.79 448.83 563.01 445.63 563.13 442.44 563.13 439.23 563.04 436.03 562.84 432.84 562.52 429.66 562.1 426.49 561.57 423.33 560.94 420.2 560.19 417.09 559.35 414 558.4 410.94 557.34 407.93 556.19 404.94 554.93 402 553.58 399.1 552.13 396.25 550.58 393.45 548.94 390.69 547.21 388.01 545.39 385.38 543.48 382.81 541.48 380.31 539.4 377.89 537.23 375.52 535 373.24 532.68 371.03 530.29 368.9 527.84 366.85 525.3 364.9 522.72 363.02 520.06 361.23 517.35 359.54 514.58 357.94 511.75 356.43 508.88 355.02 505.97 353.71 503 352.5 500.01 351.38 496.97 350.37 493.9 349.46 490.81 348.66 487.68 347.96 484.54 347.37 481.38 346.89 478.2 346.51 475.01 346.23 471.82 346.07 468.61 346.02 468.62 349.28 468.61 352.54 468.62 355.8 468.62 359.06 468.62 362.31 468.62 365.57 468.62 368.83 468.62 372.09 468.63 375.35 468.62 378.61 468.63 381.87 468.62 385.13 468.62 388.39 468.63 391.64 468.63 394.91 468.63 398.17 468.63 401.43 468.63 404.69 468.63 407.95 468.63 411.2 468.63 414.46 468.63 417.72 468.63 420.98 468.63 424.24 468.63 427.5 468.64 430.76 468.63 434.01 468.64 437.27 468.63 440.53 468.63 440.53" fill="#969f3c" stroke="#e6e7e8" stroke-miterlimit="10" stroke-width="2"/>
          <polygon points="468.63 440.53 466.34 442.84 464.03 445.14 461.72 447.44 459.42 449.75 457.11 452.06 454.81 454.37 452.5 456.67 450.2 458.97 447.9 461.28 445.6 463.58 443.29 465.89 440.99 468.19 438.69 470.5 436.38 472.8 434.07 475.11 431.78 477.41 429.47 479.71 427.17 482.02 424.86 484.33 422.55 486.63 420.25 488.94 417.94 491.24 415.64 493.55 413.34 495.85 411.03 498.15 408.73 500.46 406.43 502.76 404.12 505.08 401.82 507.38 404.12 509.6 406.5 511.74 408.94 513.81 411.46 515.78 414.03 517.68 416.67 519.48 419.38 521.19 422.14 522.82 424.95 524.34 427.81 525.77 430.72 527.11 433.67 528.33 436.66 529.48 439.69 530.5 442.75 531.43 445.84 532.26 448.97 532.97 452.11 533.59 455.25 534.1 458.43 534.49 461.62 534.79 464.82 534.97 468.01 535.04 471.21 535.01 474.41 534.87 477.6 534.62 480.77 534.26 483.95 533.8 487.09 533.23 490.22 532.54 493.32 531.76 496.39 530.88 499.44 529.89 502.44 528.79 505.41 527.6 508.34 526.3 511.21 524.91 514.05 523.42 516.83 521.84 519.55 520.16 522.22 518.38 524.82 516.53 527.36 514.59 529.84 512.56 532.24 510.44 534.57 508.25 536.82 505.98 539 503.63 541.09 501.21 543.11 498.72 545.03 496.17 546.87 493.56 548.62 490.88 550.28 488.14 551.84 485.36 553.32 482.51 554.68 479.62 555.96 476.68 552.95 475.43 549.94 474.19 546.93 472.95 543.91 471.7 540.9 470.45 537.9 469.2 534.88 467.96 531.87 466.71 528.86 465.46 525.84 464.22 522.84 462.97 519.83 461.73 516.82 460.48 513.8 459.23 510.79 457.98 507.78 456.73 504.77 455.5 501.76 454.25 498.74 453 495.74 451.75 492.73 450.51 489.71 449.26 486.7 448.01 483.69 446.77 480.68 445.51 477.67 444.28 474.66 443.03 471.64 441.78 468.63 440.53 468.63 440.53" fill="#dcb680" stroke="#e6e7e8" stroke-miterlimit="10" stroke-width="2"/>
          <polygon points="468.63 440.53 465.62 441.78 462.62 443.02 459.6 444.27 456.6 445.52 453.58 446.77 450.57 448.02 447.56 449.27 444.55 450.51 441.54 451.76 438.52 453.01 435.52 454.26 432.5 455.51 429.5 456.75 426.49 458 423.47 459.25 420.47 460.49 417.45 461.74 414.44 462.99 411.43 464.24 408.42 465.49 405.41 466.73 402.4 467.98 399.39 469.23 396.37 470.48 393.37 471.73 390.35 472.98 387.35 474.22 384.34 475.47 381.32 476.72 382.67 479.81 384.13 482.85 385.69 485.84 387.37 488.77 389.14 491.64 391.01 494.45 392.99 497.18 395.06 499.85 397.22 502.44 399.47 504.95 401.82 507.38 404.12 505.08 406.43 502.76 408.73 500.46 411.03 498.15 413.34 495.85 415.64 493.55 417.94 491.24 420.25 488.94 422.55 486.63 424.86 484.33 427.17 482.02 429.47 479.71 431.78 477.41 434.07 475.11 436.38 472.8 438.69 470.5 440.99 468.19 443.29 465.89 445.6 463.58 447.9 461.28 450.2 458.97 452.5 456.67 454.81 454.37 457.11 452.06 459.42 449.75 461.72 447.44 464.03 445.14 466.34 442.84 468.63 440.53 468.63 440.53" fill="#8db936" stroke="#e6e7e8" stroke-miterlimit="10" stroke-width="2"/>
        </g>
        <path d="M409.89,448a59.21,59.21,0,1,1,66.18,51.3A59.21,59.21,0,0,1,409.89,448Z" fill="#fff" stroke="#e6e7e8" stroke-miterlimit="10" stroke-width="2"/>
      </g>
      <text transform="translate(451.08 451.55) scale(1.05 1)" font-size="11.35" fill="#3e480c" font-family="RobotoSlab-Regular, Roboto Slab">S<tspan x="6.91" y="0" letter-spacing="-0.01em">ev</tspan><tspan x="19.2" y="0" letter-spacing="0em">e</tspan><tspan x="25.3" y="0" letter-spacing="-0.01em">r</tspan><tspan x="29.88" y="0">e </tspan><tspan x="0" y="13.62">Cras</tspan><tspan x="24.04" y="13.62" letter-spacing="0em">h</tspan><tspan x="31.31" y="13.62" letter-spacing="0em">es</tspan><tspan font-size="7.29"><tspan x="0" y="22.37" letter-spacing="-0.05em">A</tspan><tspan x="4.96" y="22.37">t </tspan><tspan x="9.45" y="22.37" letter-spacing="-0.11em">T</tspan><tspan x="13.19" y="22.37">-Intersections</tspan></tspan></text>
      <text transform="translate(423.37 432.86)" opacity="0.4" font-size="40.96" fill="#231f20" font-family="RobotoSlab-Regular, Roboto Slab">32</text>
      <text transform="translate(449.25 171.89) scale(1.05 1)" font-size="16.74" fill="#3e480c" font-family="RobotoSlab-Regular, Roboto Slab">S<tspan x="10.2" y="0" letter-spacing="-0.01em">ev</tspan><tspan x="28.33" y="0">e</tspan><tspan x="37.33" y="0" letter-spacing="-0.01em">r</tspan><tspan x="44.1" y="0">e</tspan><tspan x="0" y="20.09">Cras</tspan><tspan x="35.48" y="20.09" letter-spacing="0em">h</tspan><tspan x="46.21" y="20.09" letter-spacing="0em">es</tspan></text>
      <text transform="translate(404.59 149.14)" opacity="0.4" font-size="51.5" fill="#231f20" font-family="RobotoSlab-Regular, Roboto Slab">105</text>
      <path d="M756.18,47.67c0,4.35-2.88,7.87-6.43,7.87H630.92c-3.55,0-6.43-3.52-6.43-7.87V38.33c0-4.35,2.88-7.87,6.43-7.87H749.75c3.55,0,6.43,3.52,6.43,7.87Z" fill="#969f3c" stroke="#e6e7e8" stroke-miterlimit="10" stroke-width="2"/>
      <path d="M756.18,113.33c0,4.35-2.88,7.87-6.43,7.87H630.92c-3.55,0-6.43-3.52-6.43-7.87V104c0-4.35,2.88-7.87,6.43-7.87H749.75c3.55,0,6.43,3.52,6.43,7.87Z" fill="#dcb680" stroke="#e6e7e8" stroke-miterlimit="10" stroke-width="2"/>
      <path d="M756.18,202.75c0,4.35-2.88,7.87-6.43,7.87H630.92c-3.55,0-6.43-3.52-6.43-7.87v-9.34c0-4.35,2.88-7.87,6.43-7.87H749.75c3.55,0,6.43,3.52,6.43,7.87Z" fill="#8db936" stroke="#e6e7e8" stroke-miterlimit="10" stroke-width="2"/>
      <path d="M756.18,249.7c0,4.35-2.88,7.87-6.43,7.87H630.92c-3.55,0-6.43-3.52-6.43-7.87v-9.34c0-4.35,2.88-7.87,6.43-7.87H749.75c3.55,0,6.43,3.52,6.43,7.87Z" fill="#bccd30" stroke="#e6e7e8" stroke-miterlimit="10" stroke-width="2"/>
      <text transform="translate(635.57 250.17) scale(1.05 1)" font-size="12" fill="#231f20" font-family="NewsCycle, News Cycle">54.4% Driving Straight</text>
      <text transform="translate(642.07 112.5) scale(1.05 1)" font-size="12" fill="#231f20" font-family="NewsCycle, News Cycle">15.2% Turning Right</text>
      <text transform="translate(661.27 203.46) scale(1.05 1)" font-size="12" fill="#231f20" font-family="NewsCycle, News Cycle">15.2% Other</text>
      <text transform="translate(645.2 47.74) scale(1.05 1)" font-size="12" fill="#231f20" font-family="NewsCycle, News Cycle">15.2% Turning Left</text>
      <g>
        <path d="M756,421.67c0,4.35-2.88,7.87-6.44,7.87H630.77c-3.56,0-6.44-3.52-6.44-7.87v-9.34c0-4.35,2.88-7.87,6.44-7.87H749.59c3.56,0,6.44,3.52,6.44,7.87Z" fill="#969f3c" stroke="#e6e7e8" stroke-miterlimit="10" stroke-width="2"/>
        <path d="M756,527.17c0,4.35-2.88,7.87-6.44,7.87H630.77c-3.56,0-6.44-3.52-6.44-7.87v-9.34c0-4.35,2.88-7.87,6.44-7.87H749.59c3.56,0,6.44,3.52,6.44,7.87Z" fill="#dcb680" stroke="#e6e7e8" stroke-miterlimit="10" stroke-width="2"/>
        <path d="M756,492.46c0,4.35-2.88,7.87-6.44,7.87H630.77c-3.56,0-6.44-3.52-6.44-7.87v-9.34c0-4.35,2.88-7.87,6.44-7.87H749.59c3.56,0,6.44,3.52,6.44,7.87Z" fill="#8db936" stroke="#e6e7e8" stroke-miterlimit="10" stroke-width="2"/>
        <path d="M756,378.7c0,4.35-2.88,7.87-6.44,7.87H630.77c-3.56,0-6.44-3.52-6.44-7.87v-9.34c0-4.35,2.88-7.87,6.44-7.87H749.59c3.56,0,6.44,3.52,6.44,7.87Z" fill="#bccd30" stroke="#e6e7e8" stroke-miterlimit="10" stroke-width="2"/>
        <text transform="translate(640.26 379.17) scale(1.05 1)" font-size="12" fill="#231f20" font-family="NewsCycle, News Cycle">32% Driving Straight</text>
        <text transform="translate(645.29 526.35) scale(1.05 1)" font-size="12" fill="#231f20" font-family="NewsCycle, News Cycle">32% Turning Right</text>
        <text transform="translate(667.81 493.17) scale(1.05 1)" font-size="12" fill="#231f20" font-family="NewsCycle, News Cycle">4% Other</text>
        <text transform="translate(648.43 421.74) scale(1.05 1)" font-size="12" fill="#231f20" font-family="NewsCycle, News Cycle">32% Turning Left</text>
      </g>
      <g opacity="0.4">
        <g>
          <line x1="535.74" y1="374" x2="533.24" y2="374" fill="none" stroke="#231f20" stroke-miterlimit="10"/>
          <line x1="531.33" y1="374" x2="472.08" y2="374" fill="none" stroke="#231f20" stroke-miterlimit="10" stroke-dasharray="4.78 1.91"/>
          <line x1="471.12" y1="374" x2="468.62" y2="374" fill="none" stroke="#231f20" stroke-miterlimit="10"/>
        </g>
      </g>
      <g opacity="0.4">
        <g>
          <line x1="615.19" y1="374" x2="535.74" y2="374" fill="none" stroke="#231f20" stroke-miterlimit="10"/>
          <path d="M615.09,372.12a1.88,1.88,0,1,1-1.88,1.88A1.88,1.88,0,0,1,615.09,372.12Z" fill="#231f20"/>
        </g>
      </g>
      <g opacity="0.4">
        <g>
          <line x1="615.19" y1="417" x2="561.25" y2="417" fill="none" stroke="#231f20" stroke-miterlimit="10"/>
          <path d="M615.09,415.12a1.88,1.88,0,1,1-1.88,1.88A1.88,1.88,0,0,1,615.09,415.12Z" fill="#231f20"/>
        </g>
      </g>
      <g opacity="0.4">
        <g>
          <line x1="550.28" y1="487.79" x2="547.78" y2="487.79" fill="none" stroke="#231f20" stroke-miterlimit="10"/>
          <line x1="545.8" y1="487.79" x2="422.49" y2="487.79" fill="none" stroke="#231f20" stroke-miterlimit="10" stroke-dasharray="4.93 1.97"/>
          <line x1="421.5" y1="487.79" x2="419" y2="487.79" fill="none" stroke="#231f20" stroke-miterlimit="10"/>
        </g>
      </g>
      <g opacity="0.4">
        <g>
          <line x1="615.19" y1="487.79" x2="550.28" y2="487.79" fill="none" stroke="#231f20" stroke-miterlimit="10"/>
          <path d="M615.09,485.91a1.88,1.88,0,1,1-1.88,1.88A1.88,1.88,0,0,1,615.09,485.91Z" fill="#231f20"/>
        </g>
      </g>
      <g opacity="0.4">
        <g>
          <line x1="615.19" y1="522.5" x2="515.87" y2="522.5" fill="none" stroke="#231f20" stroke-miterlimit="10"/>
          <circle cx="615.09" cy="522.5" r="1.88" fill="#231f20"/>
        </g>
      </g>
      <g opacity="0.4">
        <g>
          <line x1="615.71" y1="43" x2="521" y2="43" fill="none" stroke="#231f20" stroke-miterlimit="10"/>
          <circle cx="615.62" cy="43" r="1.88" fill="#231f20"/>
        </g>
      </g>
      <g opacity="0.4">
        <g>
          <line x1="615.71" y1="108.66" x2="581.43" y2="108.66" fill="none" stroke="#231f20" stroke-miterlimit="10"/>
          <circle cx="615.62" cy="108.66" r="1.88" fill="#231f20"/>
        </g>
      </g>
      <g opacity="0.4">
        <g>
          <line x1="615.71" y1="198.08" x2="580" y2="198.08" fill="none" stroke="#231f20" stroke-miterlimit="10"/>
          <circle cx="615.62" cy="198.08" r="1.88" fill="#231f20"/>
        </g>
      </g>
      <line x1="544.94" y1="245.03" x2="494.75" y2="245.03" fill="none" stroke="#231f20" stroke-miterlimit="10" stroke-dasharray="5 2" opacity="0.4"/>
      <g opacity="0.4">
        <g>
          <line x1="615.71" y1="245.03" x2="544.94" y2="245.03" fill="none" stroke="#231f20" stroke-miterlimit="10"/>
          <circle cx="615.62" cy="245.03" r="1.88" fill="#231f20"/>
        </g>
      </g>
      <text transform="translate(160.71 137.84) scale(1.05 1)" font-size="17" fill="#231f20" font-family="NewsCycle-Bold, News Cycle" font-weight="700"><tspan letter-spacing="-0.02em">4</tspan><tspan x="10.33" y="0">7</tspan></text>
      <text transform="translate(158.94 150.98) scale(1.05 1)" font-size="10" fill="#231f20" font-family="NewsCycle, News Cycle">(45%)</text>
      <text transform="translate(160.23 271.02) scale(1.05 1)" font-size="17" fill="#231f20" font-family="NewsCycle-Bold, News Cycle" font-weight="700">20</text>
      <text transform="translate(159.63 284.15) scale(1.05 1)" font-size="10" fill="#231f20" font-family="NewsCycle, News Cycle">(19%)</text>
      <text transform="translate(160.06 374.99) scale(1.05 1)" font-size="17" fill="#231f20" font-family="NewsCycle-Bold, News Cycle" font-weight="700">32</text>
      <text transform="translate(159.61 388.12) scale(1.05 1)" font-size="10" fill="#231f20" font-family="NewsCycle, News Cycle">(31%)</text>
      <text transform="translate(165.3 452.67) scale(1.05 1)" font-size="17" fill="#231f20" font-family="NewsCycle-Bold, News Cycle" font-weight="700">6</text>
      <text transform="translate(162.2 465.8) scale(1.05 1)" font-size="10" fill="#231f20" font-family="NewsCycle, News Cycle">(5%)</text>
    </g>
  </g>
  <g id="Peds-2" data-name="Peds">
    <g id="ped_sv-2" data-name="ped_sv">
      <text transform="translate(468.34 335.72) scale(1.05 1)" font-size="21" fill="#414042" font-family="RobotoSlab-Regular, Roboto Slab">Of which at <tspan x="119.89" y="0" letter-spacing="-0.11em">T</tspan><tspan x="130.68" y="0" letter-spacing="0em">-intersections:</tspan></text>
    </g>
  </g>
</svg>
