<svg xmlns="http://www.w3.org/2000/svg" viewBox="0 0 792 612"><defs><style>.cls-1{fill:#8db936;}.cls-1,.cls-2,.cls-3,.cls-4,.cls-5{stroke:#f1f2f2;stroke-linecap:round;stroke-linejoin:round;stroke-width:2px;}.cls-2{fill:#bccd30;}.cls-3{fill:#969f3c;}.cls-4{fill:#dcb680;}.cls-5{fill:#fff;}.cls-6{font-size:21px;fill:#414042;}.cls-11,.cls-12,.cls-30,.cls-6{font-family:RobotoSlab-Regular, Roboto Slab;}.cls-7{letter-spacing:-0.02em;}.cls-8{letter-spacing:-0.01em;}.cls-9{letter-spacing:-0.01em;}.cls-10{letter-spacing:-0.01em;}.cls-11,.cls-19,.cls-30{opacity:0.4;}.cls-11{font-size:61.45px;}.cls-11,.cls-12,.cls-18,.cls-21,.cls-30,.cls-33{fill:#231f20;}.cls-12{font-size:27.55px;}.cls-13{letter-spacing:-0.01em;}.cls-14{letter-spacing:0em;}.cls-15{letter-spacing:0em;}.cls-16{letter-spacing:-0.02em;}.cls-17{letter-spacing:-0.04em;}.cls-18{font-size:13.75px;}.cls-18,.cls-33{font-family:NewsCycle, News Cycle;}.cls-20,.cls-22,.cls-23,.cls-31,.cls-32{fill:none;stroke:#231f20;stroke-miterlimit:10;}.cls-22{stroke-dasharray:5.07 2.03;}.cls-23{stroke-dasharray:4.77 1.91;}.cls-24{letter-spacing:-0.02em;}.cls-25{letter-spacing:0em;}.cls-26{letter-spacing:-0.01em;}.cls-27{letter-spacing:-0.01em;}.cls-28{letter-spacing:-0.01em;}.cls-29{letter-spacing:-0.01em;}.cls-30{font-size:50.54px;}.cls-31{stroke-dasharray:5.09 2.03;}.cls-32{stroke-dasharray:5.14 2.05;}.cls-33{font-size:16.44px;}</style></defs><title>pres_slides_svg</title><g id="Peds-2" data-name="Peds"><g id="ped_all-2" data-name="ped_all"><polygon class="cls-1" points="225.33 207.76 227.04 201.45 228.74 195.13 230.45 188.82 232.16 182.51 233.86 176.2 235.57 169.88 237.27 163.57 238.98 157.26 240.69 150.95 242.39 144.63 244.1 138.32 245.8 132.01 247.51 125.7 249.22 119.38 250.92 113.07 252.62 106.8 254.32 100.49 256.03 94.18 257.73 87.87 259.44 81.55 261.15 75.24 262.85 68.93 264.56 62.62 266.27 56.3 267.97 49.99 269.68 43.67 271.39 37.37 273.09 31.05 274.8 24.74 281.09 26.54 287.26 28.59 293.43 30.83 299.44 33.27 305.44 35.95 311.31 38.79 317.06 41.83 322.76 45.1 328.26 48.56 333.72 52.2 339.02 56.03 344.13 60.05 349.16 64.2 354.03 68.59 358.77 73.09 363.32 77.78 367.72 82.62 371.95 87.6 376 92.69 379.86 97.96 383.59 103.38 387.05 108.88 390.38 114.49 393.49 120.23 396.43 126.07 399.14 132.04 401.65 138.05 403.93 144.19 406 150.37 407.86 156.64 409.52 162.95 410.96 169.35 412.17 175.72 413.16 182.19 413.95 188.7 414.5 195.19 414.81 201.71 414.9 208.27 414.77 214.81 414.41 221.3 413.85 227.82 413.06 234.29 411.98 240.77 410.78 247.17 409.3 253.54 402.95 251.97 396.61 250.35 390.26 248.78 383.91 247.21 377.57 245.64 371.21 244.06 364.87 242.49 358.53 240.88 352.18 239.31 345.88 237.75 339.53 236.17 333.18 234.6 326.83 233.03 320.49 231.41 314.14 229.84 307.8 228.27 301.45 226.7 295.1 225.13 288.75 223.55 282.41 221.94 276.06 220.37 269.72 218.79 263.37 217.22 257.02 215.65 250.71 214.09 244.38 212.47 238.03 210.9 231.68 209.33 225.33 207.76 225.33 207.76"/><polygon class="cls-2" points="225.33 207.76 231.68 209.33 238.03 210.9 244.38 212.47 250.71 214.09 257.02 215.65 263.37 217.22 269.72 218.79 276.06 220.37 282.41 221.94 288.75 223.55 295.1 225.13 301.45 226.7 307.8 228.27 314.14 229.84 320.49 231.41 326.83 233.03 333.18 234.6 339.53 236.17 345.88 237.75 352.18 239.31 358.53 240.88 364.87 242.49 371.21 244.06 377.57 245.64 383.91 247.21 390.26 248.78 396.61 250.35 402.95 251.97 409.3 253.54 407.63 259.72 405.78 265.85 403.71 271.92 401.45 277.94 398.94 283.84 396.26 289.7 393.41 295.42 390.35 301.07 387.08 306.58 383.65 311.99 380.05 317.31 376.25 322.49 372.3 327.52 368.13 332.44 363.82 337.19 359.36 341.8 354.78 346.27 350.02 350.56 345.11 354.71 340.05 358.67 334.89 362.47 329.59 366.08 324.19 369.52 318.65 372.78 313.02 375.82 307.26 378.68 301.44 381.39 295.53 383.87 289.53 386.14 283.45 388.2 277.33 390.05 271.11 391.73 264.86 393.17 258.57 394.4 252.24 395.43 245.88 396.2 239.47 396.82 233.08 397.16 226.65 397.35 220.24 397.25 213.82 397 207.43 396.47 201.04 395.76 194.7 394.86 188.39 393.68 182.12 392.33 175.91 390.79 169.72 388.98 163.63 386.99 157.58 384.83 151.65 382.41 145.76 379.86 139.99 377.05 134.31 374.07 128.73 370.88 123.3 367.54 117.96 363.99 112.72 360.26 107.62 356.38 102.67 352.31 97.81 348.06 93.14 343.68 88.66 339.11 84.26 334.41 80.08 329.58 76 324.59 72.15 319.46 68.48 314.24 64.93 308.86 61.62 303.36 58.46 297.79 55.53 292.1 52.78 286.27 50.24 280.39 47.87 274.42 45.7 268.4 43.74 262.3 42.01 256.12 40.47 249.89 39.15 243.57 38.06 237.28 37.18 230.94 36.51 224.56 36.03 218.14 35.8 211.73 35.75 205.33 35.95 198.9 36.37 192.53 37 186.12 37.81 179.75 38.9 173.41 40.16 167.13 41.61 160.89 43.32 154.72 45.22 148.6 47.29 142.53 49.63 136.54 52.14 130.63 54.86 124.84 57.76 119.09 60.86 113.49 64.12 107.98 67.6 102.58 71.25 97.27 75.08 92.16 79.08 87.14 83.23 82.25 87.59 77.52 92.05 72.92 96.7 68.5 101.46 64.22 106.41 60.13 111.47 56.16 116.67 52.38 121.96 48.81 127.4 45.38 132.97 42.18 138.65 39.15 144.36 36.32 150.21 33.68 156.15 31.25 162.19 28.99 168.26 26.98 174.38 25.13 180.64 23.5 186.87 22.11 193.15 20.93 199.51 19.96 205.87 19.18 212.27 18.6 218.7 18.27 225.12 18.18 225.13 24.72 225.09 31.24 225.11 37.78 225.12 44.31 225.13 50.85 225.14 57.39 225.15 63.93 225.16 70.46 225.17 77 225.18 83.53 225.19 90.07 225.2 96.61 225.21 103.14 225.22 109.68 225.24 116.22 225.25 122.75 225.26 129.29 225.21 135.86 225.22 142.39 225.23 148.93 225.24 155.47 225.25 162 225.26 168.54 225.28 175.08 225.29 181.61 225.3 188.15 225.31 194.69 225.32 201.22 225.33 207.76 225.33 207.76"/><polygon class="cls-3" points="225.33 207.76 225.32 201.22 225.31 194.69 225.3 188.15 225.29 181.61 225.28 175.08 225.26 168.54 225.25 162 225.24 155.47 225.23 148.93 225.22 142.39 225.21 135.86 225.26 129.29 225.25 122.75 225.24 116.22 225.22 109.68 225.21 103.14 225.2 96.61 225.19 90.07 225.18 83.53 225.17 77 225.16 70.46 225.15 63.93 225.14 57.39 225.13 50.85 225.12 44.31 225.11 37.78 225.09 31.24 225.13 24.72 225.12 18.18 232.53 18.31 239.96 18.73 247.31 19.43 254.67 20.45 253.69 26.92 252.67 33.36 251.65 39.81 250.61 46.31 249.64 52.77 248.62 59.22 247.59 65.67 246.57 72.12 245.59 78.58 244.57 85.03 243.54 91.52 242.51 97.97 241.54 104.43 240.51 110.88 239.49 117.33 238.47 123.78 237.49 130.24 236.47 136.69 235.43 143.19 234.41 149.63 233.43 156.09 232.41 162.54 231.39 169 230.37 175.44 229.39 181.9 228.37 188.35 227.33 194.85 226.35 201.31 225.33 207.76 225.33 207.76"/><polygon class="cls-4" points="225.33 207.76 226.35 201.31 227.33 194.85 228.37 188.35 229.39 181.9 230.37 175.44 231.39 169 232.41 162.54 233.43 156.09 234.41 149.63 235.43 143.19 236.47 136.69 237.49 130.24 238.47 123.78 239.49 117.33 240.51 110.88 241.54 104.43 242.51 97.97 243.54 91.52 244.57 85.03 245.59 78.58 246.57 72.12 247.59 65.67 248.62 59.22 249.64 52.77 250.61 46.31 251.65 39.81 252.67 33.36 253.69 26.92 254.67 20.45 261.41 21.65 268.13 23.08 274.8 24.74 273.09 31.05 271.39 37.37 269.68 43.67 267.97 49.99 266.27 56.3 264.56 62.62 262.85 68.93 261.15 75.24 259.44 81.55 257.73 87.87 256.03 94.18 254.32 100.49 252.62 106.8 250.92 113.07 249.22 119.38 247.51 125.7 245.8 132.01 244.1 138.32 242.39 144.63 240.69 150.95 238.98 157.26 237.27 163.57 235.57 169.88 233.86 176.2 232.16 182.51 230.45 188.82 228.74 195.13 227.04 201.45 225.33 207.76 225.33 207.76"/><path class="cls-5" d="M339.74,238.68A118.51,118.51,0,1,1,256.25,93.35,118.51,118.51,0,0,1,339.74,238.68Z"/><text class="cls-6" transform="translate(200.9 230.74) scale(1.05 1)"><tspan class="cls-7">V</tspan><tspan x="14.62" y="0">ehicles</tspan><tspan x="0" y="25.2">In</tspan><tspan class="cls-8" x="20.3" y="25.2">v</tspan><tspan class="cls-9" x="31.87" y="25.2">o</tspan><tspan x="43.45" y="25.2">l</tspan><tspan class="cls-10" x="50.06" y="25.2">v</tspan><tspan x="61.65" y="25.2">ed</tspan></text><text class="cls-11" transform="translate(135.61 190.36)">3128</text><text class="cls-12" transform="translate(35.76 548.69) scale(1.05 1)"><tspan class="cls-13">P</tspan><tspan class="cls-14" x="17.33" y="0">edestrian Cras</tspan><tspan class="cls-15" x="206.21" y="0">h</tspan><tspan x="223.86" y="0">es: </tspan><tspan class="cls-16" x="0" y="33.06">V</tspan><tspan x="19.18" y="33.06">ehicle </tspan><tspan class="cls-17" x="106.02" y="33.06">T</tspan><tspan class="cls-14" x="122.33" y="33.06">ype</tspan></text><rect class="cls-1" x="438.61" y="136.8" width="50.16" height="24.52" rx="7.69"/><rect class="cls-4" x="438.61" y="58.04" width="50.16" height="24.52" rx="7.69"/><rect class="cls-3" x="438.61" y="23.64" width="50.16" height="24.52" rx="7.69"/><rect class="cls-2" x="438.61" y="251.03" width="50.16" height="24.52" rx="7.69"/><text class="cls-18" transform="translate(446.61 152.81) scale(1.05 1)">24.7%</text><text class="cls-18" transform="translate(452.13 74.05) scale(1.05 1)">1.7%</text><text class="cls-18" transform="translate(450.87 39.66) scale(1.05 1)">2.5%</text><text class="cls-18" transform="translate(449.01 267.04) scale(1.05 1)">71.1%</text></g><g id="ped_sv-2" data-name="ped_sv"><polygon class="cls-1" points="552.35 425.77 553.82 421.44 555.28 417.12 556.74 412.79 558.21 408.47 559.67 404.14 561.13 399.82 562.59 395.49 564.06 391.17 565.52 386.84 566.98 382.52 568.45 378.19 569.91 373.87 571.37 369.54 572.83 365.22 574.3 360.89 575.75 356.6 577.21 352.27 578.67 347.95 580.14 343.62 581.6 339.3 583.06 334.97 584.53 330.65 585.99 326.32 587.45 322 588.91 317.67 590.38 313.35 591.84 309.02 593.3 304.7 594.76 300.37 599.07 301.9 603.31 303.6 607.51 305.44 611.63 307.41 615.67 309.52 619.65 311.79 623.56 314.18 627.36 316.69 631.08 319.35 634.72 322.12 638.24 325.06 641.67 328.06 644.98 331.2 648.18 334.47 651.28 337.85 654.27 341.32 657.14 344.88 659.87 348.54 662.46 352.29 664.92 356.13 667.28 360.07 669.48 364.1 671.51 368.17 673.46 372.31 675.21 376.53 676.85 380.81 678.32 385.14 679.65 389.48 680.82 393.91 681.85 398.36 682.72 402.86 683.44 407.38 684 411.91 684.41 416.46 684.63 421.05 684.73 425.62 684.66 430.18 684.41 434.75 684.03 439.3 683.49 443.83 682.78 448.35 678.29 447.58 673.77 446.8 669.29 446 664.79 445.24 660.27 444.46 655.78 443.69 651.3 442.89 646.81 442.13 642.28 441.35 637.8 440.55 633.31 439.78 628.82 439.02 624.29 438.24 619.81 437.44 615.32 436.68 610.8 435.9 606.32 435.1 601.82 434.33 597.33 433.56 592.82 432.75 588.33 431.99 583.84 431.22 579.31 430.44 574.84 429.64 570.34 428.88 565.85 428.11 561.34 427.3 556.85 426.54 552.35 425.77 552.35 425.77"/><polygon class="cls-2" points="552.35 425.77 556.85 426.54 561.34 427.3 565.85 428.11 570.34 428.88 574.84 429.64 579.31 430.44 583.84 431.22 588.33 431.99 592.82 432.75 597.33 433.56 601.82 434.33 606.32 435.1 610.8 435.9 615.32 436.68 619.81 437.44 624.29 438.24 628.82 439.02 633.31 439.78 637.8 440.55 642.28 441.35 646.81 442.13 651.3 442.89 655.78 443.69 660.27 444.46 664.79 445.24 669.29 446 673.77 446.8 678.29 447.58 682.78 448.35 681.94 452.75 680.94 457.13 679.82 461.46 678.53 465.78 677.1 470.01 675.53 474.23 673.83 478.38 671.97 482.46 669.99 486.48 667.84 490.43 665.59 494.32 663.19 498.09 660.7 501.83 658.04 505.44 655.3 508.99 652.4 512.42 649.42 515.75 646.3 519.01 643.1 522.13 639.79 525.14 636.37 528.06 632.83 530.86 629.23 533.5 625.53 536.04 621.78 538.47 617.89 540.74 613.98 542.91 609.95 544.93 605.89 546.83 601.75 548.55 597.58 550.18 593.32 551.64 589.06 552.94 584.69 554.13 580.35 555.15 575.95 556.02 571.5 556.74 567.06 557.33 562.59 557.73 558.12 557.99 553.64 558.12 549.16 558.11 544.67 557.92 540.18 557.57 535.73 557.09 531.3 556.44 526.88 555.66 522.48 554.72 518.13 553.63 513.83 552.41 509.55 551.03 505.34 549.51 501.18 547.86 497.08 546.03 493.02 544.11 489.04 542.01 485.14 539.8 481.32 537.45 477.57 534.99 473.91 532.38 470.35 529.67 466.87 526.82 463.49 523.86 460.22 520.81 457.06 517.62 453.99 514.36 451.06 510.98 448.21 507.48 445.53 503.91 442.93 500.26 440.48 496.49 438.12 492.65 435.91 488.77 433.87 484.79 431.94 480.72 430.14 476.63 428.48 472.44 426.97 468.24 425.61 463.95 424.37 459.63 423.31 455.27 422.37 450.89 421.62 446.46 420.99 442.05 420.52 437.58 420.19 433.09 420.02 428.63 420 424.14 420.12 419.64 420.41 415.15 420.86 410.69 421.43 406.27 422.14 401.83 423.06 397.42 424.09 393.05 425.27 388.74 426.58 384.46 428.06 380.21 429.67 376.04 431.44 371.92 433.33 367.84 435.37 363.84 437.53 359.89 439.82 356.05 442.25 352.3 444.81 348.58 447.48 345.01 450.28 341.47 453.18 338.08 456.21 334.76 459.35 331.55 462.62 328.45 465.95 325.48 469.42 322.62 472.95 319.84 476.57 317.21 480.29 314.7 484.1 312.34 487.97 310.09 491.94 307.98 495.96 305.99 500.06 304.17 504.19 302.45 508.41 300.9 512.68 299.48 516.98 298.2 521.32 297.1 525.68 296.11 530.1 295.29 534.54 294.6 539 294.05 543.46 293.69 547.95 293.46 552.41 293.4 552.41 297.94 552.43 302.53 552.44 307.08 552.43 311.65 552.41 316.23 552.41 320.78 552.4 325.35 552.41 329.9 552.4 334.48 552.4 339.03 552.39 343.6 552.39 348.15 552.38 352.73 552.4 357.31 552.4 361.86 552.39 366.44 552.39 370.98 552.38 375.56 552.38 380.11 552.37 384.69 552.37 389.23 552.36 393.81 552.35 398.38 552.35 402.94 552.34 407.51 552.37 412.07 552.37 416.65 552.36 421.19 552.35 425.77 552.35 425.77"/><polygon class="cls-3" points="552.35 425.77 552.36 421.19 552.37 416.65 552.37 412.07 552.34 407.51 552.35 402.94 552.35 398.38 552.36 393.81 552.37 389.23 552.37 384.69 552.38 380.11 552.38 375.56 552.39 370.98 552.39 366.44 552.4 361.86 552.4 357.31 552.38 352.73 552.39 348.15 552.39 343.6 552.4 339.03 552.4 334.48 552.41 329.9 552.4 325.35 552.41 320.78 552.41 316.23 552.43 311.65 552.44 307.08 552.43 302.53 552.41 297.94 552.41 293.4 557.81 293.51 563.21 293.83 568.56 294.38 573.87 295.15 573.13 299.65 572.4 304.16 571.66 308.66 570.92 313.16 570.18 317.69 569.41 322.19 568.67 326.69 567.93 331.19 567.2 335.69 566.46 340.19 565.72 344.69 564.96 349.19 564.22 353.69 563.48 358.19 562.74 362.73 562 367.23 561.26 371.73 560.53 376.23 559.76 380.73 559.03 385.23 558.29 389.73 557.55 394.23 556.81 398.73 556.08 403.24 555.3 407.76 554.56 412.26 553.83 416.76 553.09 421.27 552.35 425.77 552.35 425.77"/><polygon class="cls-4" points="552.35 425.77 553.09 421.27 553.83 416.76 554.56 412.26 555.3 407.76 556.08 403.24 556.81 398.73 557.55 394.23 558.29 389.73 559.03 385.23 559.76 380.73 560.53 376.23 561.26 371.73 562 367.23 562.74 362.73 563.48 358.19 564.22 353.69 564.96 349.19 565.72 344.69 566.46 340.19 567.2 335.69 567.93 331.19 568.67 326.69 569.41 322.19 570.18 317.69 570.92 313.16 571.66 308.66 572.4 304.16 573.13 299.65 573.87 295.15 579.18 296.13 584.41 297.35 589.61 298.73 594.76 300.37 593.3 304.7 591.84 309.02 590.38 313.35 588.91 317.67 587.45 322 585.99 326.32 584.53 330.65 583.06 334.97 581.6 339.3 580.14 343.62 578.67 347.95 577.21 352.27 575.75 356.6 574.3 360.89 572.83 365.22 571.37 369.54 569.91 373.87 568.45 378.19 566.98 382.52 565.52 386.84 564.06 391.17 562.59 395.49 561.13 399.82 559.67 404.14 558.21 408.47 556.74 412.79 555.28 417.12 553.82 421.44 552.35 425.77 552.35 425.77"/><path class="cls-5" d="M633.19,443.06a82.66,82.66,0,1,1-63.54-98.13A82.67,82.67,0,0,1,633.19,443.06Z"/><rect class="cls-1" x="705.2" y="378" width="50.78" height="24.52" rx="7.69"/><text class="cls-18" transform="translate(713.61 394.02) scale(1.05 1)">22.5%</text><rect class="cls-4" x="705.2" y="321.36" width="50.78" height="24.52" rx="7.69"/><text class="cls-18" transform="translate(717.36 337.37) scale(1.05 1)">2.6%</text><rect class="cls-3" x="705.2" y="288.11" width="50.78" height="24.52" rx="7.69"/><text class="cls-18" transform="translate(717.36 304.13) scale(1.05 1)">2.6%</text><rect class="cls-2" x="705.2" y="479.56" width="50.78" height="24.52" rx="7.69"/><text class="cls-18" transform="translate(713.87 495.57) scale(1.05 1)">72.3%</text><g class="cls-19"><line class="cls-20" x1="694.9" y1="491.81" x2="667.06" y2="491.82"/><path class="cls-21" d="M694.8,489.93a1.88,1.88,0,1,1-1.88,1.88A1.88,1.88,0,0,1,694.8,489.93Z"/></g><g class="cls-19"><line class="cls-20" x1="694.9" y1="390.26" x2="680.26" y2="390.26"/><path class="cls-21" d="M694.8,388.38a1.88,1.88,0,1,1-1.88,1.88A1.88,1.88,0,0,1,694.8,388.38Z"/></g><g class="cls-19"><line class="cls-20" x1="647.37" y1="333.64" x2="644.87" y2="333.64"/><line class="cls-22" x1="642.84" y1="333.64" x2="587.02" y2="333.66"/><line class="cls-20" x1="586" y1="333.66" x2="583.5" y2="333.66"/></g><g class="cls-19"><line class="cls-20" x1="694.9" y1="333.62" x2="647.37" y2="333.64"/><path class="cls-21" d="M694.81,331.74a1.88,1.88,0,1,1-1.88,1.88A1.88,1.88,0,0,1,694.81,331.74Z"/></g><g class="cls-19"><line class="cls-20" x1="599.17" y1="301.86" x2="596.67" y2="301.86"/><line class="cls-23" x1="594.76" y1="301.86" x2="575.7" y2="301.86"/><line class="cls-20" x1="574.75" y1="301.86" x2="572.25" y2="301.86"/></g><g class="cls-19"><line class="cls-20" x1="694.9" y1="301.83" x2="599.17" y2="301.86"/><path class="cls-21" d="M694.81,300a1.88,1.88,0,1,1-1.88,1.88A1.88,1.88,0,0,1,694.81,300Z"/></g><text class="cls-6" transform="translate(523.65 442.51) scale(1.05 1)"><tspan class="cls-24">V<tspan class="cls-25" x="14.62" y="0">ehicles</tspan></tspan><tspan x="0" y="25.2">In</tspan><tspan class="cls-26" x="20.3" y="25.2">v</tspan><tspan class="cls-27" x="31.87" y="25.2">o</tspan><tspan x="43.45" y="25.2">l</tspan><tspan class="cls-28" x="50.06" y="25.2">v</tspan><tspan x="61.65" y="25.2">ed</tspan></text><text class="cls-6" transform="translate(585.15 267.04) scale(1.05 1)">Of which s<tspan class="cls-28" x="106.12" y="0">ev</tspan><tspan x="128.86" y="0">e</tspan><tspan class="cls-29" x="140.15" y="0">r</tspan><tspan x="148.64" y="0">e,</tspan></text><text class="cls-30" transform="translate(480.96 419.27)">386</text><g class="cls-19"><line class="cls-20" x1="308.21" y1="37.29" x2="305.71" y2="37.29"/><line class="cls-31" x1="303.67" y1="37.29" x2="254.84" y2="37.3"/><line class="cls-20" x1="253.82" y1="37.3" x2="251.32" y2="37.31"/></g><g class="cls-19"><line class="cls-20" x1="430.9" y1="37.25" x2="308.21" y2="37.29"/><path class="cls-21" d="M430.81,35.37a1.88,1.88,0,1,1-1.88,1.88A1.88,1.88,0,0,1,430.81,35.37Z"/></g><g class="cls-19"><line class="cls-20" x1="355.83" y1="70.29" x2="353.33" y2="70.3"/><line class="cls-32" x1="351.27" y1="70.3" x2="266.03" y2="70.32"/><line class="cls-20" x1="265" y1="70.32" x2="262.5" y2="70.32"/></g><g class="cls-19"><line class="cls-20" x1="430.9" y1="70.27" x2="355.83" y2="70.29"/><path class="cls-21" d="M430.81,68.39a1.88,1.88,0,1,1-1.88,1.88A1.88,1.88,0,0,1,430.81,68.39Z"/></g><g class="cls-19"><line class="cls-20" x1="430.9" y1="149.03" x2="406" y2="149.04"/><path class="cls-21" d="M430.81,147.15a1.88,1.88,0,1,1-1.88,1.88A1.88,1.88,0,0,1,430.81,147.15Z"/></g><g class="cls-19"><line class="cls-20" x1="430.9" y1="263.28" x2="406" y2="263.29"/><path class="cls-21" d="M430.81,261.4a1.88,1.88,0,1,1-1.88,1.88A1.89,1.89,0,0,1,430.81,261.4Z"/></g></g><path class="cls-2" d="M756.1,172c0,4.88-3.24,8.84-7.23,8.84H615.34c-4,0-7.23-4-7.23-8.84V161.45c0-4.88,3.24-8.84,7.23-8.84H748.87c4,0,7.23,4,7.23,8.84Z"/><path class="cls-3" d="M756.1,54.37c0,4.89-3.24,8.85-7.23,8.85H615.34c-4,0-7.23-4-7.23-8.85V43.87c0-4.88,3.24-8.84,7.23-8.84H748.87c4,0,7.23,4,7.23,8.84Z"/><path class="cls-4" d="M756.1,93.6c0,4.88-3.24,8.84-7.23,8.84H615.34c-4,0-7.23-4-7.23-8.84V83.1c0-4.89,3.24-8.84,7.23-8.84H748.87c4,0,7.23,3.95,7.23,8.84Z"/><path class="cls-1" d="M756.1,133c0,4.88-3.24,8.84-7.23,8.84H615.34c-4,0-7.23-4-7.23-8.84v-10.5c0-4.89,3.24-8.85,7.23-8.85H748.87c4,0,7.23,4,7.23,8.85Z"/><text class="cls-33" transform="translate(612.46 133.5) scale(1.05 1)">SUVs/Pickup Trucks</text><text class="cls-33" transform="translate(633.65 53.44) scale(1.05 1)">Other Vehicles</text><text class="cls-33" transform="translate(636.5 94.39) scale(1.05 1)">Heavy Trucks</text><text class="cls-33" transform="translate(629.77 172.03) scale(1.05 1)">Passenger Cars</text></g></svg>