<svg xmlns="http://www.w3.org/2000/svg" viewBox="0 0 792 612"><defs><style>.cls-1{fill:#f9a01b;}.cls-1,.cls-2{stroke:#f1f1f2;stroke-width:2px;}.cls-1,.cls-2,.cls-7{stroke-linecap:round;stroke-linejoin:round;}.cls-2{fill:#fd0;}.cls-3{font-size:17px;font-family:NewsCycle-Bold, News Cycle;font-weight:700;}.cls-3,.cls-4,.cls-5,.cls-6{fill:#231f20;}.cls-4{font-size:10px;}.cls-4,.cls-6{font-family:NewsCycle, News Cycle;}.cls-5{font-size:27.55px;}.cls-11,.cls-5,.cls-8{font-family:RobotoSlab-Regular, Roboto Slab;}.cls-6{font-size:16.44px;}.cls-7{fill:#cfcece;stroke:#cfcece;}.cls-8{font-size:16px;}.cls-9{letter-spacing:-0.01em;}.cls-10{letter-spacing:0em;}.cls-11{font-size:11px;}.cls-12{letter-spacing:0em;}.cls-13{letter-spacing:-0.01em;}.cls-14{letter-spacing:0em;}.cls-15{letter-spacing:-0.01em;}.cls-16{letter-spacing:0em;}</style></defs><title>pres_slides_svg</title><g id="Hit_run"><g id="ped_all"><rect class="cls-1" x="90" y="78.06" width="90" height="389.92"/><rect class="cls-2" x="90" y="35.91" width="90" height="42.08"/><text class="cls-3" transform="translate(114.48 277.51) scale(1.05 1)">2390</text><text class="cls-4" transform="translate(119.7 290.64) scale(1.05 1)">(90.3%)</text><text class="cls-3" transform="translate(119.86 56.65) scale(1.05 1)">258</text><text class="cls-4" transform="translate(123.09 69.78) scale(1.05 1)">(9.7%)</text></g><g id="ped_sv"><rect class="cls-1" x="216.04" y="70.42" width="90" height="397.57"/><rect class="cls-2" x="216.04" y="35.91" width="90" height="34.43"/><text class="cls-3" transform="translate(247.21 277.51) scale(1.05 1)">277</text><text class="cls-4" transform="translate(249.48 290.64) scale(1.05 1)">(92%)</text><text class="cls-3" transform="translate(250.2 53.06) scale(1.05 1)">24</text><text class="cls-4" transform="translate(252.4 66.19) scale(1.05 1)">(8%)</text></g><g id="bic_all"><rect class="cls-1" x="486" y="66.79" width="90" height="401.2"/><rect class="cls-2" x="486" y="35.91" width="90" height="30.8"/><text class="cls-3" transform="translate(513.35 277.51) scale(1.05 1)">1315</text><text class="cls-4" transform="translate(515.6 290.64) scale(1.05 1)">(92.9%)</text><text class="cls-3" transform="translate(518.14 51.93) scale(1.05 1)">101</text><text class="cls-4" transform="translate(519.8 65.06) scale(1.05 1)">(7.1%)</text></g><g id="bic_sv"><rect class="cls-1" x="612" y="58.49" width="90" height="409.49"/><rect class="cls-2" x="612" y="35.91" width="90" height="22.51"/><text class="cls-3" transform="translate(647.97 277.51) scale(1.05 1)">91</text><text class="cls-4" transform="translate(645.82 290.64) scale(1.05 1)">(95%)</text><text class="cls-3" transform="translate(652.43 41.1) scale(1.05 1)">5</text><text class="cls-4" transform="translate(648.8 54.23) scale(1.05 1)">(5%)</text></g><text class="cls-5" transform="translate(35.81 585.19) scale(1.05 1)">Hit &amp; Run Cases</text><path class="cls-1" d="M444,272.64c0,4.88-3.24,8.84-7.23,8.84H355.23c-4,0-7.23-4-7.23-8.84v-10.5c0-4.89,3.24-8.85,7.23-8.85h81.54c4,0,7.23,4,7.23,8.85Z"/><path class="cls-2" d="M444,60.75c0,4.88-3.25,8.84-7.26,8.84H355.26c-4,0-7.26-4-7.26-8.84V50.25c0-4.89,3.25-8.85,7.26-8.85h81.48c4,0,7.26,4,7.26,8.85Z"/><text class="cls-6" transform="translate(362.85 61.28) scale(1.05 1)">Hit &amp; Run</text><text class="cls-6" transform="translate(351.33 273.43) scale(1.05 1)">No Hit &amp; Run</text><rect class="cls-7" x="90" y="513.02" width="216.04" height="24.9"/><text class="cls-8" transform="translate(120.95 531.44) scale(1.05 1)"><tspan class="cls-9">P</tspan><tspan x="10.06" y="0">edestrian Cras</tspan><tspan class="cls-10" x="119.75" y="0">h</tspan><tspan x="130" y="0">es</tspan></text><rect class="cls-7" x="90" y="479.18" width="90" height="24.9"/><text class="cls-11" transform="translate(103.71 495.43) scale(1.05 1)">All Cras<tspan class="cls-12" x="41.03" y="0">h</tspan><tspan x="48.08" y="0">es</tspan></text><rect class="cls-7" x="216.04" y="479.18" width="90" height="24.9"/><text class="cls-11" transform="translate(219.31 495.43) scale(1.05 1)">S<tspan class="cls-13" x="6.7" y="0">ev</tspan><tspan class="cls-14" x="18.61" y="0">e</tspan><tspan class="cls-15" x="24.52" y="0">r</tspan><tspan class="cls-14" x="28.97" y="0">e Cras</tspan><tspan class="cls-12" x="60.93" y="0">h</tspan><tspan class="cls-14" x="67.98" y="0">es</tspan></text><rect class="cls-7" x="486" y="479.18" width="90" height="24.9"/><text class="cls-11" transform="translate(499.71 495.43) scale(1.05 1)">All Cras<tspan class="cls-12" x="41.03" y="0">h</tspan><tspan x="48.08" y="0">es</tspan></text><rect class="cls-7" x="612.04" y="479.18" width="90" height="24.9"/><text class="cls-11" transform="translate(615.31 495.43) scale(1.05 1)">S<tspan class="cls-13" x="6.7" y="0">ev</tspan><tspan class="cls-14" x="18.61" y="0">e</tspan><tspan class="cls-15" x="24.52" y="0">r</tspan><tspan class="cls-14" x="28.97" y="0">e Cras</tspan><tspan class="cls-12" x="60.93" y="0">h</tspan><tspan class="cls-14" x="67.98" y="0">es</tspan></text><rect class="cls-7" x="486" y="513.02" width="216.04" height="24.9"/><text class="cls-8" transform="translate(530.75 531.44) scale(1.05 1)">Bic<tspan class="cls-9" x="24.39" y="0">y</tspan><tspan x="33.37" y="0">cle Cras</tspan><tspan class="cls-16" x="93.52" y="0">h</tspan><tspan x="103.77" y="0">es</tspan></text></g></svg>