<svg xmlns="http://www.w3.org/2000/svg" viewBox="0 0 792 612">
  <title>pres_slides_svg</title>
  <g id="timeofday">
    <g id="Bikes">
      <text transform="translate(36 548.69) scale(1.05 1)" font-size="27.55" fill="#231f20" font-family="RobotoSlab-Regular, Roboto Slab">All Bic<tspan x="86.38" y="0" letter-spacing="-0.01em">y</tspan><tspan x="101.84" y="0">cle Crash Cases:</tspan><tspan x="0" y="33.06">Age G</tspan><tspan x="76.09" y="33.06" letter-spacing="-0.01em">r</tspan><tspan x="87.22" y="33.06">oup &amp; Ti</tspan><tspan x="193.46" y="33.06" letter-spacing="0em">m</tspan><tspan x="219.35" y="33.06" letter-spacing="0em">e of D</tspan><tspan x="292.2" y="33.06" letter-spacing="-0.01em">a</tspan><tspan x="307.17" y="33.06" letter-spacing="0em">y</tspan></text>
      <g>
        <line x1="90.79" y1="481.61" x2="90.79" y2="151.94" fill="none" stroke="#ebebeb" stroke-linejoin="round" stroke-width="0.53"/>
        <g>
          <line x1="79.83" y1="429.16" x2="704.17" y2="429.16" fill="none" stroke="#ebebeb" stroke-linejoin="round" stroke-width="0.53"/>
          <line x1="79.83" y1="354.24" x2="704.17" y2="354.24" fill="none" stroke="#ebebeb" stroke-linejoin="round" stroke-width="0.53"/>
          <line x1="79.83" y1="279.31" x2="704.17" y2="279.31" fill="none" stroke="#ebebeb" stroke-linejoin="round" stroke-width="0.53"/>
          <line x1="79.83" y1="204.39" x2="704.17" y2="204.39" fill="none" stroke="#ebebeb" stroke-linejoin="round" stroke-width="0.53"/>
          <line x1="137.46" y1="481.61" x2="137.46" y2="151.94" fill="none" stroke="#ebebeb" stroke-linejoin="round" stroke-width="0.53"/>
          <line x1="184.12" y1="481.61" x2="184.12" y2="151.94" fill="none" stroke="#ebebeb" stroke-linejoin="round" stroke-width="0.53"/>
          <line x1="230.79" y1="481.61" x2="230.79" y2="151.94" fill="none" stroke="#ebebeb" stroke-linejoin="round" stroke-width="0.53"/>
          <line x1="277.46" y1="481.61" x2="277.46" y2="151.94" fill="none" stroke="#ebebeb" stroke-linejoin="round" stroke-width="0.53"/>
          <line x1="324.13" y1="481.61" x2="324.13" y2="151.94" fill="none" stroke="#ebebeb" stroke-linejoin="round" stroke-width="0.53"/>
          <line x1="370.8" y1="481.61" x2="370.8" y2="151.94" fill="none" stroke="#ebebeb" stroke-linejoin="round" stroke-width="0.53"/>
          <line x1="417.47" y1="481.61" x2="417.47" y2="151.94" fill="none" stroke="#ebebeb" stroke-linejoin="round" stroke-width="0.53"/>
          <line x1="464.14" y1="481.61" x2="464.14" y2="151.94" fill="none" stroke="#ebebeb" stroke-linejoin="round" stroke-width="0.53"/>
          <line x1="510.81" y1="481.61" x2="510.81" y2="151.94" fill="none" stroke="#ebebeb" stroke-linejoin="round" stroke-width="0.53"/>
          <line x1="557.48" y1="481.61" x2="557.48" y2="151.94" fill="none" stroke="#ebebeb" stroke-linejoin="round" stroke-width="0.53"/>
          <line x1="604.15" y1="481.61" x2="604.15" y2="151.94" fill="none" stroke="#ebebeb" stroke-linejoin="round" stroke-width="0.53"/>
          <line x1="650.82" y1="481.61" x2="650.82" y2="151.94" fill="none" stroke="#ebebeb" stroke-linejoin="round" stroke-width="0.53"/>
          <line x1="697.49" y1="481.61" x2="697.49" y2="151.94" fill="none" stroke="#ebebeb" stroke-linejoin="round" stroke-width="0.53"/>
          <line x1="79.83" y1="466.63" x2="704.17" y2="466.63" fill="none" stroke="#ebebeb" stroke-linejoin="round" stroke-width="1.07"/>
          <line x1="79.83" y1="391.7" x2="704.17" y2="391.7" fill="none" stroke="#ebebeb" stroke-linejoin="round" stroke-width="1.07"/>
          <line x1="79.83" y1="316.78" x2="704.17" y2="316.78" fill="none" stroke="#ebebeb" stroke-linejoin="round" stroke-width="1.07"/>
          <line x1="79.83" y1="241.85" x2="704.17" y2="241.85" fill="none" stroke="#ebebeb" stroke-linejoin="round" stroke-width="1.07"/>
          <line x1="79.83" y1="166.93" x2="704.17" y2="166.93" fill="none" stroke="#ebebeb" stroke-linejoin="round" stroke-width="1.07"/>
          <line x1="114.12" y1="481.61" x2="114.12" y2="151.94" fill="none" stroke="#ebebeb" stroke-linejoin="round" stroke-width="1.07"/>
          <line x1="160.79" y1="481.61" x2="160.79" y2="151.94" fill="none" stroke="#ebebeb" stroke-linejoin="round" stroke-width="1.07"/>
          <line x1="207.46" y1="481.61" x2="207.46" y2="151.94" fill="none" stroke="#ebebeb" stroke-linejoin="round" stroke-width="1.07"/>
          <line x1="254.13" y1="481.61" x2="254.13" y2="151.94" fill="none" stroke="#ebebeb" stroke-linejoin="round" stroke-width="1.07"/>
          <line x1="300.8" y1="481.61" x2="300.8" y2="151.94" fill="none" stroke="#ebebeb" stroke-linejoin="round" stroke-width="1.07"/>
          <line x1="347.47" y1="481.61" x2="347.47" y2="151.94" fill="none" stroke="#ebebeb" stroke-linejoin="round" stroke-width="1.07"/>
          <line x1="394.14" y1="481.61" x2="394.14" y2="151.94" fill="none" stroke="#ebebeb" stroke-linejoin="round" stroke-width="1.07"/>
          <line x1="440.81" y1="481.61" x2="440.81" y2="151.94" fill="none" stroke="#ebebeb" stroke-linejoin="round" stroke-width="1.07"/>
          <line x1="487.48" y1="481.61" x2="487.48" y2="151.94" fill="none" stroke="#ebebeb" stroke-linejoin="round" stroke-width="1.07"/>
          <line x1="534.15" y1="481.61" x2="534.15" y2="151.94" fill="none" stroke="#ebebeb" stroke-linejoin="round" stroke-width="1.07"/>
          <line x1="580.82" y1="481.61" x2="580.82" y2="151.94" fill="none" stroke="#ebebeb" stroke-linejoin="round" stroke-width="1.07"/>
          <line x1="627.48" y1="481.61" x2="627.48" y2="151.94" fill="none" stroke="#ebebeb" stroke-linejoin="round" stroke-width="1.07"/>
          <line x1="674.16" y1="481.61" x2="674.16" y2="151.94" fill="none" stroke="#ebebeb" stroke-linejoin="round" stroke-width="1.07"/>
        </g>
        <text transform="translate(75.09 467.36)" font-size="10.47" fill="#231f20" font-family="NewsCycle, News Cycle" style="isolation: isolate">0%</text>
        <text transform="translate(98.98 490.97) rotate(-30)" font-size="10.47" fill="#231f20" font-family="NewsCycle, News Cycle" style="isolation: isolate">00:01</text>
        <text transform="translate(144.7 491.35) rotate(-30)" font-size="10.47" fill="#231f20" font-family="NewsCycle, News Cycle" style="isolation: isolate">02:00</text>
        <text transform="translate(190.75 491.47) rotate(-30)" font-size="10.47" fill="#231f20" font-family="NewsCycle, News Cycle" style="isolation: isolate">04:00</text>
        <text transform="translate(236.74 491.33) rotate(-30)" font-size="10.47" fill="#231f20" font-family="NewsCycle, News Cycle" style="isolation: isolate">06:00</text>
        <text transform="translate(283.77 491.38) rotate(-30)" font-size="10.47" fill="#231f20" font-family="NewsCycle, News Cycle" style="isolation: isolate">08:00</text>
        <text transform="translate(330.48 490.97) rotate(-30)" font-size="10.47" fill="#231f20" font-family="NewsCycle, News Cycle" style="isolation: isolate">10:00</text>
        <text transform="translate(377.38 491.03) rotate(-30)" font-size="10.47" fill="#231f20" font-family="NewsCycle, News Cycle" style="isolation: isolate">12:00</text>
        <text transform="translate(423.67 491.15) rotate(-30)" font-size="10.47" fill="#231f20" font-family="NewsCycle, News Cycle" style="isolation: isolate">14:00</text>
        <text transform="translate(470.41 491.01) rotate(-30)" font-size="10.47" fill="#231f20" font-family="NewsCycle, News Cycle" style="isolation: isolate">16:00</text>
        <text transform="translate(516.99 491.06) rotate(-30)" font-size="10.47" fill="#231f20" font-family="NewsCycle, News Cycle" style="isolation: isolate">18:00</text>
        <text transform="translate(562.74 491.35) rotate(-30)" font-size="10.47" fill="#231f20" font-family="NewsCycle, News Cycle" style="isolation: isolate">20:00</text>
        <text transform="translate(608.89 491.41) rotate(-30)" font-size="10.47" fill="#231f20" font-family="NewsCycle, News Cycle" style="isolation: isolate">22:00</text>
        <text transform="translate(655.54 491.32) rotate(-30)" font-size="10.47" fill="#231f20" font-family="NewsCycle, News Cycle" style="isolation: isolate">23:59</text>
        <text transform="translate(68.55 392.63)" font-size="10.47" fill="#231f20" font-family="NewsCycle, News Cycle" style="isolation: isolate">25%</text>
        <text transform="translate(68.67 317.9)" font-size="10.47" fill="#231f20" font-family="NewsCycle, News Cycle" style="isolation: isolate">50%</text>
        <text transform="translate(69.06 243.17)" font-size="10.47" fill="#231f20" font-family="NewsCycle, News Cycle" style="isolation: isolate">75%</text>
        <text transform="translate(62.44 168.44)" font-size="10.47" fill="#231f20" font-family="NewsCycle, News Cycle" style="isolation: isolate">100%</text>
        <text transform="translate(83.49 511.69)" font-size="13.95" font-family="RobotoSlab-Regular, Roboto Slab" style="isolation: isolate">Ti<tspan x="13.33" y="0" letter-spacing="0em">m</tspan><tspan x="26.45" y="0" letter-spacing="0em">e of t</tspan><tspan x="58.79" y="0" letter-spacing="0em">h</tspan><tspan x="67.73" y="0">e D</tspan><tspan x="88.36" y="0" letter-spacing="-0.01em">a</tspan><tspan x="95.95" y="0">y: 30 minute inte</tspan><tspan x="206.63" y="0" letter-spacing="0.01em">r</tspan><tspan x="212.53" y="0" letter-spacing="-0.01em">v</tspan><tspan x="220.21" y="0">als</tspan></text>
        <text transform="translate(48.39 475.52) rotate(-90)" font-size="13.95" font-family="RobotoSlab-Regular, Roboto Slab" style="isolation: isolate"><tspan letter-spacing="-0.01em">P</tspan><tspan x="8.78" y="0">e</tspan><tspan x="16.28" y="0" letter-spacing="-0.01em">r</tspan><tspan x="21.92" y="0">centage</tspan></text>
      </g>
      <g>
        <line x1="79.5" y1="149.5" x2="704.03" y2="149.5" fill="none" stroke="#ebebeb" stroke-linejoin="round" stroke-width="1.07"/>
        <rect x="107.88" y="147.97" width="11.83" height="1.53" fill="#5a5a5a"/>
        <rect x="119.71" y="147.97" width="11.83" height="1.53" fill="#5a5a5a"/>
        <rect x="131.54" y="141.84" width="11.83" height="7.65" fill="#5a5a5a"/>
        <rect x="143.37" y="147.97" width="11.83" height="1.53" fill="#5a5a5a"/>
        <rect x="155.2" y="144.91" width="11.83" height="4.59" fill="#5a5a5a"/>
        <rect x="167.03" y="147.97" width="11.82" height="1.53" fill="#5a5a5a"/>
        <rect x="178.85" y="147.97" width="11.83" height="1.53" fill="#5a5a5a"/>
        <rect x="190.68" y="146.44" width="11.83" height="3.06" fill="#5a5a5a"/>
        <rect x="202.51" y="146.44" width="11.83" height="3.06" fill="#5a5a5a"/>
        <rect x="214.34" y="147.97" width="11.83" height="1.53" fill="#5a5a5a"/>
        <rect x="226.17" y="147.97" width="11.83" height="1.53" fill="#5a5a5a"/>
        <rect x="237.99" y="141.84" width="11.83" height="7.65" fill="#5a5a5a"/>
        <rect x="249.82" y="143.38" width="11.82" height="6.12" fill="#5a5a5a"/>
        <rect x="261.65" y="121.95" width="11.83" height="27.55" fill="#5a5a5a"/>
        <rect x="273.48" y="114.3" width="11.83" height="35.2" fill="#5a5a5a"/>
        <rect x="285.31" y="94.4" width="11.83" height="55.1" fill="#5a5a5a"/>
        <rect x="297.14" y="85.22" width="11.83" height="64.28" fill="#5a5a5a"/>
        <rect x="308.96" y="79.09" width="11.83" height="70.41" fill="#5a5a5a"/>
        <rect x="320.79" y="89.81" width="11.83" height="59.69" fill="#5a5a5a"/>
        <rect x="332.62" y="114.3" width="11.83" height="35.2" fill="#5a5a5a"/>
        <rect x="344.45" y="94.4" width="11.83" height="55.1" fill="#5a5a5a"/>
        <rect x="356.28" y="102.05" width="11.83" height="47.45" fill="#5a5a5a"/>
        <rect x="368.11" y="95.93" width="11.83" height="53.57" fill="#5a5a5a"/>
        <rect x="379.94" y="77.56" width="11.83" height="71.94" fill="#5a5a5a"/>
        <rect x="391.76" y="98.99" width="11.83" height="50.51" fill="#5a5a5a"/>
        <rect x="403.59" y="91.34" width="11.83" height="58.16" fill="#5a5a5a"/>
        <rect x="415.42" y="91.34" width="11.83" height="58.16" fill="#5a5a5a"/>
        <rect x="427.25" y="86.75" width="11.83" height="62.75" fill="#5a5a5a"/>
        <rect x="439.08" y="80.62" width="11.83" height="68.88" fill="#5a5a5a"/>
        <rect x="450.91" y="66.85" width="11.83" height="82.65" fill="#5a5a5a"/>
        <rect x="462.73" y="48.48" width="11.83" height="101.02" fill="#5a5a5a"/>
        <rect x="474.56" y="76.03" width="11.83" height="73.47" fill="#5a5a5a"/>
        <rect x="486.39" y="27.05" width="11.83" height="122.44" fill="#5a5a5a"/>
        <rect x="498.22" y="50.01" width="11.83" height="99.49" fill="#5a5a5a"/>
        <rect x="510.05" y="30.11" width="11.83" height="119.38" fill="#5a5a5a"/>
        <rect x="521.88" y="43.89" width="11.83" height="105.61" fill="#5a5a5a"/>
        <rect x="533.7" y="59.19" width="11.83" height="90.3" fill="#5a5a5a"/>
        <rect x="545.53" y="65.32" width="11.83" height="84.18" fill="#5a5a5a"/>
        <rect x="557.36" y="80.62" width="11.83" height="68.88" fill="#5a5a5a"/>
        <rect x="569.19" y="92.87" width="11.83" height="56.63" fill="#5a5a5a"/>
        <rect x="581.02" y="97.46" width="11.83" height="52.04" fill="#5a5a5a"/>
        <rect x="592.85" y="115.83" width="11.83" height="33.67" fill="#5a5a5a"/>
        <rect x="604.67" y="118.89" width="11.82" height="30.61" fill="#5a5a5a"/>
        <rect x="616.5" y="126.54" width="11.83" height="22.96" fill="#5a5a5a"/>
        <rect x="628.33" y="128.07" width="11.83" height="21.43" fill="#5a5a5a"/>
        <rect x="640.16" y="135.72" width="11.83" height="13.77" fill="#5a5a5a"/>
        <rect x="651.99" y="134.19" width="11.83" height="15.3" fill="#5a5a5a"/>
        <rect x="663.82" y="143.38" width="11.83" height="6.12" fill="#5a5a5a"/>
        <text transform="translate(70.68 150.14)" font-size="10.53" fill="#231f20" font-family="NewsCycle, News Cycle" style="isolation: isolate">0</text>
        <text transform="translate(64.71 119.52)" font-size="10.53" fill="#231f20" font-family="NewsCycle, News Cycle" style="isolation: isolate">20</text>
        <text transform="translate(64.47 88.91)" font-size="10.53" fill="#231f20" font-family="NewsCycle, News Cycle" style="isolation: isolate">40</text>
        <text transform="translate(64.76 58.3)" font-size="10.53" fill="#231f20" font-family="NewsCycle, News Cycle" style="isolation: isolate">60</text>
      </g>
      <g>
        <rect x="108.2" y="166.93" width="11.83" height="299.71" fill="#d9e58d"/>
        <rect x="120.03" y="166.93" width="11.83" height="299.71" fill="#d9e58d"/>
        <rect x="131.86" y="346.75" width="11.83" height="119.89" fill="#d9e58d"/>
        <rect x="131.86" y="226.87" width="11.83" height="119.89" fill="#fbf7c1"/>
        <rect x="131.86" y="166.93" width="11.83" height="59.94" fill="#fde08b"/>
        <rect x="143.69" y="166.93" width="11.83" height="299.71" fill="#93ca61"/>
        <rect x="155.52" y="366.73" width="11.83" height="99.9" fill="#fbf7c1"/>
        <rect x="155.52" y="166.93" width="11.83" height="199.81" fill="#fde08b"/>
        <rect x="167.34" y="166.93" width="11.83" height="299.71" fill="#93ca61"/>
        <rect x="179.17" y="166.93" width="11.83" height="299.71" fill="#d9e58d"/>
        <rect x="191" y="166.93" width="11.83" height="299.71" fill="#fbf7c1"/>
        <rect x="202.82" y="316.78" width="11.83" height="149.86" fill="#d9e58d"/>
        <rect x="202.82" y="166.93" width="11.83" height="149.86" fill="#fbf7c1"/>
        <rect x="214.65" y="166.93" width="11.83" height="299.71" fill="#93ca61"/>
        <rect x="226.48" y="166.93" width="11.83" height="299.71" fill="#93ca61"/>
        <rect x="238.3" y="406.7" width="11.83" height="59.94" fill="#93ca61"/>
        <rect x="238.3" y="166.93" width="11.83" height="239.77" fill="#d9e58d"/>
        <rect x="250.13" y="316.78" width="11.83" height="149.86" fill="#93ca61"/>
        <rect x="250.13" y="166.93" width="11.83" height="149.86" fill="#d9e58d"/>
        <rect x="261.96" y="366.73" width="11.83" height="99.9" fill="#93ca61"/>
        <rect x="261.96" y="250.18" width="11.83" height="116.56" fill="#d9e58d"/>
        <rect x="261.96" y="183.58" width="11.83" height="66.6" fill="#fbf7c1"/>
        <rect x="261.96" y="166.93" width="11.83" height="16.65" fill="#f68d5c"/>
        <rect x="273.79" y="414.52" width="11.83" height="52.12" fill="#93ca61"/>
        <rect x="273.79" y="362.39" width="11.83" height="52.12" fill="#d9e58d"/>
        <rect x="273.79" y="219.05" width="11.83" height="143.34" fill="#fbf7c1"/>
        <rect x="273.79" y="166.93" width="11.83" height="52.12" fill="#f68d5c"/>
        <rect x="285.62" y="458.32" width="11.83" height="8.32" fill="#1c9850"/>
        <rect x="285.62" y="425.01" width="11.83" height="33.3" fill="#93ca61"/>
        <rect x="285.62" y="333.43" width="11.83" height="91.58" fill="#d9e58d"/>
        <rect x="285.62" y="241.86" width="11.83" height="91.58" fill="#fbf7c1"/>
        <rect x="285.62" y="216.88" width="11.83" height="24.98" fill="#fde08b"/>
        <rect x="285.62" y="166.93" width="11.83" height="49.95" fill="#f68d5c"/>
        <rect x="297.45" y="459.5" width="11.83" height="7.14" fill="#1c9850"/>
        <rect x="297.45" y="416.69" width="11.83" height="42.82" fill="#93ca61"/>
        <rect x="297.45" y="295.37" width="11.83" height="121.31" fill="#d9e58d"/>
        <rect x="297.45" y="195.47" width="11.83" height="99.9" fill="#fbf7c1"/>
        <rect x="297.45" y="174.06" width="11.83" height="21.41" fill="#fde08b"/>
        <rect x="297.45" y="166.93" width="11.83" height="7.14" fill="#f68d5c"/>
        <rect x="309.27" y="460.12" width="11.83" height="6.52" fill="#1c9850"/>
        <rect x="309.27" y="408" width="11.83" height="52.13" fill="#93ca61"/>
        <rect x="309.27" y="329.81" width="11.83" height="78.18" fill="#d9e58d"/>
        <rect x="309.27" y="199.5" width="11.83" height="130.31" fill="#fbf7c1"/>
        <rect x="309.27" y="179.96" width="11.83" height="19.55" fill="#fde08b"/>
        <rect x="309.27" y="166.93" width="11.83" height="13.03" fill="#f68d5c"/>
        <rect x="321.1" y="458.96" width="11.83" height="7.69" fill="#1c9850"/>
        <rect x="321.1" y="405.16" width="11.83" height="53.79" fill="#93ca61"/>
        <rect x="321.1" y="289.89" width="11.83" height="115.27" fill="#d9e58d"/>
        <rect x="321.1" y="197.66" width="11.83" height="92.22" fill="#fbf7c1"/>
        <rect x="321.1" y="174.61" width="11.83" height="23.06" fill="#fde08b"/>
        <rect x="321.1" y="166.93" width="11.83" height="7.69" fill="#f68d5c"/>
        <rect x="332.93" y="388.45" width="11.83" height="78.18" fill="#93ca61"/>
        <rect x="332.93" y="310.27" width="11.83" height="78.18" fill="#d9e58d"/>
        <rect x="332.93" y="206.02" width="11.83" height="104.25" fill="#fbf7c1"/>
        <rect x="332.93" y="166.93" width="11.83" height="39.09" fill="#f68d5c"/>
        <rect x="344.76" y="400.04" width="11.83" height="66.6" fill="#93ca61"/>
        <rect x="344.76" y="291.8" width="11.83" height="108.23" fill="#d9e58d"/>
        <rect x="344.76" y="216.88" width="11.83" height="74.93" fill="#fbf7c1"/>
        <rect x="344.76" y="200.23" width="11.83" height="16.65" fill="#fde08b"/>
        <rect x="344.76" y="166.93" width="11.83" height="33.3" fill="#f68d5c"/>
        <rect x="356.58" y="389.29" width="11.83" height="77.35" fill="#93ca61"/>
        <rect x="356.58" y="292.61" width="11.83" height="96.68" fill="#d9e58d"/>
        <rect x="356.58" y="205.6" width="11.83" height="87.01" fill="#fbf7c1"/>
        <rect x="356.58" y="195.93" width="11.83" height="9.67" fill="#fde08b"/>
        <rect x="356.58" y="166.93" width="11.83" height="29" fill="#f68d5c"/>
        <rect x="368.41" y="458.08" width="11.83" height="8.56" fill="#1c9850"/>
        <rect x="368.41" y="406.7" width="11.83" height="51.38" fill="#93ca61"/>
        <rect x="368.41" y="312.5" width="11.83" height="94.19" fill="#d9e58d"/>
        <rect x="368.41" y="201.18" width="11.83" height="111.32" fill="#fbf7c1"/>
        <rect x="368.41" y="184.05" width="11.83" height="17.13" fill="#fde08b"/>
        <rect x="368.41" y="166.93" width="11.83" height="17.13" fill="#f68d5c"/>
        <rect x="380.24" y="460.26" width="11.83" height="6.38" fill="#1c9850"/>
        <rect x="380.24" y="402.87" width="11.83" height="57.39" fill="#93ca61"/>
        <rect x="380.24" y="294.47" width="11.83" height="108.41" fill="#d9e58d"/>
        <rect x="380.24" y="224.32" width="11.83" height="70.15" fill="#fbf7c1"/>
        <rect x="380.24" y="205.19" width="11.83" height="19.13" fill="#fde08b"/>
        <rect x="380.24" y="166.93" width="11.83" height="38.26" fill="#f68d5c"/>
        <rect x="392.07" y="421.22" width="11.83" height="45.41" fill="#93ca61"/>
        <rect x="392.07" y="366.73" width="11.83" height="54.49" fill="#d9e58d"/>
        <rect x="392.07" y="230.5" width="11.83" height="136.23" fill="#fbf7c1"/>
        <rect x="392.07" y="203.25" width="11.83" height="27.25" fill="#fde08b"/>
        <rect x="392.07" y="166.93" width="11.83" height="36.33" fill="#f68d5c"/>
        <rect x="403.9" y="427.2" width="11.83" height="39.43" fill="#93ca61"/>
        <rect x="403.9" y="348.33" width="11.83" height="78.87" fill="#d9e58d"/>
        <rect x="403.9" y="277.34" width="11.83" height="70.98" fill="#fbf7c1"/>
        <rect x="403.9" y="237.91" width="11.83" height="39.43" fill="#fde08b"/>
        <rect x="403.9" y="174.81" width="11.83" height="63.1" fill="#f68d5c"/>
        <rect x="403.9" y="166.93" width="11.83" height="7.89" fill="#d73227"/>
        <rect x="415.73" y="419.32" width="11.83" height="47.32" fill="#93ca61"/>
        <rect x="415.73" y="293.12" width="11.83" height="126.19" fill="#d9e58d"/>
        <rect x="415.73" y="222.14" width="11.83" height="70.98" fill="#fbf7c1"/>
        <rect x="415.73" y="198.47" width="11.83" height="23.66" fill="#fde08b"/>
        <rect x="415.73" y="166.93" width="11.83" height="31.55" fill="#f68d5c"/>
        <rect x="427.55" y="422.78" width="11.83" height="43.86" fill="#93ca61"/>
        <rect x="427.55" y="364.3" width="11.83" height="58.48" fill="#d9e58d"/>
        <rect x="427.55" y="261.96" width="11.83" height="102.34" fill="#fbf7c1"/>
        <rect x="427.55" y="218.1" width="11.83" height="43.86" fill="#fde08b"/>
        <rect x="427.55" y="166.93" width="11.83" height="51.17" fill="#f68d5c"/>
        <rect x="439.38" y="459.98" width="11.83" height="6.66" fill="#93ca61"/>
        <rect x="439.38" y="406.7" width="11.83" height="53.28" fill="#d9e58d"/>
        <rect x="439.38" y="320.11" width="11.83" height="86.58" fill="#fbf7c1"/>
        <rect x="439.38" y="293.47" width="11.83" height="26.64" fill="#fde08b"/>
        <rect x="439.38" y="166.93" width="11.83" height="126.55" fill="#f68d5c"/>
        <rect x="451.21" y="405.59" width="11.83" height="61.05" fill="#93ca61"/>
        <rect x="451.21" y="333.43" width="11.83" height="72.15" fill="#d9e58d"/>
        <rect x="451.21" y="311.23" width="11.83" height="22.2" fill="#fbf7c1"/>
        <rect x="451.21" y="261.28" width="11.83" height="49.95" fill="#fde08b"/>
        <rect x="451.21" y="172.48" width="11.83" height="88.8" fill="#f68d5c"/>
        <rect x="451.21" y="166.93" width="11.83" height="5.55" fill="#d73227"/>
        <rect x="463.04" y="462.1" width="11.83" height="4.54" fill="#1c9850"/>
        <rect x="463.04" y="434.85" width="11.83" height="27.25" fill="#93ca61"/>
        <rect x="463.04" y="389.44" width="11.83" height="45.41" fill="#d9e58d"/>
        <rect x="463.04" y="285" width="11.83" height="104.45" fill="#fbf7c1"/>
        <rect x="463.04" y="225.96" width="11.83" height="59.04" fill="#fde08b"/>
        <rect x="463.04" y="171.47" width="11.83" height="54.49" fill="#f68d5c"/>
        <rect x="463.04" y="166.93" width="11.83" height="4.54" fill="#d73227"/>
        <rect x="474.87" y="460.4" width="11.83" height="6.24" fill="#1c9850"/>
        <rect x="474.87" y="422.93" width="11.83" height="37.46" fill="#93ca61"/>
        <rect x="474.87" y="348" width="11.83" height="74.93" fill="#d9e58d"/>
        <rect x="474.87" y="279.32" width="11.83" height="68.68" fill="#fbf7c1"/>
        <rect x="474.87" y="210.63" width="11.83" height="68.69" fill="#fde08b"/>
        <rect x="474.87" y="166.93" width="11.83" height="43.71" fill="#f68d5c"/>
        <rect x="486.69" y="425.43" width="11.83" height="41.21" fill="#93ca61"/>
        <rect x="486.69" y="369.23" width="11.83" height="56.2" fill="#d9e58d"/>
        <rect x="486.69" y="298.05" width="11.83" height="71.18" fill="#fbf7c1"/>
        <rect x="486.69" y="256.84" width="11.83" height="41.21" fill="#fde08b"/>
        <rect x="486.69" y="166.93" width="11.83" height="89.91" fill="#f68d5c"/>
        <rect x="498.52" y="462.03" width="11.83" height="4.61" fill="#1c9850"/>
        <rect x="498.52" y="425.14" width="11.83" height="36.89" fill="#93ca61"/>
        <rect x="498.52" y="369.81" width="11.83" height="55.33" fill="#d9e58d"/>
        <rect x="498.52" y="309.87" width="11.83" height="59.94" fill="#fbf7c1"/>
        <rect x="498.52" y="282.2" width="11.83" height="27.67" fill="#fde08b"/>
        <rect x="498.52" y="171.54" width="11.83" height="110.66" fill="#f68d5c"/>
        <rect x="498.52" y="166.93" width="11.83" height="4.61" fill="#d73227"/>
        <rect x="510.35" y="432.06" width="11.83" height="34.58" fill="#93ca61"/>
        <rect x="510.35" y="393.63" width="11.83" height="38.42" fill="#d9e58d"/>
        <rect x="510.35" y="320.62" width="11.83" height="73.01" fill="#fbf7c1"/>
        <rect x="510.35" y="282.2" width="11.83" height="38.42" fill="#fde08b"/>
        <rect x="510.35" y="170.77" width="11.83" height="111.43" fill="#f68d5c"/>
        <rect x="510.35" y="166.93" width="11.83" height="3.84" fill="#d73227"/>
        <rect x="522.17" y="427.55" width="11.83" height="39.09" fill="#93ca61"/>
        <rect x="522.17" y="345.02" width="11.83" height="82.53" fill="#d9e58d"/>
        <rect x="522.17" y="292.89" width="11.83" height="52.13" fill="#fbf7c1"/>
        <rect x="522.17" y="249.46" width="11.83" height="43.44" fill="#fde08b"/>
        <rect x="522.17" y="171.27" width="11.83" height="78.18" fill="#f68d5c"/>
        <rect x="522.17" y="166.93" width="11.83" height="4.35" fill="#d73227"/>
        <rect x="534" y="461.56" width="11.83" height="5.08" fill="#1c9850"/>
        <rect x="534" y="436.16" width="11.83" height="25.4" fill="#93ca61"/>
        <rect x="534" y="349.8" width="11.83" height="86.36" fill="#d9e58d"/>
        <rect x="534" y="258.36" width="11.83" height="91.44" fill="#fbf7c1"/>
        <rect x="534" y="243.12" width="11.83" height="15.24" fill="#fde08b"/>
        <rect x="534" y="166.93" width="11.83" height="76.2" fill="#f68d5c"/>
        <rect x="545.83" y="417.59" width="11.83" height="49.04" fill="#93ca61"/>
        <rect x="545.83" y="374" width="11.83" height="43.6" fill="#d9e58d"/>
        <rect x="545.83" y="275.91" width="11.83" height="98.09" fill="#fbf7c1"/>
        <rect x="545.83" y="243.22" width="11.83" height="32.69" fill="#fde08b"/>
        <rect x="545.83" y="166.93" width="11.83" height="76.29" fill="#f68d5c"/>
        <rect x="557.65" y="426.68" width="11.83" height="39.96" fill="#93ca61"/>
        <rect x="557.65" y="353.41" width="11.83" height="73.27" fill="#d9e58d"/>
        <rect x="557.65" y="260.17" width="11.83" height="93.24" fill="#fbf7c1"/>
        <rect x="557.65" y="213.55" width="11.83" height="46.62" fill="#fde08b"/>
        <rect x="557.65" y="166.93" width="11.83" height="46.62" fill="#f68d5c"/>
        <rect x="569.48" y="450.44" width="11.83" height="16.2" fill="#1c9850"/>
        <rect x="569.48" y="426.14" width="11.83" height="24.3" fill="#93ca61"/>
        <rect x="569.48" y="377.53" width="11.83" height="48.6" fill="#d9e58d"/>
        <rect x="569.48" y="231.73" width="11.83" height="145.81" fill="#fbf7c1"/>
        <rect x="569.48" y="215.53" width="11.83" height="16.2" fill="#fde08b"/>
        <rect x="569.48" y="166.93" width="11.83" height="48.6" fill="#f68d5c"/>
        <rect x="581.31" y="440.19" width="11.83" height="26.45" fill="#93ca61"/>
        <rect x="581.31" y="343.23" width="11.83" height="96.96" fill="#d9e58d"/>
        <rect x="581.31" y="290.34" width="11.83" height="52.89" fill="#fbf7c1"/>
        <rect x="581.31" y="255.08" width="11.83" height="35.26" fill="#fde08b"/>
        <rect x="581.31" y="184.56" width="11.83" height="70.52" fill="#f68d5c"/>
        <rect x="581.31" y="166.93" width="11.83" height="17.63" fill="#d73227"/>
        <rect x="593.14" y="357.66" width="11.83" height="108.99" fill="#d9e58d"/>
        <rect x="593.14" y="248.66" width="11.83" height="108.99" fill="#fbf7c1"/>
        <rect x="593.14" y="221.42" width="11.83" height="27.25" fill="#fde08b"/>
        <rect x="593.14" y="166.93" width="11.83" height="54.49" fill="#f68d5c"/>
        <rect x="604.97" y="451.66" width="11.83" height="14.99" fill="#93ca61"/>
        <rect x="604.97" y="316.78" width="11.83" height="134.87" fill="#d9e58d"/>
        <rect x="604.97" y="226.87" width="11.83" height="89.91" fill="#fbf7c1"/>
        <rect x="604.97" y="181.91" width="11.83" height="44.96" fill="#fde08b"/>
        <rect x="604.97" y="166.93" width="11.83" height="14.98" fill="#f68d5c"/>
        <rect x="616.79" y="406.7" width="11.83" height="59.94" fill="#d9e58d"/>
        <rect x="616.79" y="286.81" width="11.83" height="119.89" fill="#fbf7c1"/>
        <rect x="616.79" y="246.85" width="11.83" height="39.96" fill="#fde08b"/>
        <rect x="616.79" y="166.93" width="11.83" height="79.92" fill="#f68d5c"/>
        <rect x="628.62" y="423.82" width="11.83" height="42.82" fill="#93ca61"/>
        <rect x="628.62" y="359.6" width="11.83" height="64.22" fill="#d9e58d"/>
        <rect x="628.62" y="316.78" width="11.83" height="42.82" fill="#fbf7c1"/>
        <rect x="628.62" y="231.15" width="11.83" height="85.63" fill="#fde08b"/>
        <rect x="628.62" y="166.93" width="11.83" height="64.23" fill="#f68d5c"/>
        <rect x="640.45" y="333.43" width="11.83" height="133.21" fill="#d9e58d"/>
        <rect x="640.45" y="200.23" width="11.83" height="133.21" fill="#fbf7c1"/>
        <rect x="640.45" y="166.93" width="11.83" height="33.3" fill="#fde08b"/>
        <rect x="652.28" y="436.67" width="11.83" height="29.97" fill="#d9e58d"/>
        <rect x="652.28" y="256.84" width="11.83" height="179.83" fill="#fbf7c1"/>
        <rect x="652.28" y="166.93" width="11.83" height="89.91" fill="#fde08b"/>
        <rect x="664.11" y="241.86" width="11.83" height="224.78" fill="#fbf7c1"/>
        <rect x="664.11" y="166.93" width="11.83" height="74.93" fill="#fde08b"/>
      </g>
      <g>
        <rect x="681.31" y="384.98" width="12.13" height="8.95" fill="#d73227"/>
        <rect x="681.31" y="396.97" width="12.13" height="8.94" fill="#f68d5c"/>
        <rect x="681.31" y="408.89" width="12.13" height="8.94" fill="#fde08b"/>
        <rect x="681.31" y="420.84" width="12.13" height="8.94" fill="#fbf7c1"/>
        <rect x="681.31" y="432.79" width="12.13" height="8.94" fill="#d9e58d"/>
        <rect x="681.31" y="444.74" width="12.13" height="8.95" fill="#93ca61"/>
        <rect x="681.31" y="456.69" width="12.13" height="8.94" fill="#1c9850"/>
        <text transform="translate(699.91 392.91)" font-size="9" fill="#231f20" font-family="NewsCycle, News Cycle" style="isolation: isolate">Younger than 6</text>
        <text transform="translate(699.91 404.89)" font-size="9" fill="#231f20" font-family="NewsCycle, News Cycle" style="isolation: isolate">6 to 15</text>
        <text transform="translate(699.91 416.81)" font-size="9" fill="#231f20" font-family="NewsCycle, News Cycle" style="isolation: isolate">16 to 20</text>
        <text transform="translate(699.91 428.76)" font-size="9" fill="#231f20" font-family="NewsCycle, News Cycle" style="isolation: isolate">21 to 34</text>
        <text transform="translate(699.91 440.72)" font-size="9" fill="#231f20" font-family="NewsCycle, News Cycle" style="isolation: isolate">35 to 54</text>
        <text transform="translate(699.91 452.67)" font-size="9" fill="#231f20" font-family="NewsCycle, News Cycle" style="isolation: isolate">55 to 74</text>
        <text transform="translate(699.91 464.62)" font-size="9" fill="#231f20" font-family="NewsCycle, News Cycle" style="isolation: isolate">Older than 74</text>
      </g>
    </g>
  </g>
</svg>
