<svg xmlns="http://www.w3.org/2000/svg" xmlns:xlink="http://www.w3.org/1999/xlink" viewBox="0 0 792 612"><defs><style>.cls-1{font-size:27.55px;}.cls-1,.cls-10,.cls-12,.cls-39,.cls-9{fill:#231f20;}.cls-1,.cls-22,.cls-29{font-family:RobotoSlab-Regular, Roboto Slab;}.cls-2{letter-spacing:0em;}.cls-3{letter-spacing:-0.01em;}.cls-4{letter-spacing:0em;}.cls-5{letter-spacing:0em;}.cls-6{letter-spacing:-0.01em;}.cls-37,.cls-7{fill:#f9a01b;}.cls-7,.cls-8{stroke:#f1f1f2;stroke-width:2px;}.cls-21,.cls-7,.cls-8{stroke-linecap:round;}.cls-11,.cls-21,.cls-7,.cls-8{stroke-linejoin:round;}.cls-38,.cls-8{fill:#fd0;}.cls-9{font-size:17px;font-family:NewsCycle-Bold, News Cycle;}.cls-43,.cls-9{font-weight:700;}.cls-10,.cls-32,.cls-43{font-size:10px;}.cls-10,.cls-12,.cls-39{font-family:NewsCycle, News Cycle;}.cls-11{fill:none;stroke:#ebebeb;stroke-width:1.07px;}.cls-12{isolation:isolate;font-size:9px;}.cls-13{fill:#1c9850;}.cls-14{fill:#93ca61;}.cls-15{fill:#d9e58d;}.cls-16{fill:#fbf7c1;}.cls-17{fill:#fde08b;}.cls-18{fill:#f68d5c;}.cls-19{fill:#d73227;}.cls-20{letter-spacing:-0.02em;}.cls-21{fill:#cfcece;stroke:#cfcece;}.cls-22{font-size:11px;}.cls-23{letter-spacing:-0.01em;}.cls-24{letter-spacing:0em;}.cls-25{letter-spacing:-0.01em;}.cls-26{letter-spacing:0em;}.cls-27{letter-spacing:0em;}.cls-28{letter-spacing:0em;}.cls-29{font-size:16px;}.cls-30{letter-spacing:-0.01em;}.cls-31{letter-spacing:0em;}.cls-32{font-family:RobotoSlab-Light, Roboto Slab;font-weight:300;}.cls-33{letter-spacing:0em;}.cls-34{letter-spacing:-0.01em;}.cls-35{letter-spacing:-0.01em;}.cls-36{letter-spacing:-0.01em;}.cls-39{font-size:12px;}.cls-40{opacity:0.6;}.cls-41{fill:url(#linear-gradient);}.cls-42{fill:url(#linear-gradient-2);}.cls-43{font-family:RobotoSlab-Bold, Roboto Slab;}</style><linearGradient id="linear-gradient" x1="225.33" y1="359.24" x2="180" y2="359.24" gradientUnits="userSpaceOnUse"><stop offset="0" stop-color="#fff"/><stop offset="1" stop-color="#fd0"/></linearGradient><linearGradient id="linear-gradient-2" x1="536.62" y1="359.24" x2="491.28" y2="359.24" xlink:href="#linear-gradient"/></defs><title>pres_slides_svg</title><g id="SchoolZone"><text class="cls-1" transform="translate(36 585.27) scale(1.05 1)">Sc<tspan class="cls-2" x="31.63" y="0">h</tspan><tspan x="49.28" y="0">o</tspan><tspan class="cls-3" x="64.74" y="0">o</tspan><tspan class="cls-4" x="79.93" y="0">l Zo</tspan><tspan class="cls-2" x="127.32" y="0">n</tspan><tspan class="cls-5" x="144.92" y="0">e &amp; Age G</tspan><tspan class="cls-6" x="266.86" y="0">r</tspan><tspan x="277.98" y="0">oup</tspan></text><rect class="cls-7" x="90" y="35.08" width="90" height="315.27"/><rect class="cls-8" x="90" y="350.35" width="90" height="116.73"/><text class="cls-9" transform="translate(120.41 404.23) scale(1.05 1)">796</text><text class="cls-10" transform="translate(123.9 417.36) scale(1.05 1)">(27%)</text><text class="cls-9" transform="translate(116.24 183.37) scale(1.05 1)">2150</text><text class="cls-10" transform="translate(123.93 196.5) scale(1.05 1)">(73%)</text><line class="cls-11" x1="224.94" y1="467.3" x2="338.25" y2="467.3"/><line class="cls-11" x1="224.94" y1="413.3" x2="338.25" y2="413.3"/><line class="cls-11" x1="224.94" y1="359.3" x2="338.25" y2="359.3"/><line class="cls-11" x1="224.94" y1="305.3" x2="338.25" y2="305.3"/><line class="cls-11" x1="224.94" y1="251.3" x2="338.25" y2="251.3"/><text class="cls-12" transform="translate(318.57 465.64) scale(1.05 1)">0%</text><text class="cls-12" transform="translate(316.75 411.45) scale(1.05 1)">25%</text><text class="cls-12" transform="translate(316.75 357.07) scale(1.05 1)">50%</text><text class="cls-12" transform="translate(316.75 303.19) scale(1.05 1)">75%</text><text class="cls-12" transform="translate(314.94 249.06) scale(1.05 1)">100%</text><rect class="cls-13" x="224.94" y="456.97" width="90" height="10.11"/><rect class="cls-14" x="224.94" y="409.26" width="90" height="47.7"/><rect class="cls-15" x="224.94" y="354.92" width="90" height="54.34"/><rect class="cls-16" x="224.94" y="305.01" width="90" height="49.92"/><rect class="cls-17" x="224.94" y="286.05" width="90" height="18.96"/><rect class="cls-18" x="224.94" y="255.41" width="90" height="30.64"/><rect class="cls-19" x="224.94" y="251.3" width="90" height="4.11"/><rect class="cls-7" x="401.48" y="35.11" width="90" height="343.12"/><rect class="cls-8" x="401.48" y="378.23" width="90" height="88.88"/><text class="cls-9" transform="translate(430.93 404.23) scale(1.05 1)">323</text><text class="cls-10" transform="translate(431.15 417.36) scale(1.05 1)">(20.6%)</text><text class="cls-9" transform="translate(427.6 183.37) scale(1.05 1)">12<tspan class="cls-20" x="17.43" y="0">4</tspan><tspan x="27.77" y="0">7</tspan></text><text class="cls-10" transform="translate(431.31 196.5) scale(1.05 1)">(79.4%)</text><line class="cls-11" x1="539.75" y1="467.37" x2="653.06" y2="467.37"/><line class="cls-11" x1="539.75" y1="413.47" x2="653.06" y2="413.47"/><line class="cls-11" x1="539.75" y1="359.56" x2="653.06" y2="359.56"/><line class="cls-11" x1="539.75" y1="305.66" x2="653.06" y2="305.66"/><line class="cls-11" x1="539.75" y1="251.75" x2="653.06" y2="251.75"/><text class="cls-12" transform="translate(635.3 465.59)">0%</text><text class="cls-12" transform="translate(632.52 411.68)">25%</text><text class="cls-12" transform="translate(632.52 357.78)">50%</text><text class="cls-12" transform="translate(632.52 303.87)">75%</text><text class="cls-12" transform="translate(629.75 249.97)">100%</text><rect class="cls-13" x="536.42" y="463.93" width="90" height="3.17"/><rect class="cls-14" x="536.42" y="439.32" width="90" height="24.61"/><rect class="cls-15" x="536.42" y="385.32" width="90" height="54"/><rect class="cls-16" x="536.42" y="324.98" width="90" height="60.35"/><rect class="cls-17" x="536.42" y="300.36" width="90" height="24.61"/><rect class="cls-18" x="536.42" y="251.13" width="90" height="49.23"/><rect class="cls-21" x="90" y="479.18" width="90" height="34.4"/><text class="cls-22" transform="translate(93.72 495.43) scale(1.05 1)">Crash Location<tspan class="cls-23" x="-0.21" y="13.2">b</tspan><tspan x="6.1" y="13.2">y Sc</tspan><tspan class="cls-24" x="27.7" y="13.2">h</tspan><tspan x="34.75" y="13.2">o</tspan><tspan class="cls-25" x="40.92" y="13.2">o</tspan><tspan x="46.99" y="13.2">l Zo</tspan><tspan class="cls-24" x="65.91" y="13.2">n</tspan><tspan class="cls-26" x="72.93" y="13.2">e</tspan></text><rect class="cls-21" x="224.94" y="479.18" width="90" height="34.4"/><text class="cls-22" transform="translate(234.21 495.43) scale(1.05 1)">Sc<tspan class="cls-24" x="12.63" y="0">h</tspan><tspan x="19.67" y="0">o</tspan><tspan class="cls-25" x="25.85" y="0">o</tspan><tspan class="cls-26" x="31.91" y="0">l-Zo</tspan><tspan class="cls-27" x="52.38" y="0">n</tspan><tspan class="cls-26" x="59.4" y="0">e </tspan><tspan x="-6.02" y="13.2">Cras</tspan><tspan class="cls-24" x="17.29" y="13.2">h</tspan><tspan class="cls-26" x="24.34" y="13.2">es </tspan><tspan class="cls-23" x="38.59" y="13.2">b</tspan><tspan class="cls-28" x="44.9" y="13.2">y Age</tspan></text><rect class="cls-21" x="90" y="522.34" width="224.94" height="24.9"/><text class="cls-29" transform="translate(95.67 540.76) scale(0.97 1)">All <tspan class="cls-30" x="25.77" y="0">P</tspan><tspan x="35.84" y="0">edestrian Cras</tspan><tspan class="cls-31" x="145.52" y="0">h</tspan><tspan x="155.77" y="0" xml:space="preserve">es:  2946</tspan></text><text class="cls-32" transform="translate(628.75 567.98) scale(0.97 1)">Age-wise distribution <tspan x="0" y="12">of cras</tspan><tspan class="cls-33" x="31.48" y="12">h</tspan><tspan x="37.77" y="12">es is similar in </tspan><tspan class="cls-33" x="0" y="24">n</tspan><tspan x="6.39" y="24">on sc</tspan><tspan class="cls-33" x="31.24" y="24">h</tspan><tspan x="37.52" y="24">o</tspan><tspan class="cls-34" x="43.15" y="24">o</tspan><tspan x="48.68" y="24">l-</tspan><tspan class="cls-35" x="55.53" y="24">z</tspan><tspan x="60.72" y="24">o</tspan><tspan class="cls-33" x="66.35" y="24">n</tspan><tspan x="72.74" y="24">e cases as well</tspan></text><rect class="cls-21" x="401.48" y="479.18" width="90" height="34.4"/><text class="cls-22" transform="translate(405.2 495.43) scale(1.05 1)">Crash Location<tspan class="cls-23" x="-0.21" y="13.2">b</tspan><tspan x="6.1" y="13.2">y Sc</tspan><tspan class="cls-24" x="27.7" y="13.2">h</tspan><tspan x="34.75" y="13.2">o</tspan><tspan class="cls-25" x="40.92" y="13.2">o</tspan><tspan x="46.99" y="13.2">l Zo</tspan><tspan class="cls-24" x="65.91" y="13.2">n</tspan><tspan class="cls-26" x="72.93" y="13.2">e</tspan></text><rect class="cls-21" x="536.42" y="479.18" width="90" height="34.4"/><text class="cls-22" transform="translate(545.69 495.43) scale(1.05 1)">Sc<tspan class="cls-24" x="12.63" y="0">h</tspan><tspan x="19.67" y="0">o</tspan><tspan class="cls-25" x="25.85" y="0">o</tspan><tspan class="cls-26" x="31.91" y="0">l-Zo</tspan><tspan class="cls-27" x="52.38" y="0">n</tspan><tspan class="cls-26" x="59.4" y="0">e </tspan><tspan x="-6.02" y="13.2">Cras</tspan><tspan class="cls-24" x="17.29" y="13.2">h</tspan><tspan class="cls-26" x="24.34" y="13.2">es </tspan><tspan class="cls-23" x="38.59" y="13.2">b</tspan><tspan class="cls-28" x="44.9" y="13.2">y Age</tspan></text><rect class="cls-21" x="401.48" y="522.34" width="224.94" height="24.9"/><text class="cls-29" transform="translate(424.14 540.76) scale(0.97 1)">All Bic<tspan class="cls-36" x="50.16" y="0">y</tspan><tspan x="59.14" y="0">cle Cras</tspan><tspan class="cls-31" x="119.29" y="0">h</tspan><tspan x="129.54" y="0" xml:space="preserve">es:  1570</tspan></text><path class="cls-37" d="M767.31,333c0,4.88-3.24,8.84-7.23,8.84H678.54c-4,0-7.23-4-7.23-8.84v-10.5c0-4.89,3.24-8.85,7.23-8.85h81.54c4,0,7.23,4,7.23,8.85Z"/><path class="cls-38" d="M767.31,369.38c0,4.89-3.25,8.85-7.26,8.85H678.57c-4,0-7.26-4-7.26-8.85v-10.5c0-4.88,3.25-8.84,7.26-8.84h81.48c4,0,7.26,4,7.26,8.84Z"/><text class="cls-39" transform="translate(688.62 368.11) scale(1.05 1)">School-Zone</text><text class="cls-39" transform="translate(673.92 331.97) scale(1.05 1)">Not a School-Zone</text><rect class="cls-19" x="681.31" y="384.98" width="12.13" height="8.95"/><rect class="cls-18" x="681.31" y="396.97" width="12.13" height="8.94"/><rect class="cls-17" x="681.31" y="408.89" width="12.13" height="8.94"/><rect class="cls-16" x="681.31" y="420.84" width="12.13" height="8.94"/><rect class="cls-15" x="681.31" y="432.79" width="12.13" height="8.94"/><rect class="cls-14" x="681.31" y="444.74" width="12.13" height="8.95"/><rect class="cls-13" x="681.31" y="456.69" width="12.13" height="8.94"/><text class="cls-12" transform="translate(699.91 392.91)">Younger than 6</text><text class="cls-12" transform="translate(699.91 404.89)">6 to 15</text><text class="cls-12" transform="translate(699.91 416.81)">16 to 20</text><text class="cls-12" transform="translate(699.91 428.76)">21 to 34</text><text class="cls-12" transform="translate(699.91 440.72)">35 to 54</text><text class="cls-12" transform="translate(699.91 452.67)">55 to 74</text><text class="cls-12" transform="translate(699.91 464.62)">Older than 74</text><g class="cls-40"><polygon class="cls-41" points="224.94 467.08 180 467.08 180 350.35 225.33 251.41 224.94 467.08"/></g><g class="cls-40"><polygon class="cls-42" points="536.22 467.08 491.28 467.08 491.28 350.35 536.62 251.41 536.22 467.08"/></g><text class="cls-43" transform="translate(622.28 567.98) scale(0.97 1)">*</text></g></svg>