<svg xmlns="http://www.w3.org/2000/svg" viewBox="0 0 792 612">
  <title>pres_slides_svg</title>
  <g id="Hit_run">
    <g id="ped_all">
      <g>
        <rect x="90" y="78.06" width="90" height="389.92" stroke-width="2" stroke="#f1f1f2" stroke-linecap="round" stroke-linejoin="round" fill="#f9a01b"/>
        <rect x="90" y="35.91" width="90" height="42.08" stroke-width="2" stroke="#f1f1f2" stroke-linecap="round" stroke-linejoin="round" fill="#fd0"/>
      </g>
      <text transform="translate(114.48 277.51) scale(1.05 1)" font-size="17" fill="#231f20" font-family="NewsCycle-Bold, News Cycle" font-weight="700">2390</text>
      <text transform="translate(119.7 290.64) scale(1.05 1)" font-size="10" fill="#231f20" font-family="NewsCycle, News Cycle">(90.3%)</text>
      <text transform="translate(119.86 56.65) scale(1.05 1)" font-size="17" fill="#231f20" font-family="NewsCycle-Bold, News Cycle" font-weight="700">258</text>
      <text transform="translate(123.09 69.78) scale(1.05 1)" font-size="10" fill="#231f20" font-family="NewsCycle, News Cycle">(9.7%)</text>
    </g>
    <g id="ped_sv">
      <g>
        <rect x="216.04" y="70.42" width="90" height="397.57" stroke-width="2" stroke="#f1f1f2" stroke-linecap="round" stroke-linejoin="round" fill="#f9a01b"/>
        <rect x="216.04" y="35.91" width="90" height="34.43" stroke-width="2" stroke="#f1f1f2" stroke-linecap="round" stroke-linejoin="round" fill="#fd0"/>
      </g>
      <text transform="translate(247.21 277.51) scale(1.05 1)" font-size="17" fill="#231f20" font-family="NewsCycle-Bold, News Cycle" font-weight="700">277</text>
      <text transform="translate(249.48 290.64) scale(1.05 1)" font-size="10" fill="#231f20" font-family="NewsCycle, News Cycle">(92%)</text>
      <text transform="translate(250.2 53.06) scale(1.05 1)" font-size="17" fill="#231f20" font-family="NewsCycle-Bold, News Cycle" font-weight="700">24</text>
      <text transform="translate(252.4 66.19) scale(1.05 1)" font-size="10" fill="#231f20" font-family="NewsCycle, News Cycle">(8%)</text>
    </g>
    <g id="bic_all">
      <g>
        <rect x="486" y="66.79" width="90" height="401.2" stroke-width="2" stroke="#f1f1f2" stroke-linecap="round" stroke-linejoin="round" fill="#f9a01b"/>
        <rect x="486" y="35.91" width="90" height="30.8" stroke-width="2" stroke="#f1f1f2" stroke-linecap="round" stroke-linejoin="round" fill="#fd0"/>
      </g>
      <text transform="translate(513.35 277.51) scale(1.05 1)" font-size="17" fill="#231f20" font-family="NewsCycle-Bold, News Cycle" font-weight="700">1315</text>
      <text transform="translate(515.6 290.64) scale(1.05 1)" font-size="10" fill="#231f20" font-family="NewsCycle, News Cycle">(92.9%)</text>
      <text transform="translate(518.14 51.93) scale(1.05 1)" font-size="17" fill="#231f20" font-family="NewsCycle-Bold, News Cycle" font-weight="700">101</text>
      <text transform="translate(519.8 65.06) scale(1.05 1)" font-size="10" fill="#231f20" font-family="NewsCycle, News Cycle">(7.1%)</text>
    </g>
    <g id="bic_sv">
      <g>
        <rect x="612" y="58.49" width="90" height="409.49" stroke-width="2" stroke="#f1f1f2" stroke-linecap="round" stroke-linejoin="round" fill="#f9a01b"/>
        <rect x="612" y="35.91" width="90" height="22.51" stroke-width="2" stroke="#f1f1f2" stroke-linecap="round" stroke-linejoin="round" fill="#fd0"/>
      </g>
      <text transform="translate(647.97 277.51) scale(1.05 1)" font-size="17" fill="#231f20" font-family="NewsCycle-Bold, News Cycle" font-weight="700">91</text>
      <text transform="translate(645.82 290.64) scale(1.05 1)" font-size="10" fill="#231f20" font-family="NewsCycle, News Cycle">(95%)</text>
      <text transform="translate(652.43 41.1) scale(1.05 1)" font-size="17" fill="#231f20" font-family="NewsCycle-Bold, News Cycle" font-weight="700">5</text>
      <text transform="translate(648.8 54.23) scale(1.05 1)" font-size="10" fill="#231f20" font-family="NewsCycle, News Cycle">(5%)</text>
    </g>
    <text transform="translate(35.81 585.19) scale(1.05 1)" font-size="27.55" fill="#231f20" font-family="RobotoSlab-Regular, Roboto Slab">Hit &amp; Run Cases</text>
    <g>
      <path d="M444,272.64c0,4.88-3.24,8.84-7.23,8.84H355.23c-4,0-7.23-4-7.23-8.84v-10.5c0-4.89,3.24-8.85,7.23-8.85h81.54c4,0,7.23,4,7.23,8.85Z" fill="#f9a01b" stroke="#f1f1f2" stroke-linecap="round" stroke-linejoin="round" stroke-width="2"/>
      <path d="M444,60.75c0,4.88-3.25,8.84-7.26,8.84H355.26c-4,0-7.26-4-7.26-8.84V50.25c0-4.89,3.25-8.85,7.26-8.85h81.48c4,0,7.26,4,7.26,8.85Z" fill="#fd0" stroke="#f1f1f2" stroke-linecap="round" stroke-linejoin="round" stroke-width="2"/>
      <text transform="translate(362.85 61.28) scale(1.05 1)" font-size="16.44" fill="#231f20" font-family="NewsCycle, News Cycle">Hit &amp; Run</text>
      <text transform="translate(351.33 273.43) scale(1.05 1)" font-size="16.44" fill="#231f20" font-family="NewsCycle, News Cycle">No Hit &amp; Run</text>
    </g>
    <rect x="90" y="513.02" width="216.04" height="24.9" fill="#cfcece" stroke="#cfcece" stroke-linecap="round" stroke-linejoin="round"/>
    <text transform="translate(120.95 531.44) scale(1.05 1)" font-size="16" font-family="RobotoSlab-Regular, Roboto Slab"><tspan letter-spacing="-0.01em">P</tspan><tspan x="10.06" y="0">edestrian Cras</tspan><tspan x="119.75" y="0" letter-spacing="0em">h</tspan><tspan x="130" y="0">es</tspan></text>
    <rect x="90" y="479.18" width="90" height="24.9" fill="#cfcece" stroke="#cfcece" stroke-linecap="round" stroke-linejoin="round"/>
    <text transform="translate(103.71 495.43) scale(1.05 1)" font-size="11" font-family="RobotoSlab-Regular, Roboto Slab">All Cras<tspan x="41.03" y="0" letter-spacing="0em">h</tspan><tspan x="48.08" y="0">es</tspan></text>
    <rect x="216.04" y="479.18" width="90" height="24.9" fill="#cfcece" stroke="#cfcece" stroke-linecap="round" stroke-linejoin="round"/>
    <text transform="translate(219.31 495.43) scale(1.05 1)" font-size="11" font-family="RobotoSlab-Regular, Roboto Slab">S<tspan x="6.7" y="0" letter-spacing="-0.01em">ev</tspan><tspan x="18.61" y="0" letter-spacing="0em">e</tspan><tspan x="24.52" y="0" letter-spacing="-0.01em">r</tspan><tspan x="28.97" y="0" letter-spacing="0em">e Cras</tspan><tspan x="60.93" y="0" letter-spacing="0em">h</tspan><tspan x="67.98" y="0" letter-spacing="0em">es</tspan></text>
    <rect x="486" y="479.18" width="90" height="24.9" fill="#cfcece" stroke="#cfcece" stroke-linecap="round" stroke-linejoin="round"/>
    <text transform="translate(499.71 495.43) scale(1.05 1)" font-size="11" font-family="RobotoSlab-Regular, Roboto Slab">All Cras<tspan x="41.03" y="0" letter-spacing="0em">h</tspan><tspan x="48.08" y="0">es</tspan></text>
    <rect x="612.04" y="479.18" width="90" height="24.9" fill="#cfcece" stroke="#cfcece" stroke-linecap="round" stroke-linejoin="round"/>
    <text transform="translate(615.31 495.43) scale(1.05 1)" font-size="11" font-family="RobotoSlab-Regular, Roboto Slab">S<tspan x="6.7" y="0" letter-spacing="-0.01em">ev</tspan><tspan x="18.61" y="0" letter-spacing="0em">e</tspan><tspan x="24.52" y="0" letter-spacing="-0.01em">r</tspan><tspan x="28.97" y="0" letter-spacing="0em">e Cras</tspan><tspan x="60.93" y="0" letter-spacing="0em">h</tspan><tspan x="67.98" y="0" letter-spacing="0em">es</tspan></text>
    <rect x="486" y="513.02" width="216.04" height="24.9" fill="#cfcece" stroke="#cfcece" stroke-linecap="round" stroke-linejoin="round"/>
    <text transform="translate(530.75 531.44) scale(1.05 1)" font-size="16" font-family="RobotoSlab-Regular, Roboto Slab">Bic<tspan x="24.39" y="0" letter-spacing="-0.01em">y</tspan><tspan x="33.37" y="0">cle Cras</tspan><tspan x="93.52" y="0" letter-spacing="0em">h</tspan><tspan x="103.77" y="0">es</tspan></text>
  </g>
</svg>
