<svg xmlns="http://www.w3.org/2000/svg" viewBox="0 0 792 612">
  <title>pres_slides_svg</title>
  <g id="Conclusions">
    <text transform="translate(36 585.27) scale(1.05 1)" font-size="27.55" fill="#231f20" font-family="RobotoSlab-Regular, Roboto Slab">Co<tspan x="33.23" y="0" letter-spacing="0em">n</tspan><tspan x="50.83" y="0">clusions</tspan></text>
  </g>
  <g id="Intro_Summary" data-name="Intro Summary">
    <text transform="translate(35.92 50.6)" font-size="21" fill="#231f20" font-family="NewsCycle-Bold, News Cycle" font-weight="700"><tspan letter-spacing="-0.02em">K</tspan><tspan x="11.44" y="0" letter-spacing="-0.01em">e</tspan><tspan x="20.82" y="0" letter-spacing="-0.02em">y</tspan><tspan x="29.73" y="0" xml:space="preserve"> Obser</tspan><tspan x="83.73" y="0" letter-spacing="0em">v</tspan><tspan x="92.87" y="0">ations:</tspan><tspan font-family="NewsCycle, News Cycle" font-weight="400"><tspan x="0" y="25.2">Higher</tspan><tspan x="53.51" y="25.2" letter-spacing="-0.03em"> </tspan><tspan x="58.23" y="25.2">degree</tspan><tspan x="113.63" y="25.2" letter-spacing="-0.03em"> </tspan><tspan x="118.35" y="25.2">of</tspan><tspan x="134.16" y="25.2" letter-spacing="-0.03em"> </tspan><tspan x="138.88" y="25.2">bike</tspan><tspan x="172.17" y="25.2" letter-spacing="-0.03em"> </tspan><tspan x="176.89" y="25.2">crashes</tspan><tspan x="239.98" y="25.2" letter-spacing="-0.03em"> </tspan><tspan x="244.7" y="25.2">with</tspan><tspan x="278.72" y="25.2" letter-spacing="-0.03em"> </tspan><tspan x="283.44" y="25.2">heavy </tspan><tspan x="0" y="50.4">trucks.</tspan><tspan x="0" y="100.8">Crashes</tspan><tspan x="65.63" y="100.8" letter-spacing="0.86em"> </tspan><tspan x="88.85" y="100.8">involving</tspan><tspan x="160.32" y="100.8" letter-spacing="0.86em"> </tspan><tspan x="183.54" y="100.8">younger</tspan><tspan x="249.11" y="100.8" letter-spacing="0.86em"> </tspan><tspan x="272.33" y="100.8">victims </tspan><tspan x="0" y="126">around</tspan><tspan x="56.11" y="126" letter-spacing="0.03em"> </tspan><tspan x="61.93" y="126">school</tspan><tspan x="114.68" y="126" letter-spacing="0.03em"> </tspan><tspan x="120.5" y="126">start/end</tspan><tspan x="197.8" y="126" letter-spacing="0.03em"> </tspan><tspan x="203.62" y="126">times,</tspan><tspan x="252.19" y="126" letter-spacing="0.03em"> </tspan><tspan x="258.01" y="126">and</tspan><tspan x="287.56" y="126" letter-spacing="0.03em"> </tspan><tspan x="293.39" y="126">after </tspan><tspan x="0" y="151.2">school activities.</tspan><tspan x="0" y="176.4">Vast</tspan><tspan x="36.05" y="176.4" letter-spacing="0.22em"> </tspan><tspan x="45.86" y="176.4">majority</tspan><tspan x="111.55" y="176.4" letter-spacing="0.22em"> </tspan><tspan x="121.35" y="176.4">of</tspan><tspan x="137.17" y="176.4" letter-spacing="0.22em"> </tspan><tspan x="146.97" y="176.4">crashes</tspan><tspan x="210.07" y="176.4" letter-spacing="0.22em"> </tspan><tspan x="219.87" y="176.4">(95%)</tspan><tspan x="264.77" y="176.4" letter-spacing="0.22em"> </tspan><tspan x="274.57" y="176.4">involve </tspan><tspan x="0" y="201.6">passenger</tspan><tspan x="83.7" y="201.6" letter-spacing="0.51em"> </tspan><tspan x="99.62" y="201.6">cars</tspan><tspan x="134.18" y="201.6" letter-spacing="0.51em"> </tspan><tspan x="150.1" y="201.6">and</tspan><tspan x="179.65" y="201.6" letter-spacing="0.51em"> </tspan><tspan x="195.57" y="201.6">SUVs</tspan><tspan x="238.92" y="201.6" letter-spacing="0.51em"> </tspan><tspan x="254.84" y="201.6">(may</tspan><tspan x="295.4" y="201.6" letter-spacing="0.51em"> </tspan><tspan x="311.32" y="201.6">be </tspan><tspan x="0" y="226.8">attributed</tspan><tspan x="78.79" y="226.8" letter-spacing="0.35em"> </tspan><tspan x="91.37" y="226.8">to</tspan><tspan x="107.55" y="226.8" letter-spacing="0.35em"> </tspan><tspan x="120.14" y="226.8">higher</tspan><tspan x="170.83" y="226.8" letter-spacing="0.35em"> </tspan><tspan x="183.41" y="226.8">number</tspan><tspan x="245.8" y="226.8" letter-spacing="0.35em"> </tspan><tspan x="258.38" y="226.8">of</tspan><tspan x="274.19" y="226.8" letter-spacing="0.35em"> </tspan><tspan x="286.77" y="226.8">these </tspan><tspan x="0" y="252">vehicle types on the roads)</tspan><tspan x="0" y="302.4">Marked increase in crashes around 6pm.</tspan></tspan></text>
    <text transform="translate(425 51.12)" font-size="21.65" fill="#231f20" font-family="NewsCycle-Bold, News Cycle" font-weight="700">Challen<tspan x="62.86" y="0" letter-spacing="0em">g</tspan><tspan x="73.41" y="0">es:</tspan><tspan x="0" y="51.97" letter-spacing="0em">D</tspan><tspan x="12.89" y="51.97">ata</tspan><tspan x="39.24" y="51.97" letter-spacing="0.51em"> </tspan><tspan x="55.69" y="51.97">Sou</tspan><tspan x="87.63" y="51.97" letter-spacing="-0.01em">r</tspan><tspan x="94.21" y="51.97" letter-spacing="0em">c</tspan><tspan x="104.04" y="51.97">es:</tspan><tspan x="126.97" y="51.97" letter-spacing="0.51em"> </tspan><tspan x="143.42" y="51.97" font-family="NewsCycle, News Cycle" font-weight="400">Unclear</tspan><tspan x="207.05" y="51.97" font-family="NewsCycle, News Cycle" font-weight="400" letter-spacing="0.51em"> </tspan><tspan x="223.5" y="51.97" font-family="NewsCycle, News Cycle" font-weight="400">ideas</tspan><tspan x="267.19" y="51.97" font-family="NewsCycle, News Cycle" font-weight="400" letter-spacing="0.51em"> </tspan><tspan x="283.64" y="51.97" font-family="NewsCycle, News Cycle" font-weight="400">about </tspan><tspan font-family="NewsCycle, News Cycle" font-weight="400"><tspan x="0" y="77.95">secondary sources of data.</tspan></tspan><tspan x="0" y="129.92" letter-spacing="-0.05em">F</tspan><tspan x="9.82" y="129.92">o</tspan><tspan x="20.21" y="129.92" letter-spacing="-0.02em">r</tspan><tspan x="26.68" y="129.92" letter-spacing="0.3em"> </tspan><tspan x="38.66" y="129.92">intersection</tspan><tspan x="138.09" y="129.92" letter-spacing="0.27em"> </tspan><tspan x="149.33" y="129.92">type:</tspan><tspan x="189.77" y="129.92" font-family="NewsCycle, News Cycle" font-weight="400" letter-spacing="0.3em"> </tspan><tspan x="201.76" y="129.92" font-family="NewsCycle, News Cycle" font-weight="400">No</tspan><tspan x="225.26" y="129.92" font-family="NewsCycle, News Cycle" font-weight="400" letter-spacing="0.3em"> </tspan><tspan x="237.25" y="129.92" font-family="NewsCycle, News Cycle" font-weight="400">idea</tspan><tspan x="271.65" y="129.92" font-family="NewsCycle, News Cycle" font-weight="400" letter-spacing="0.3em"> </tspan><tspan x="283.64" y="129.92" font-family="NewsCycle, News Cycle" font-weight="400">about </tspan><tspan font-family="NewsCycle, News Cycle" font-weight="400"><tspan x="0" y="155.91">vehicle volumes</tspan></tspan><tspan x="0" y="207.88" letter-spacing="-0.05em">F</tspan><tspan x="9.82" y="207.88">o</tspan><tspan x="20.21" y="207.88" letter-spacing="-0.02em">r</tspan><tspan x="26.68" y="207.88" letter-spacing="0.01em"> </tspan><tspan x="32.24" y="207.88">school</tspan><tspan x="87.63" y="207.88" letter-spacing="0.01em"> </tspan><tspan x="93.19" y="207.88" letter-spacing="-0.01em">z</tspan><tspan x="101.44" y="207.88">ones:</tspan><tspan x="145.2" y="207.88" font-family="NewsCycle, News Cycle" font-weight="400" letter-spacing="0.01em"> </tspan><tspan x="150.76" y="207.88" font-family="NewsCycle, News Cycle" font-weight="400">Data</tspan><tspan x="189.63" y="207.88" font-family="NewsCycle, News Cycle" font-weight="400" letter-spacing="0.01em"> </tspan><tspan x="195.19" y="207.88" font-family="NewsCycle, News Cycle" font-weight="400">on</tspan><tspan x="215.72" y="207.88" font-family="NewsCycle, News Cycle" font-weight="400" letter-spacing="0.01em"> </tspan><tspan x="221.29" y="207.88" font-family="NewsCycle, News Cycle" font-weight="400">zone</tspan><tspan x="259.84" y="207.88" font-family="NewsCycle, News Cycle" font-weight="400" letter-spacing="0.01em"> </tspan><tspan x="265.4" y="207.88" font-family="NewsCycle, News Cycle" font-weight="400">timings, </tspan><tspan font-family="NewsCycle, News Cycle" font-weight="400"><tspan x="0" y="233.86">and actual spatial spread is missing</tspan></tspan><tspan x="0" y="285.83">IM</tspan><tspan x="20.25" y="285.83" letter-spacing="-0.04em">P</tspan><tspan x="31.48" y="285.83" letter-spacing="-0.02em">A</tspan><tspan x="43.04" y="285.83" letter-spacing="-0.01em">C</tspan><tspan x="55.3" y="285.83" letter-spacing="-0.03em">T</tspan><tspan x="65.92" y="285.83" letter-spacing="0.03em"> </tspan><tspan x="72.03" y="285.83">portal:</tspan><tspan x="124.99" y="285.83" font-family="NewsCycle, News Cycle" font-weight="400" letter-spacing="0.03em"> </tspan><tspan x="131.09" y="285.83" font-family="NewsCycle, News Cycle" font-weight="400">a</tspan><tspan x="140.91" y="285.83" font-family="NewsCycle, News Cycle" font-weight="400" letter-spacing="0.03em"> </tspan><tspan x="147.01" y="285.83" font-family="NewsCycle, News Cycle" font-weight="400">‘FAQ’</tspan><tspan x="189.97" y="285.83" font-family="NewsCycle, News Cycle" font-weight="400" letter-spacing="0.03em"> </tspan><tspan x="196.08" y="285.83" font-family="NewsCycle, News Cycle" font-weight="400">style</tspan><tspan x="235.52" y="285.83" font-family="NewsCycle, News Cycle" font-weight="400" letter-spacing="0.03em"> </tspan><tspan x="241.63" y="285.83" font-family="NewsCycle, News Cycle" font-weight="400">section</tspan><tspan x="301.83" y="285.83" font-family="NewsCycle, News Cycle" font-weight="400" letter-spacing="0.03em"> </tspan><tspan x="307.94" y="285.83" font-family="NewsCycle, News Cycle" font-weight="400">for </tspan><tspan font-family="NewsCycle, News Cycle" font-weight="400"><tspan x="0" y="311.82">most requested data extracts</tspan></tspan><tspan x="0" y="363.79" letter-spacing="0em">D</tspan><tspan x="12.89" y="363.79">ata</tspan><tspan x="39.24" y="363.79" letter-spacing="1.72em"> </tspan><tspan x="81.84" y="363.79" letter-spacing="0em">c</tspan><tspan x="91.66" y="363.79">ollection</tspan><tspan x="163.3" y="363.79" letter-spacing="1.72em"> </tspan><tspan x="205.9" y="363.79">imp</tspan><tspan x="238.23" y="363.79" letter-spacing="-0.01em">r</tspan><tspan x="244.82" y="363.79" letter-spacing="-0.01em">o</tspan><tspan x="255.02" y="363.79" letter-spacing="-0.01em">v</tspan><tspan x="264.36" y="363.79">ements:</tspan><tspan x="330.99" y="363.79" font-family="NewsCycle, News Cycle" font-weight="400"> </tspan><tspan font-family="NewsCycle, News Cycle" font-weight="400"><tspan x="0" y="389.77">Simplifying</tspan><tspan x="92.44" y="389.77" letter-spacing="0.72em"> </tspan><tspan x="113.38" y="389.77">variables.</tspan><tspan x="191.21" y="389.77" letter-spacing="0.72em"> </tspan><tspan x="212.15" y="389.77">Are</tspan><tspan x="240.64" y="389.77" letter-spacing="0.72em"> </tspan><tspan x="261.58" y="389.77">all</tspan><tspan x="280.21" y="389.77" letter-spacing="0.72em"> </tspan><tspan x="301.15" y="389.77">115 </tspan><tspan x="0" y="415.76">variables impactful?</tspan></tspan></text>
  </g>
</svg>
