<svg xmlns="http://www.w3.org/2000/svg" viewBox="0 0 792 612"><defs><style>.cls-1{font-size:27.55px;}.cls-1,.cls-19,.cls-27,.cls-9{fill:#231f20;}.cls-1,.cls-10{font-family:RobotoSlab-Regular, Roboto Slab;}.cls-2{letter-spacing:-0.01em;}.cls-3{letter-spacing:-0.01em;}.cls-4{letter-spacing:0em;}.cls-5{letter-spacing:0em;}.cls-6{letter-spacing:-0.01em;}.cls-7,.cls-8{fill:none;stroke:#ebebeb;stroke-linejoin:round;}.cls-7{stroke-width:0.53px;}.cls-8{stroke-width:1.07px;}.cls-10,.cls-19,.cls-27,.cls-9{isolation:isolate;}.cls-9{font-size:10.47px;}.cls-19,.cls-27,.cls-9{font-family:NewsCycle, News Cycle;}.cls-10{font-size:13.95px;}.cls-11{letter-spacing:0em;}.cls-12{letter-spacing:0em;}.cls-13{letter-spacing:0em;}.cls-14{letter-spacing:-0.01em;}.cls-15{letter-spacing:0.01em;}.cls-16{letter-spacing:-0.01em;}.cls-17{letter-spacing:-0.01em;}.cls-18{fill:#5a5a5a;}.cls-19{font-size:10.53px;}.cls-20{fill:#d9e58d;}.cls-21{fill:#fbf7c1;}.cls-22{fill:#fde08b;}.cls-23{fill:#93ca61;}.cls-24{fill:#f68d5c;}.cls-25{fill:#1c9850;}.cls-26{fill:#d73227;}.cls-27{font-size:9px;}</style></defs><title>pres_slides_svg</title><g id="timeofday"><g id="Bikes"><text class="cls-1" transform="translate(36 548.69) scale(1.05 1)">All Bic<tspan class="cls-2" x="86.38" y="0">y</tspan><tspan x="101.84" y="0">cle Crash Cases:</tspan><tspan x="0" y="33.06">Age G</tspan><tspan class="cls-3" x="76.09" y="33.06">r</tspan><tspan x="87.22" y="33.06">oup &amp; Ti</tspan><tspan class="cls-4" x="193.46" y="33.06">m</tspan><tspan class="cls-5" x="219.35" y="33.06">e of D</tspan><tspan class="cls-6" x="292.2" y="33.06">a</tspan><tspan class="cls-5" x="307.17" y="33.06">y</tspan></text><line class="cls-7" x1="90.79" y1="481.61" x2="90.79" y2="151.94"/><line class="cls-7" x1="79.83" y1="429.16" x2="704.17" y2="429.16"/><line class="cls-7" x1="79.83" y1="354.24" x2="704.17" y2="354.24"/><line class="cls-7" x1="79.83" y1="279.31" x2="704.17" y2="279.31"/><line class="cls-7" x1="79.83" y1="204.39" x2="704.17" y2="204.39"/><line class="cls-7" x1="137.46" y1="481.61" x2="137.46" y2="151.94"/><line class="cls-7" x1="184.12" y1="481.61" x2="184.12" y2="151.94"/><line class="cls-7" x1="230.79" y1="481.61" x2="230.79" y2="151.94"/><line class="cls-7" x1="277.46" y1="481.61" x2="277.46" y2="151.94"/><line class="cls-7" x1="324.13" y1="481.61" x2="324.13" y2="151.94"/><line class="cls-7" x1="370.8" y1="481.61" x2="370.8" y2="151.94"/><line class="cls-7" x1="417.47" y1="481.61" x2="417.47" y2="151.94"/><line class="cls-7" x1="464.14" y1="481.61" x2="464.14" y2="151.94"/><line class="cls-7" x1="510.81" y1="481.61" x2="510.81" y2="151.94"/><line class="cls-7" x1="557.48" y1="481.61" x2="557.48" y2="151.94"/><line class="cls-7" x1="604.15" y1="481.61" x2="604.15" y2="151.94"/><line class="cls-7" x1="650.82" y1="481.61" x2="650.82" y2="151.94"/><line class="cls-7" x1="697.49" y1="481.61" x2="697.49" y2="151.94"/><line class="cls-8" x1="79.83" y1="466.63" x2="704.17" y2="466.63"/><line class="cls-8" x1="79.83" y1="391.7" x2="704.17" y2="391.7"/><line class="cls-8" x1="79.83" y1="316.78" x2="704.17" y2="316.78"/><line class="cls-8" x1="79.83" y1="241.85" x2="704.17" y2="241.85"/><line class="cls-8" x1="79.83" y1="166.93" x2="704.17" y2="166.93"/><line class="cls-8" x1="114.12" y1="481.61" x2="114.12" y2="151.94"/><line class="cls-8" x1="160.79" y1="481.61" x2="160.79" y2="151.94"/><line class="cls-8" x1="207.46" y1="481.61" x2="207.46" y2="151.94"/><line class="cls-8" x1="254.13" y1="481.61" x2="254.13" y2="151.94"/><line class="cls-8" x1="300.8" y1="481.61" x2="300.8" y2="151.94"/><line class="cls-8" x1="347.47" y1="481.61" x2="347.47" y2="151.94"/><line class="cls-8" x1="394.14" y1="481.61" x2="394.14" y2="151.94"/><line class="cls-8" x1="440.81" y1="481.61" x2="440.81" y2="151.94"/><line class="cls-8" x1="487.48" y1="481.61" x2="487.48" y2="151.94"/><line class="cls-8" x1="534.15" y1="481.61" x2="534.15" y2="151.94"/><line class="cls-8" x1="580.82" y1="481.61" x2="580.82" y2="151.94"/><line class="cls-8" x1="627.48" y1="481.61" x2="627.48" y2="151.94"/><line class="cls-8" x1="674.16" y1="481.61" x2="674.16" y2="151.94"/><text class="cls-9" transform="translate(75.09 467.36)">0%</text><text class="cls-9" transform="translate(98.98 490.97) rotate(-30)">00:01</text><text class="cls-9" transform="translate(144.7 491.35) rotate(-30)">02:00</text><text class="cls-9" transform="translate(190.75 491.47) rotate(-30)">04:00</text><text class="cls-9" transform="translate(236.74 491.33) rotate(-30)">06:00</text><text class="cls-9" transform="translate(283.77 491.38) rotate(-30)">08:00</text><text class="cls-9" transform="translate(330.48 490.97) rotate(-30)">10:00</text><text class="cls-9" transform="translate(377.38 491.03) rotate(-30)">12:00</text><text class="cls-9" transform="translate(423.67 491.15) rotate(-30)">14:00</text><text class="cls-9" transform="translate(470.41 491.01) rotate(-30)">16:00</text><text class="cls-9" transform="translate(516.99 491.06) rotate(-30)">18:00</text><text class="cls-9" transform="translate(562.74 491.35) rotate(-30)">20:00</text><text class="cls-9" transform="translate(608.89 491.41) rotate(-30)">22:00</text><text class="cls-9" transform="translate(655.54 491.32) rotate(-30)">23:59</text><text class="cls-9" transform="translate(68.55 392.63)">25%</text><text class="cls-9" transform="translate(68.67 317.9)">50%</text><text class="cls-9" transform="translate(69.06 243.17)">75%</text><text class="cls-9" transform="translate(62.44 168.44)">100%</text><text class="cls-10" transform="translate(83.49 511.69)">Ti<tspan class="cls-11" x="13.33" y="0">m</tspan><tspan class="cls-12" x="26.45" y="0">e of t</tspan><tspan class="cls-13" x="58.79" y="0">h</tspan><tspan x="67.73" y="0">e D</tspan><tspan class="cls-14" x="88.36" y="0">a</tspan><tspan x="95.95" y="0">y: 30 minute inte</tspan><tspan class="cls-15" x="206.63" y="0">r</tspan><tspan class="cls-14" x="212.53" y="0">v</tspan><tspan x="220.21" y="0">als</tspan></text><text class="cls-10" transform="translate(48.39 475.52) rotate(-90)"><tspan class="cls-16">P</tspan><tspan x="8.78" y="0">e</tspan><tspan class="cls-17" x="16.28" y="0">r</tspan><tspan x="21.92" y="0">centage</tspan></text><line class="cls-8" x1="79.5" y1="149.5" x2="704.03" y2="149.5"/><rect class="cls-18" x="107.88" y="147.97" width="11.83" height="1.53"/><rect class="cls-18" x="119.71" y="147.97" width="11.83" height="1.53"/><rect class="cls-18" x="131.54" y="141.84" width="11.83" height="7.65"/><rect class="cls-18" x="143.37" y="147.97" width="11.83" height="1.53"/><rect class="cls-18" x="155.2" y="144.91" width="11.83" height="4.59"/><rect class="cls-18" x="167.03" y="147.97" width="11.82" height="1.53"/><rect class="cls-18" x="178.85" y="147.97" width="11.83" height="1.53"/><rect class="cls-18" x="190.68" y="146.44" width="11.83" height="3.06"/><rect class="cls-18" x="202.51" y="146.44" width="11.83" height="3.06"/><rect class="cls-18" x="214.34" y="147.97" width="11.83" height="1.53"/><rect class="cls-18" x="226.17" y="147.97" width="11.83" height="1.53"/><rect class="cls-18" x="237.99" y="141.84" width="11.83" height="7.65"/><rect class="cls-18" x="249.82" y="143.38" width="11.82" height="6.12"/><rect class="cls-18" x="261.65" y="121.95" width="11.83" height="27.55"/><rect class="cls-18" x="273.48" y="114.3" width="11.83" height="35.2"/><rect class="cls-18" x="285.31" y="94.4" width="11.83" height="55.1"/><rect class="cls-18" x="297.14" y="85.22" width="11.83" height="64.28"/><rect class="cls-18" x="308.96" y="79.09" width="11.83" height="70.41"/><rect class="cls-18" x="320.79" y="89.81" width="11.83" height="59.69"/><rect class="cls-18" x="332.62" y="114.3" width="11.83" height="35.2"/><rect class="cls-18" x="344.45" y="94.4" width="11.83" height="55.1"/><rect class="cls-18" x="356.28" y="102.05" width="11.83" height="47.45"/><rect class="cls-18" x="368.11" y="95.93" width="11.83" height="53.57"/><rect class="cls-18" x="379.94" y="77.56" width="11.83" height="71.94"/><rect class="cls-18" x="391.76" y="98.99" width="11.83" height="50.51"/><rect class="cls-18" x="403.59" y="91.34" width="11.83" height="58.16"/><rect class="cls-18" x="415.42" y="91.34" width="11.83" height="58.16"/><rect class="cls-18" x="427.25" y="86.75" width="11.83" height="62.75"/><rect class="cls-18" x="439.08" y="80.62" width="11.83" height="68.88"/><rect class="cls-18" x="450.91" y="66.85" width="11.83" height="82.65"/><rect class="cls-18" x="462.73" y="48.48" width="11.83" height="101.02"/><rect class="cls-18" x="474.56" y="76.03" width="11.83" height="73.47"/><rect class="cls-18" x="486.39" y="27.05" width="11.83" height="122.44"/><rect class="cls-18" x="498.22" y="50.01" width="11.83" height="99.49"/><rect class="cls-18" x="510.05" y="30.11" width="11.83" height="119.38"/><rect class="cls-18" x="521.88" y="43.89" width="11.83" height="105.61"/><rect class="cls-18" x="533.7" y="59.19" width="11.83" height="90.3"/><rect class="cls-18" x="545.53" y="65.32" width="11.83" height="84.18"/><rect class="cls-18" x="557.36" y="80.62" width="11.83" height="68.88"/><rect class="cls-18" x="569.19" y="92.87" width="11.83" height="56.63"/><rect class="cls-18" x="581.02" y="97.46" width="11.83" height="52.04"/><rect class="cls-18" x="592.85" y="115.83" width="11.83" height="33.67"/><rect class="cls-18" x="604.67" y="118.89" width="11.82" height="30.61"/><rect class="cls-18" x="616.5" y="126.54" width="11.83" height="22.96"/><rect class="cls-18" x="628.33" y="128.07" width="11.83" height="21.43"/><rect class="cls-18" x="640.16" y="135.72" width="11.83" height="13.77"/><rect class="cls-18" x="651.99" y="134.19" width="11.83" height="15.3"/><rect class="cls-18" x="663.82" y="143.38" width="11.83" height="6.12"/><text class="cls-19" transform="translate(70.68 150.14)">0</text><text class="cls-19" transform="translate(64.71 119.52)">20</text><text class="cls-19" transform="translate(64.47 88.91)">40</text><text class="cls-19" transform="translate(64.76 58.3)">60</text><rect class="cls-20" x="108.2" y="166.93" width="11.83" height="299.71"/><rect class="cls-20" x="120.03" y="166.93" width="11.83" height="299.71"/><rect class="cls-20" x="131.86" y="346.75" width="11.83" height="119.89"/><rect class="cls-21" x="131.86" y="226.87" width="11.83" height="119.89"/><rect class="cls-22" x="131.86" y="166.93" width="11.83" height="59.94"/><rect class="cls-23" x="143.69" y="166.93" width="11.83" height="299.71"/><rect class="cls-21" x="155.52" y="366.73" width="11.83" height="99.9"/><rect class="cls-22" x="155.52" y="166.93" width="11.83" height="199.81"/><rect class="cls-23" x="167.34" y="166.93" width="11.83" height="299.71"/><rect class="cls-20" x="179.17" y="166.93" width="11.83" height="299.71"/><rect class="cls-21" x="191" y="166.93" width="11.83" height="299.71"/><rect class="cls-20" x="202.82" y="316.78" width="11.83" height="149.86"/><rect class="cls-21" x="202.82" y="166.93" width="11.83" height="149.86"/><rect class="cls-23" x="214.65" y="166.93" width="11.83" height="299.71"/><rect class="cls-23" x="226.48" y="166.93" width="11.83" height="299.71"/><rect class="cls-23" x="238.3" y="406.7" width="11.83" height="59.94"/><rect class="cls-20" x="238.3" y="166.93" width="11.83" height="239.77"/><rect class="cls-23" x="250.13" y="316.78" width="11.83" height="149.86"/><rect class="cls-20" x="250.13" y="166.93" width="11.83" height="149.86"/><rect class="cls-23" x="261.96" y="366.73" width="11.83" height="99.9"/><rect class="cls-20" x="261.96" y="250.18" width="11.83" height="116.56"/><rect class="cls-21" x="261.96" y="183.58" width="11.83" height="66.6"/><rect class="cls-24" x="261.96" y="166.93" width="11.83" height="16.65"/><rect class="cls-23" x="273.79" y="414.52" width="11.83" height="52.12"/><rect class="cls-20" x="273.79" y="362.39" width="11.83" height="52.12"/><rect class="cls-21" x="273.79" y="219.05" width="11.83" height="143.34"/><rect class="cls-24" x="273.79" y="166.93" width="11.83" height="52.12"/><rect class="cls-25" x="285.62" y="458.32" width="11.83" height="8.32"/><rect class="cls-23" x="285.62" y="425.01" width="11.83" height="33.3"/><rect class="cls-20" x="285.62" y="333.43" width="11.83" height="91.58"/><rect class="cls-21" x="285.62" y="241.86" width="11.83" height="91.58"/><rect class="cls-22" x="285.62" y="216.88" width="11.83" height="24.98"/><rect class="cls-24" x="285.62" y="166.93" width="11.83" height="49.95"/><rect class="cls-25" x="297.45" y="459.5" width="11.83" height="7.14"/><rect class="cls-23" x="297.45" y="416.69" width="11.83" height="42.82"/><rect class="cls-20" x="297.45" y="295.37" width="11.83" height="121.31"/><rect class="cls-21" x="297.45" y="195.47" width="11.83" height="99.9"/><rect class="cls-22" x="297.45" y="174.06" width="11.83" height="21.41"/><rect class="cls-24" x="297.45" y="166.93" width="11.83" height="7.14"/><rect class="cls-25" x="309.27" y="460.12" width="11.83" height="6.52"/><rect class="cls-23" x="309.27" y="408" width="11.83" height="52.13"/><rect class="cls-20" x="309.27" y="329.81" width="11.83" height="78.18"/><rect class="cls-21" x="309.27" y="199.5" width="11.83" height="130.31"/><rect class="cls-22" x="309.27" y="179.96" width="11.83" height="19.55"/><rect class="cls-24" x="309.27" y="166.93" width="11.83" height="13.03"/><rect class="cls-25" x="321.1" y="458.96" width="11.83" height="7.69"/><rect class="cls-23" x="321.1" y="405.16" width="11.83" height="53.79"/><rect class="cls-20" x="321.1" y="289.89" width="11.83" height="115.27"/><rect class="cls-21" x="321.1" y="197.66" width="11.83" height="92.22"/><rect class="cls-22" x="321.1" y="174.61" width="11.83" height="23.06"/><rect class="cls-24" x="321.1" y="166.93" width="11.83" height="7.69"/><rect class="cls-23" x="332.93" y="388.45" width="11.83" height="78.18"/><rect class="cls-20" x="332.93" y="310.27" width="11.83" height="78.18"/><rect class="cls-21" x="332.93" y="206.02" width="11.83" height="104.25"/><rect class="cls-24" x="332.93" y="166.93" width="11.83" height="39.09"/><rect class="cls-23" x="344.76" y="400.04" width="11.83" height="66.6"/><rect class="cls-20" x="344.76" y="291.8" width="11.83" height="108.23"/><rect class="cls-21" x="344.76" y="216.88" width="11.83" height="74.93"/><rect class="cls-22" x="344.76" y="200.23" width="11.83" height="16.65"/><rect class="cls-24" x="344.76" y="166.93" width="11.83" height="33.3"/><rect class="cls-23" x="356.58" y="389.29" width="11.83" height="77.35"/><rect class="cls-20" x="356.58" y="292.61" width="11.83" height="96.68"/><rect class="cls-21" x="356.58" y="205.6" width="11.83" height="87.01"/><rect class="cls-22" x="356.58" y="195.93" width="11.83" height="9.67"/><rect class="cls-24" x="356.58" y="166.93" width="11.83" height="29"/><rect class="cls-25" x="368.41" y="458.08" width="11.83" height="8.56"/><rect class="cls-23" x="368.41" y="406.7" width="11.83" height="51.38"/><rect class="cls-20" x="368.41" y="312.5" width="11.83" height="94.19"/><rect class="cls-21" x="368.41" y="201.18" width="11.83" height="111.32"/><rect class="cls-22" x="368.41" y="184.05" width="11.83" height="17.13"/><rect class="cls-24" x="368.41" y="166.93" width="11.83" height="17.13"/><rect class="cls-25" x="380.24" y="460.26" width="11.83" height="6.38"/><rect class="cls-23" x="380.24" y="402.87" width="11.83" height="57.39"/><rect class="cls-20" x="380.24" y="294.47" width="11.83" height="108.41"/><rect class="cls-21" x="380.24" y="224.32" width="11.83" height="70.15"/><rect class="cls-22" x="380.24" y="205.19" width="11.83" height="19.13"/><rect class="cls-24" x="380.24" y="166.93" width="11.83" height="38.26"/><rect class="cls-23" x="392.07" y="421.22" width="11.83" height="45.41"/><rect class="cls-20" x="392.07" y="366.73" width="11.83" height="54.49"/><rect class="cls-21" x="392.07" y="230.5" width="11.83" height="136.23"/><rect class="cls-22" x="392.07" y="203.25" width="11.83" height="27.25"/><rect class="cls-24" x="392.07" y="166.93" width="11.83" height="36.33"/><rect class="cls-23" x="403.9" y="427.2" width="11.83" height="39.43"/><rect class="cls-20" x="403.9" y="348.33" width="11.83" height="78.87"/><rect class="cls-21" x="403.9" y="277.34" width="11.83" height="70.98"/><rect class="cls-22" x="403.9" y="237.91" width="11.83" height="39.43"/><rect class="cls-24" x="403.9" y="174.81" width="11.83" height="63.1"/><rect class="cls-26" x="403.9" y="166.93" width="11.83" height="7.89"/><rect class="cls-23" x="415.73" y="419.32" width="11.83" height="47.32"/><rect class="cls-20" x="415.73" y="293.12" width="11.83" height="126.19"/><rect class="cls-21" x="415.73" y="222.14" width="11.83" height="70.98"/><rect class="cls-22" x="415.73" y="198.47" width="11.83" height="23.66"/><rect class="cls-24" x="415.73" y="166.93" width="11.83" height="31.55"/><rect class="cls-23" x="427.55" y="422.78" width="11.83" height="43.86"/><rect class="cls-20" x="427.55" y="364.3" width="11.83" height="58.48"/><rect class="cls-21" x="427.55" y="261.96" width="11.83" height="102.34"/><rect class="cls-22" x="427.55" y="218.1" width="11.83" height="43.86"/><rect class="cls-24" x="427.55" y="166.93" width="11.83" height="51.17"/><rect class="cls-23" x="439.38" y="459.98" width="11.83" height="6.66"/><rect class="cls-20" x="439.38" y="406.7" width="11.83" height="53.28"/><rect class="cls-21" x="439.38" y="320.11" width="11.83" height="86.58"/><rect class="cls-22" x="439.38" y="293.47" width="11.83" height="26.64"/><rect class="cls-24" x="439.38" y="166.93" width="11.83" height="126.55"/><rect class="cls-23" x="451.21" y="405.59" width="11.83" height="61.05"/><rect class="cls-20" x="451.21" y="333.43" width="11.83" height="72.15"/><rect class="cls-21" x="451.21" y="311.23" width="11.83" height="22.2"/><rect class="cls-22" x="451.21" y="261.28" width="11.83" height="49.95"/><rect class="cls-24" x="451.21" y="172.48" width="11.83" height="88.8"/><rect class="cls-26" x="451.21" y="166.93" width="11.83" height="5.55"/><rect class="cls-25" x="463.04" y="462.1" width="11.83" height="4.54"/><rect class="cls-23" x="463.04" y="434.85" width="11.83" height="27.25"/><rect class="cls-20" x="463.04" y="389.44" width="11.83" height="45.41"/><rect class="cls-21" x="463.04" y="285" width="11.83" height="104.45"/><rect class="cls-22" x="463.04" y="225.96" width="11.83" height="59.04"/><rect class="cls-24" x="463.04" y="171.47" width="11.83" height="54.49"/><rect class="cls-26" x="463.04" y="166.93" width="11.83" height="4.54"/><rect class="cls-25" x="474.87" y="460.4" width="11.83" height="6.24"/><rect class="cls-23" x="474.87" y="422.93" width="11.83" height="37.46"/><rect class="cls-20" x="474.87" y="348" width="11.83" height="74.93"/><rect class="cls-21" x="474.87" y="279.32" width="11.83" height="68.68"/><rect class="cls-22" x="474.87" y="210.63" width="11.83" height="68.69"/><rect class="cls-24" x="474.87" y="166.93" width="11.83" height="43.71"/><rect class="cls-23" x="486.69" y="425.43" width="11.83" height="41.21"/><rect class="cls-20" x="486.69" y="369.23" width="11.83" height="56.2"/><rect class="cls-21" x="486.69" y="298.05" width="11.83" height="71.18"/><rect class="cls-22" x="486.69" y="256.84" width="11.83" height="41.21"/><rect class="cls-24" x="486.69" y="166.93" width="11.83" height="89.91"/><rect class="cls-25" x="498.52" y="462.03" width="11.83" height="4.61"/><rect class="cls-23" x="498.52" y="425.14" width="11.83" height="36.89"/><rect class="cls-20" x="498.52" y="369.81" width="11.83" height="55.33"/><rect class="cls-21" x="498.52" y="309.87" width="11.83" height="59.94"/><rect class="cls-22" x="498.52" y="282.2" width="11.83" height="27.67"/><rect class="cls-24" x="498.52" y="171.54" width="11.83" height="110.66"/><rect class="cls-26" x="498.52" y="166.93" width="11.83" height="4.61"/><rect class="cls-23" x="510.35" y="432.06" width="11.83" height="34.58"/><rect class="cls-20" x="510.35" y="393.63" width="11.83" height="38.42"/><rect class="cls-21" x="510.35" y="320.62" width="11.83" height="73.01"/><rect class="cls-22" x="510.35" y="282.2" width="11.83" height="38.42"/><rect class="cls-24" x="510.35" y="170.77" width="11.83" height="111.43"/><rect class="cls-26" x="510.35" y="166.93" width="11.83" height="3.84"/><rect class="cls-23" x="522.17" y="427.55" width="11.83" height="39.09"/><rect class="cls-20" x="522.17" y="345.02" width="11.83" height="82.53"/><rect class="cls-21" x="522.17" y="292.89" width="11.83" height="52.13"/><rect class="cls-22" x="522.17" y="249.46" width="11.83" height="43.44"/><rect class="cls-24" x="522.17" y="171.27" width="11.83" height="78.18"/><rect class="cls-26" x="522.17" y="166.93" width="11.83" height="4.35"/><rect class="cls-25" x="534" y="461.56" width="11.83" height="5.08"/><rect class="cls-23" x="534" y="436.16" width="11.83" height="25.4"/><rect class="cls-20" x="534" y="349.8" width="11.83" height="86.36"/><rect class="cls-21" x="534" y="258.36" width="11.83" height="91.44"/><rect class="cls-22" x="534" y="243.12" width="11.83" height="15.24"/><rect class="cls-24" x="534" y="166.93" width="11.83" height="76.2"/><rect class="cls-23" x="545.83" y="417.59" width="11.83" height="49.04"/><rect class="cls-20" x="545.83" y="374" width="11.83" height="43.6"/><rect class="cls-21" x="545.83" y="275.91" width="11.83" height="98.09"/><rect class="cls-22" x="545.83" y="243.22" width="11.83" height="32.69"/><rect class="cls-24" x="545.83" y="166.93" width="11.83" height="76.29"/><rect class="cls-23" x="557.65" y="426.68" width="11.83" height="39.96"/><rect class="cls-20" x="557.65" y="353.41" width="11.83" height="73.27"/><rect class="cls-21" x="557.65" y="260.17" width="11.83" height="93.24"/><rect class="cls-22" x="557.65" y="213.55" width="11.83" height="46.62"/><rect class="cls-24" x="557.65" y="166.93" width="11.83" height="46.62"/><rect class="cls-25" x="569.48" y="450.44" width="11.83" height="16.2"/><rect class="cls-23" x="569.48" y="426.14" width="11.83" height="24.3"/><rect class="cls-20" x="569.48" y="377.53" width="11.83" height="48.6"/><rect class="cls-21" x="569.48" y="231.73" width="11.83" height="145.81"/><rect class="cls-22" x="569.48" y="215.53" width="11.83" height="16.2"/><rect class="cls-24" x="569.48" y="166.93" width="11.83" height="48.6"/><rect class="cls-23" x="581.31" y="440.19" width="11.83" height="26.45"/><rect class="cls-20" x="581.31" y="343.23" width="11.83" height="96.96"/><rect class="cls-21" x="581.31" y="290.34" width="11.83" height="52.89"/><rect class="cls-22" x="581.31" y="255.08" width="11.83" height="35.26"/><rect class="cls-24" x="581.31" y="184.56" width="11.83" height="70.52"/><rect class="cls-26" x="581.31" y="166.93" width="11.83" height="17.63"/><rect class="cls-20" x="593.14" y="357.66" width="11.83" height="108.99"/><rect class="cls-21" x="593.14" y="248.66" width="11.83" height="108.99"/><rect class="cls-22" x="593.14" y="221.42" width="11.83" height="27.25"/><rect class="cls-24" x="593.14" y="166.93" width="11.83" height="54.49"/><rect class="cls-23" x="604.97" y="451.66" width="11.83" height="14.99"/><rect class="cls-20" x="604.97" y="316.78" width="11.83" height="134.87"/><rect class="cls-21" x="604.97" y="226.87" width="11.83" height="89.91"/><rect class="cls-22" x="604.97" y="181.91" width="11.83" height="44.96"/><rect class="cls-24" x="604.97" y="166.93" width="11.83" height="14.98"/><rect class="cls-20" x="616.79" y="406.7" width="11.83" height="59.94"/><rect class="cls-21" x="616.79" y="286.81" width="11.83" height="119.89"/><rect class="cls-22" x="616.79" y="246.85" width="11.83" height="39.96"/><rect class="cls-24" x="616.79" y="166.93" width="11.83" height="79.92"/><rect class="cls-23" x="628.62" y="423.82" width="11.83" height="42.82"/><rect class="cls-20" x="628.62" y="359.6" width="11.83" height="64.22"/><rect class="cls-21" x="628.62" y="316.78" width="11.83" height="42.82"/><rect class="cls-22" x="628.62" y="231.15" width="11.83" height="85.63"/><rect class="cls-24" x="628.62" y="166.93" width="11.83" height="64.23"/><rect class="cls-20" x="640.45" y="333.43" width="11.83" height="133.21"/><rect class="cls-21" x="640.45" y="200.23" width="11.83" height="133.21"/><rect class="cls-22" x="640.45" y="166.93" width="11.83" height="33.3"/><rect class="cls-20" x="652.28" y="436.67" width="11.83" height="29.97"/><rect class="cls-21" x="652.28" y="256.84" width="11.83" height="179.83"/><rect class="cls-22" x="652.28" y="166.93" width="11.83" height="89.91"/><rect class="cls-21" x="664.11" y="241.86" width="11.83" height="224.78"/><rect class="cls-22" x="664.11" y="166.93" width="11.83" height="74.93"/><rect class="cls-26" x="681.31" y="384.98" width="12.13" height="8.95"/><rect class="cls-24" x="681.31" y="396.97" width="12.13" height="8.94"/><rect class="cls-22" x="681.31" y="408.89" width="12.13" height="8.94"/><rect class="cls-21" x="681.31" y="420.84" width="12.13" height="8.94"/><rect class="cls-20" x="681.31" y="432.79" width="12.13" height="8.94"/><rect class="cls-23" x="681.31" y="444.74" width="12.13" height="8.95"/><rect class="cls-25" x="681.31" y="456.69" width="12.13" height="8.94"/><text class="cls-27" transform="translate(699.91 392.91)">Younger than 6</text><text class="cls-27" transform="translate(699.91 404.89)">6 to 15</text><text class="cls-27" transform="translate(699.91 416.81)">16 to 20</text><text class="cls-27" transform="translate(699.91 428.76)">21 to 34</text><text class="cls-27" transform="translate(699.91 440.72)">35 to 54</text><text class="cls-27" transform="translate(699.91 452.67)">55 to 74</text><text class="cls-27" transform="translate(699.91 464.62)">Older than 74</text></g></g></svg>