<svg xmlns="http://www.w3.org/2000/svg" viewBox="0 0 792 612"><defs><style>.cls-1{fill:#8db936;}.cls-1,.cls-2,.cls-3,.cls-4,.cls-5{stroke:#f1f2f2;}.cls-1,.cls-12,.cls-2,.cls-3,.cls-4,.cls-5{stroke-linecap:round;stroke-linejoin:round;stroke-width:2px;}.cls-2{fill:#bccd30;}.cls-3{fill:#969f3c;}.cls-4{fill:#dcb680;}.cls-12,.cls-5{fill:#fff;}.cls-6{font-size:21px;fill:#414042;}.cls-11,.cls-19,.cls-20,.cls-6{font-family:RobotoSlab-Regular, Roboto Slab;}.cls-7{letter-spacing:-0.02em;}.cls-8{letter-spacing:-0.01em;}.cls-9{letter-spacing:-0.01em;}.cls-10{letter-spacing:-0.01em;}.cls-11,.cls-19,.cls-27{opacity:0.4;}.cls-11{font-size:61.45px;}.cls-11,.cls-19,.cls-20,.cls-26,.cls-30,.cls-33{fill:#231f20;}.cls-12{stroke:#fff;}.cls-13{letter-spacing:-0.02em;}.cls-14{letter-spacing:0em;}.cls-15{letter-spacing:-0.01em;}.cls-16{letter-spacing:-0.01em;}.cls-17{letter-spacing:-0.01em;}.cls-18{letter-spacing:-0.01em;}.cls-19{font-size:50.54px;}.cls-20{font-size:27.55px;}.cls-21{letter-spacing:-0.01em;}.cls-22{letter-spacing:0em;}.cls-23{letter-spacing:0em;}.cls-24{letter-spacing:-0.02em;}.cls-25{letter-spacing:-0.04em;}.cls-26{font-size:13.75px;}.cls-26,.cls-33{font-family:NewsCycle, News Cycle;}.cls-28,.cls-29,.cls-31,.cls-32{fill:none;stroke:#231f20;stroke-miterlimit:10;}.cls-29{stroke-dasharray:4.62 1.85;}.cls-31{stroke-dasharray:4.99 2;}.cls-32{stroke-dasharray:5.65 2.26;}.cls-33{font-size:16.44px;}</style></defs><title>pres_slides_svg</title><g id="Bikes-3" data-name="Bikes"><polygon class="cls-1" points="225.18 207.76 231.66 208.53 238.15 209.3 244.65 210.02 251.1 210.78 257.58 211.55 264.07 212.31 270.56 213.09 277.05 213.85 283.53 214.62 290.04 215.35 296.52 216.12 303.01 216.89 309.5 217.66 315.99 218.43 322.48 219.2 328.92 219.95 335.42 220.68 341.91 221.44 348.4 222.21 354.88 222.98 361.37 223.75 367.86 224.52 374.35 225.29 380.85 226.02 387.34 226.79 393.82 227.56 400.27 228.31 406.76 229.08 413.24 229.85 413.89 223.42 414.36 216.97 414.52 210.53 414.5 204.07 414.28 197.63 413.85 191.23 413.18 184.8 412.26 178.38 411.17 172.04 409.83 165.73 408.27 159.48 406.55 153.28 404.57 147.09 402.41 141.03 400.03 135.04 397.47 129.15 394.69 123.32 391.69 117.56 388.55 111.96 385.17 106.47 381.66 101.08 377.91 95.81 374.03 90.64 369.95 85.64 365.71 80.79 361.29 76.07 356.72 71.5 352.03 67.13 347.15 62.9 342.13 58.81 336.98 54.92 331.74 51.2 326.33 47.66 320.82 44.29 315.23 41.13 309.48 38.17 303.68 35.38 297.74 32.84 291.75 30.43 285.68 28.29 283.59 34.48 281.5 40.67 279.42 46.86 277.33 53.05 275.25 59.24 273.16 65.43 271.07 71.62 268.98 77.81 266.9 84 264.81 90.19 262.72 96.38 260.64 102.57 258.55 108.76 256.48 114.91 254.39 121.09 252.3 127.29 250.22 133.48 248.13 139.67 246.04 145.86 243.96 152.05 241.87 158.24 239.78 164.43 237.7 170.62 235.61 176.81 233.52 183 231.44 189.19 229.35 195.38 227.26 201.57 225.18 207.76 225.18 207.76"/><polygon class="cls-2" points="225.18 207.76 225.18 201.21 225.13 194.69 225.14 188.14 225.13 181.64 225.09 175.07 225.09 168.57 225.1 162.02 225.09 155.51 225.05 148.95 225.04 142.45 225.05 135.9 225 129.38 225 122.87 225 116.32 225 109.82 224.96 103.25 224.95 96.75 224.96 90.2 224.95 83.69 224.92 77.13 224.91 70.63 224.92 64.08 224.87 57.56 224.87 51.01 224.87 44.5 224.88 37.95 224.82 31.43 224.83 24.89 224.82 18.38 218.38 18.5 211.96 18.83 205.51 19.4 199.13 20.18 192.74 21.16 186.42 22.35 180.12 23.8 173.9 25.42 167.74 27.3 161.63 29.34 155.58 31.61 149.67 34.06 143.79 36.73 138.02 39.62 132.34 42.69 126.81 45.91 121.34 49.35 116.01 52.98 110.81 56.8 105.72 60.76 100.79 64.91 96.02 69.22 91.37 73.72 86.89 78.31 82.58 83.12 78.43 88.03 74.43 93.08 70.61 98.3 66.97 103.62 63.52 109.06 60.27 114.61 57.19 120.28 54.32 126.05 51.62 131.89 49.16 137.86 46.88 143.89 44.79 149.97 42.95 156.15 41.28 162.39 39.86 168.65 38.65 174.99 37.63 181.35 36.85 187.73 36.24 194.18 35.92 200.62 35.77 207.02 35.88 213.51 36.16 219.92 36.69 226.35 37.41 232.76 38.4 239.1 39.58 245.47 40.98 251.76 42.54 258 44.37 264.19 46.41 270.31 48.63 276.34 51.07 282.29 53.73 288.18 56.53 293.96 59.58 299.68 62.79 305.26 66.18 310.71 69.81 316.04 73.58 321.27 77.53 326.37 81.63 331.32 85.92 336.14 90.36 340.81 95 345.31 99.75 349.65 104.64 353.84 109.7 357.84 114.86 361.68 120.16 365.38 125.6 368.82 131.13 372.15 136.78 375.24 142.5 378.14 148.38 380.86 154.28 383.39 160.29 385.7 166.38 387.81 172.54 389.69 178.78 391.35 185.07 392.84 191.4 394.09 197.74 395.15 204.11 395.98 210.55 396.59 216.98 396.94 223.43 397.11 229.85 397.08 236.29 396.81 242.71 396.33 249.12 395.6 255.49 394.67 261.84 393.54 268.16 392.2 274.4 390.64 280.58 388.85 286.73 386.87 292.8 384.66 298.74 382.27 304.65 379.66 310.45 376.83 316.14 373.86 321.77 370.67 327.26 367.29 332.62 363.71 337.85 359.95 342.97 356.06 347.93 351.96 352.79 347.69 357.46 343.25 361.98 338.71 366.36 333.97 370.59 329.09 374.64 324.05 378.48 318.89 382.21 313.65 385.7 308.23 389.03 302.7 392.15 297.05 395.1 291.35 397.85 285.53 400.39 279.59 402.75 273.59 404.9 267.52 406.82 261.37 408.53 255.15 410.04 248.91 411.34 242.6 412.42 236.22 413.24 229.85 406.76 229.08 400.27 228.31 393.82 227.56 387.34 226.79 380.85 226.02 374.35 225.29 367.86 224.52 361.37 223.75 354.88 222.98 348.4 222.21 341.91 221.44 335.42 220.68 328.92 219.95 322.48 219.2 315.99 218.43 309.5 217.66 303.01 216.89 296.52 216.12 290.04 215.35 283.53 214.62 277.05 213.85 270.56 213.09 264.07 212.31 257.58 211.55 251.1 210.78 244.65 210.02 238.15 209.3 231.66 208.53 225.18 207.76 225.18 207.76"/><polygon class="cls-3" points="225.18 207.76 226.54 201.37 227.91 194.99 229.28 188.61 230.65 182.23 232.02 175.84 233.44 169.47 234.82 163.05 236.19 156.66 237.56 150.28 238.93 143.9 240.3 137.52 241.67 131.13 243.04 124.75 244.41 118.37 245.82 112 247.19 105.61 248.56 99.23 249.93 92.85 251.3 86.46 252.67 80.08 254.04 73.7 255.43 67.27 256.84 60.9 258.21 54.52 259.58 48.14 260.95 41.76 262.32 35.37 263.69 28.99 265.06 22.61 258.45 21.31 251.78 20.23 245.05 19.43 238.32 18.82 231.59 18.46 224.82 18.38 224.83 24.89 224.82 31.43 224.88 37.95 224.87 44.5 224.87 51.01 224.87 57.56 224.92 64.08 224.91 70.63 224.92 77.13 224.95 83.69 224.96 90.2 224.95 96.75 224.96 103.25 225 109.82 225 116.32 225 122.87 225 129.38 225.05 135.9 225.04 142.45 225.05 148.95 225.09 155.51 225.1 162.02 225.09 168.57 225.09 175.07 225.13 181.64 225.14 188.14 225.13 194.69 225.18 201.21 225.18 207.76 225.18 207.76"/><polygon class="cls-4" points="225.18 207.76 227.26 201.57 229.35 195.38 231.44 189.19 233.52 183 235.61 176.81 237.7 170.62 239.78 164.43 241.87 158.24 243.96 152.05 246.04 145.86 248.13 139.67 250.22 133.48 252.3 127.29 254.39 121.09 256.48 114.91 258.55 108.76 260.64 102.57 262.72 96.38 264.81 90.19 266.9 84 268.98 77.81 271.07 71.62 273.16 65.43 275.25 59.24 277.33 53.05 279.42 46.86 281.5 40.67 283.59 34.48 285.68 28.29 278.87 26.14 271.98 24.25 265.06 22.61 263.69 28.99 262.32 35.37 260.95 41.76 259.58 48.14 258.21 54.52 256.84 60.9 255.43 67.27 254.04 73.7 252.67 80.08 251.3 86.46 249.93 92.85 248.56 99.23 247.19 105.61 245.82 112 244.41 118.37 243.04 124.75 241.67 131.13 240.3 137.52 238.93 143.9 237.56 150.28 236.19 156.66 234.82 163.05 233.44 169.47 232.02 175.84 230.65 182.23 229.28 188.61 227.91 194.99 226.54 201.37 225.18 207.76 225.18 207.76"/><path class="cls-5" d="M221.34,326.21A118.52,118.52,0,1,1,343.63,211.59,118.5,118.5,0,0,1,221.34,326.21Z"/><text class="cls-6" transform="translate(199.52 230.74) scale(1.05 1)"><tspan class="cls-7">V</tspan><tspan x="14.62" y="0">ehicles</tspan><tspan x="0" y="25.2">In</tspan><tspan class="cls-8" x="20.3" y="25.2">v</tspan><tspan class="cls-9" x="31.87" y="25.2">o</tspan><tspan x="43.45" y="25.2">l</tspan><tspan class="cls-10" x="50.06" y="25.2">v</tspan><tspan x="61.65" y="25.2">ed</tspan></text><text class="cls-11" transform="translate(134.23 190.36)">1614</text><polygon class="cls-1" points="552.96 425.77 555.75 422.17 558.53 418.58 561.32 414.99 564.11 411.39 566.89 407.8 569.68 404.2 572.47 400.61 575.25 397.01 578.04 393.42 580.83 389.83 583.61 386.23 586.4 382.64 589.19 379.04 591.97 375.45 594.76 371.85 597.53 368.28 600.31 364.69 603.1 361.1 605.89 357.5 608.67 353.91 611.46 350.31 614.25 346.72 617.03 343.13 619.82 339.53 622.61 335.93 625.39 332.34 628.18 328.75 630.97 325.15 633.75 321.56 637.31 324.39 640.72 327.36 644.05 330.44 647.28 333.64 650.39 336.95 653.42 340.36 656.3 343.86 659.06 347.46 661.69 351.17 664.19 354.95 666.57 358.83 668.81 362.78 670.91 366.81 672.88 370.91 674.67 375.07 676.35 379.27 677.88 383.56 679.26 387.89 680.48 392.27 681.59 396.68 682.5 401.14 683.27 405.62 683.88 410.09 684.34 414.61 684.66 419.15 684.8 423.7 684.8 428.23 684.62 432.78 684.29 437.31 683.83 441.8 683.18 446.32 682.41 450.79 681.48 455.25 680.39 459.67 679.14 464.01 677.74 468.35 676.21 472.63 674.51 476.83 672.69 480.96 670.73 485.07 666.65 483.01 662.6 480.98 658.55 478.94 654.47 476.88 650.42 474.84 646.37 472.8 642.29 470.74 638.24 468.7 634.19 466.66 630.11 464.6 626.06 462.56 622.01 460.53 617.91 458.49 613.86 456.45 609.81 454.42 605.73 452.36 601.68 450.32 597.63 448.28 593.55 446.22 589.5 444.18 585.45 442.14 581.37 440.08 577.32 438.04 573.27 436 569.19 433.95 565.14 431.91 561.06 429.85 557.01 427.81 552.96 425.77 552.96 425.77"/><polygon class="cls-2" points="552.96 425.77 557.01 427.81 561.06 429.85 565.14 431.91 569.19 433.95 573.27 436 577.32 438.04 581.37 440.08 585.45 442.14 589.5 444.18 593.55 446.22 597.63 448.28 601.68 450.32 605.73 452.36 609.81 454.42 613.86 456.45 617.91 458.49 622.01 460.53 626.06 462.56 630.11 464.6 634.19 466.66 638.24 468.7 642.29 470.74 646.37 472.8 650.42 474.84 654.47 476.88 658.55 478.94 662.6 480.98 666.65 483.01 670.73 485.07 668.63 489.04 666.43 492.93 664.09 496.74 661.6 500.48 659.02 504.12 656.28 507.66 653.45 511.15 650.5 514.49 647.44 517.75 644.25 520.91 640.96 523.95 637.58 526.88 634.1 529.69 630.53 532.4 626.86 534.98 623.1 537.41 619.3 539.73 615.37 541.9 611.4 543.97 607.34 545.89 603.24 547.64 599.06 549.3 594.85 550.77 590.59 552.12 586.26 553.34 581.93 554.39 577.54 555.31 573.13 556.05 568.68 556.69 564.25 557.13 559.77 557.45 555.3 557.62 550.82 557.61 546.34 557.45 541.89 557.13 537.44 556.71 532.97 556.1 528.58 555.35 524.21 554.45 519.85 553.4 515.54 552.22 511.25 550.85 507.04 549.39 502.88 547.75 498.75 545.97 494.71 544.07 490.72 542 486.82 539.83 482.98 537.51 479.23 535.09 475.55 532.52 471.99 529.84 468.5 527.02 465.1 524.09 461.82 521.06 458.64 517.9 455.56 514.66 452.61 511.31 449.75 507.83 447.03 504.29 444.43 500.64 441.96 496.93 439.61 493.11 437.37 489.21 435.29 485.27 433.35 481.24 431.54 477.14 429.85 473.01 428.3 468.79 426.91 464.53 425.68 460.23 424.6 455.88 423.66 451.52 422.82 447.12 422.19 442.67 421.68 438.23 421.34 433.76 421.14 429.28 421.1 424.81 421.2 420.35 421.47 415.86 421.89 411.42 422.43 406.98 423.16 402.56 424.01 398.16 425.02 393.8 426.19 389.49 427.49 385.19 428.93 380.96 430.54 376.78 432.27 372.65 434.15 368.6 436.15 364.6 438.3 360.67 440.56 356.8 442.96 353.02 445.5 349.32 448.15 345.74 450.93 342.22 453.83 338.79 456.84 335.49 459.97 332.29 463.19 329.19 466.53 326.19 469.96 323.3 473.48 320.56 477.07 317.92 480.78 315.4 484.59 313.01 488.46 310.75 492.38 308.65 496.41 306.67 500.47 304.79 504.62 303.07 508.81 301.51 513.05 300.1 517.35 298.82 521.66 297.67 526.02 296.69 530.42 295.85 534.84 295.16 539.3 294.61 543.76 294.23 548.23 293.99 552.71 293.91 552.73 298.45 552.73 302.98 552.73 307.56 552.73 312.09 552.75 316.64 552.75 321.17 552.76 325.74 552.78 330.29 552.78 334.82 552.81 339.37 552.78 343.92 552.81 348.47 552.83 353.02 552.83 357.55 552.84 362.13 552.83 366.65 552.86 371.2 552.86 375.73 552.86 380.31 552.88 384.86 552.88 389.38 552.91 393.94 552.9 398.46 552.91 403.04 552.91 407.57 552.93 412.12 552.96 416.67 552.94 421.22 552.96 425.77 552.96 425.77"/><polygon class="cls-3" points="552.96 425.77 552.94 421.22 552.96 416.67 552.93 412.12 552.91 407.57 552.91 403.04 552.9 398.46 552.91 393.94 552.88 389.38 552.88 384.86 552.86 380.31 552.86 375.73 552.86 371.2 552.83 366.65 552.84 362.13 552.83 357.55 552.83 353.02 552.81 348.47 552.78 343.92 552.81 339.37 552.78 334.82 552.78 330.29 552.76 325.74 552.75 321.17 552.75 316.64 552.73 312.09 552.73 307.56 552.73 302.98 552.73 298.45 552.71 293.91 557.34 293.98 561.94 294.21 566.57 294.61 571.14 295.18 575.72 295.87 580.24 296.76 584.76 297.78 589.21 298.99 593.66 300.35 598.01 301.85 602.34 303.49 600.64 307.72 598.92 311.94 597.25 316.15 595.53 320.37 593.83 324.57 592.14 328.8 590.42 333.02 588.72 337.21 587.03 341.45 585.31 345.67 583.61 349.86 581.91 354.1 580.2 358.32 578.5 362.51 576.8 366.75 575.08 370.96 573.41 375.18 571.69 379.39 569.99 383.59 568.3 387.82 566.58 392.04 564.88 396.23 563.18 400.47 561.47 404.69 559.77 408.88 558.07 413.12 556.35 417.34 554.65 421.53 552.96 425.77 552.96 425.77"/><polygon class="cls-4" points="552.96 425.77 554.65 421.53 556.35 417.34 558.07 413.12 559.77 408.88 561.47 404.69 563.18 400.47 564.88 396.23 566.58 392.04 568.3 387.82 569.99 383.59 571.69 379.39 573.41 375.18 575.08 370.96 576.8 366.75 578.5 362.51 580.2 358.32 581.91 354.1 583.61 349.86 585.31 345.67 587.03 341.45 588.72 337.21 590.42 333.02 592.14 328.8 593.83 324.57 595.53 320.37 597.25 316.15 598.92 311.94 600.64 307.72 602.34 303.49 606.54 305.28 610.64 307.19 614.68 309.26 618.65 311.44 622.56 313.78 626.37 316.24 630.12 318.82 633.75 321.56 630.97 325.15 628.18 328.75 625.39 332.34 622.61 335.93 619.82 339.53 617.03 343.13 614.25 346.72 611.46 350.31 608.67 353.91 605.89 357.5 603.1 361.1 600.31 364.69 597.53 368.28 594.76 371.85 591.97 375.45 589.19 379.04 586.4 382.64 583.61 386.23 580.83 389.83 578.04 393.42 575.25 397.01 572.47 400.61 569.68 404.2 566.89 407.8 564.11 411.39 561.32 414.99 558.53 418.58 555.75 422.17 552.96 425.77 552.96 425.77"/><path class="cls-12" d="M509.22,495.92A82.67,82.67,0,1,0,482.81,382,82.67,82.67,0,0,0,509.22,495.92Z"/><text class="cls-6" transform="translate(535 442.51) scale(1.05 1)"><tspan class="cls-13">V<tspan class="cls-14" x="14.62" y="0">ehicles</tspan></tspan><tspan x="0" y="25.2">In</tspan><tspan class="cls-15" x="20.3" y="25.2">v</tspan><tspan class="cls-16" x="31.87" y="25.2">o</tspan><tspan x="43.45" y="25.2">l</tspan><tspan class="cls-17" x="50.06" y="25.2">v</tspan><tspan x="61.65" y="25.2">ed</tspan></text><text class="cls-6" transform="translate(583 267.04) scale(1.05 1)">Of which s<tspan class="cls-17" x="106.12" y="0">ev</tspan><tspan x="128.86" y="0">e</tspan><tspan class="cls-18" x="140.15" y="0">r</tspan><tspan x="148.64" y="0">e,</tspan></text><text class="cls-19" transform="translate(488.3 419.27)">114</text><text class="cls-20" transform="translate(35.35 551.69) scale(1.05 1)">Bic<tspan class="cls-21" x="42" y="0">y</tspan><tspan x="57.46" y="0">cle Cras</tspan><tspan class="cls-22" x="161.03" y="0">h</tspan><tspan class="cls-23" x="178.68" y="0">es: </tspan><tspan class="cls-24" x="0" y="33.06">V</tspan><tspan x="19.18" y="33.06">ehicle </tspan><tspan class="cls-25" x="106.02" y="33.06">T</tspan><tspan class="cls-23" x="122.33" y="33.06">ype</tspan></text><path class="cls-1" d="M446.14,136.8H480.9a7.7,7.7,0,0,1,7.7,7.7v9.13a7.69,7.69,0,0,1-7.69,7.69H446.14a7.69,7.69,0,0,1-7.69-7.69v-9.14A7.69,7.69,0,0,1,446.14,136.8Z"/><path class="cls-4" d="M446.14,59.88H480.9a7.7,7.7,0,0,1,7.7,7.7v9.13a7.69,7.69,0,0,1-7.69,7.69H446.14a7.69,7.69,0,0,1-7.69-7.69V67.58A7.69,7.69,0,0,1,446.14,59.88Z"/><path class="cls-3" d="M446.14,23.88H480.9a7.7,7.7,0,0,1,7.7,7.7v9.13a7.69,7.69,0,0,1-7.69,7.69H446.14a7.69,7.69,0,0,1-7.69-7.69V31.58A7.69,7.69,0,0,1,446.14,23.88Z"/><path class="cls-2" d="M446.14,251H480.9a7.7,7.7,0,0,1,7.7,7.7v9.13a7.69,7.69,0,0,1-7.69,7.69H446.14a7.69,7.69,0,0,1-7.69-7.69v-9.14A7.69,7.69,0,0,1,446.14,251Z"/><text class="cls-26" transform="translate(447.81 152.81) scale(1.05 1)">21.7%</text><text class="cls-26" transform="translate(451.18 75.9) scale(1.05 1)">1.8%</text><text class="cls-26" transform="translate(449.94 39.9) scale(1.05 1)">3.4%</text><text class="cls-26" transform="translate(447.84 267.04) scale(1.05 1)">73.1%</text><path class="cls-1" d="M713,378h35.39a7.7,7.7,0,0,1,7.7,7.7v9.13a7.69,7.69,0,0,1-7.69,7.69H713a7.69,7.69,0,0,1-7.69-7.69v-9.14A7.69,7.69,0,0,1,713,378Z"/><text class="cls-26" transform="translate(714.34 394.01) scale(1.05 1)">21.9%</text><path class="cls-4" d="M713,319.63h35.39a7.7,7.7,0,0,1,7.7,7.7v9.14a7.69,7.69,0,0,1-7.69,7.69H713a7.69,7.69,0,0,1-7.69-7.69v-9.14A7.7,7.7,0,0,1,713,319.63Z"/><text class="cls-26" transform="translate(716.75 335.64) scale(1.05 1)">4.4%</text><path class="cls-3" d="M713,289.59h35.39a7.7,7.7,0,0,1,7.7,7.7v9.13a7.7,7.7,0,0,1-7.7,7.7H713a7.69,7.69,0,0,1-7.69-7.69v-9.14A7.69,7.69,0,0,1,713,289.59Z"/><text class="cls-26" transform="translate(718.49 305.61) scale(1.05 1)">6.1%</text><path class="cls-2" d="M713,479.55h35.39a7.7,7.7,0,0,1,7.7,7.7v9.13a7.69,7.69,0,0,1-7.69,7.69H713a7.69,7.69,0,0,1-7.69-7.69v-9.14A7.69,7.69,0,0,1,713,479.55Z"/><text class="cls-26" transform="translate(714.06 495.57) scale(1.05 1)">67.6%</text></g><g id="Peds-2" data-name="Peds"><g id="ped_all-2" data-name="ped_all"><g class="cls-27"><line class="cls-28" x1="307.65" y1="37.29" x2="305.15" y2="37.29"/><line class="cls-29" x1="303.3" y1="37.29" x2="265.38" y2="37.3"/><line class="cls-28" x1="264.46" y1="37.3" x2="261.96" y2="37.3"/></g><g class="cls-27"><line class="cls-28" x1="430.9" y1="37.25" x2="307.65" y2="37.29"/><path class="cls-30" d="M430.81,35.37a1.88,1.88,0,1,1-1.88,1.88A1.88,1.88,0,0,1,430.81,35.37Z"/></g><g class="cls-27"><line class="cls-28" x1="355.42" y1="70.29" x2="352.92" y2="70.3"/><line class="cls-31" x1="350.93" y1="70.3" x2="275.04" y2="70.32"/><line class="cls-28" x1="274.04" y1="70.32" x2="271.54" y2="70.32"/></g><g class="cls-27"><line class="cls-28" x1="430.9" y1="70.27" x2="355.42" y2="70.29"/><path class="cls-30" d="M430.81,68.39a1.88,1.88,0,1,1-1.88,1.88A1.88,1.88,0,0,1,430.81,68.39Z"/></g><g class="cls-27"><line class="cls-28" x1="430.9" y1="149.03" x2="405.31" y2="149.04"/><path class="cls-30" d="M430.81,147.15a1.88,1.88,0,1,1-1.88,1.88A1.88,1.88,0,0,1,430.81,147.15Z"/></g><g class="cls-27"><line class="cls-28" x1="430.9" y1="263.28" x2="406" y2="263.29"/><path class="cls-30" d="M430.81,261.4a1.88,1.88,0,1,1-1.88,1.88A1.89,1.89,0,0,1,430.81,261.4Z"/></g></g><g id="ped_sv-2" data-name="ped_sv"><g class="cls-27"><line class="cls-28" x1="694.9" y1="491.81" x2="667.06" y2="491.82"/><path class="cls-30" d="M694.8,489.93a1.88,1.88,0,1,1-1.88,1.88A1.88,1.88,0,0,1,694.8,489.93Z"/></g><g class="cls-27"><line class="cls-28" x1="694.9" y1="390.26" x2="680.26" y2="390.26"/><path class="cls-30" d="M694.8,388.38a1.88,1.88,0,1,1-1.88,1.88A1.88,1.88,0,0,1,694.8,388.38Z"/></g><g class="cls-27"><line class="cls-28" x1="647.28" y1="333.64" x2="644.78" y2="333.64"/><line class="cls-32" x1="642.52" y1="333.64" x2="627.84" y2="333.64"/><line class="cls-28" x1="626.71" y1="333.64" x2="624.21" y2="333.64"/></g><g class="cls-27"><line class="cls-28" x1="694.9" y1="333.62" x2="647.28" y2="333.64"/><path class="cls-30" d="M694.81,331.74a1.88,1.88,0,1,1-1.88,1.88A1.88,1.88,0,0,1,694.81,331.74Z"/></g><g class="cls-27"><line class="cls-28" x1="694.9" y1="301.83" x2="597.66" y2="301.86"/><path class="cls-30" d="M694.81,300a1.88,1.88,0,1,1-1.88,1.88A1.88,1.88,0,0,1,694.81,300Z"/></g></g><path class="cls-2" d="M755.88,172c0,4.88-3.24,8.84-7.23,8.84H615.12c-4,0-7.23-4-7.23-8.84V161.45c0-4.88,3.24-8.84,7.23-8.84H748.65c4,0,7.23,4,7.23,8.84Z"/><path class="cls-3" d="M755.88,54.37c0,4.89-3.24,8.85-7.23,8.85H615.12c-4,0-7.23-4-7.23-8.85V43.87c0-4.88,3.24-8.84,7.23-8.84H748.65c4,0,7.23,4,7.23,8.84Z"/><path class="cls-4" d="M755.88,93.6c0,4.88-3.24,8.84-7.23,8.84H615.12c-4,0-7.23-4-7.23-8.84V83.1c0-4.89,3.24-8.84,7.23-8.84H748.65c4,0,7.23,3.95,7.23,8.84Z"/><path class="cls-1" d="M755.88,133c0,4.88-3.24,8.84-7.23,8.84H615.12c-4,0-7.23-4-7.23-8.84v-10.5c0-4.89,3.24-8.85,7.23-8.85H748.65c4,0,7.23,4,7.23,8.85Z"/><text class="cls-33" transform="translate(612.24 133.5) scale(1.05 1)">SUVs/Pickup Trucks</text><text class="cls-33" transform="translate(633.43 53.44) scale(1.05 1)">Other Vehicles</text><text class="cls-33" transform="translate(636.28 94.39) scale(1.05 1)">Heavy Trucks</text><text class="cls-33" transform="translate(629.55 172.03) scale(1.05 1)">Passenger Cars</text></g></svg>