<svg xmlns="http://www.w3.org/2000/svg" viewBox="0 0 792 612"><defs><style>.cls-1,.cls-11{fill:none;stroke:#ebebeb;stroke-linejoin:round;}.cls-1{stroke-width:1.07px;}.cls-2{fill:#5a5a5a;}.cls-12,.cls-27,.cls-3,.cls-4{isolation:isolate;}.cls-3{font-size:10.53px;}.cls-12,.cls-27,.cls-3,.cls-5{fill:#231f20;}.cls-12,.cls-27,.cls-3{font-family:NewsCycle, News Cycle;}.cls-4{font-size:13.95px;}.cls-4,.cls-5{font-family:RobotoSlab-Regular, Roboto Slab;}.cls-5{font-size:27.55px;}.cls-6{letter-spacing:-0.01em;}.cls-7{letter-spacing:-0.01em;}.cls-8{letter-spacing:0em;}.cls-9{letter-spacing:0em;}.cls-10{letter-spacing:-0.01em;}.cls-11{stroke-width:0.53px;}.cls-12{font-size:10.47px;}.cls-13{letter-spacing:0em;}.cls-14{letter-spacing:0em;}.cls-15{letter-spacing:0em;}.cls-16{letter-spacing:-0.01em;}.cls-17{letter-spacing:0.01em;}.cls-18{letter-spacing:-0.01em;}.cls-19{letter-spacing:-0.01em;}.cls-20{fill:#d9e58d;}.cls-21{fill:#fbf7c1;}.cls-22{fill:#fde08b;}.cls-23{fill:#f68d5c;}.cls-24{fill:#93ca61;}.cls-25{fill:#1c9850;}.cls-26{fill:#d73227;}.cls-27{font-size:9px;}</style></defs><title>pres_slides_svg</title><g id="timeofday"><g id="Peds"><line class="cls-1" x1="79.56" y1="149.52" x2="704.43" y2="149.52"/><rect class="cls-2" x="107.96" y="131.44" width="11.83" height="18.08"/><rect class="cls-2" x="119.8" y="142.08" width="11.83" height="7.44"/><rect class="cls-2" x="131.63" y="136.76" width="11.83" height="12.76"/><rect class="cls-2" x="143.46" y="142.08" width="11.84" height="7.44"/><rect class="cls-2" x="155.31" y="134.63" width="11.83" height="14.89"/><rect class="cls-2" x="167.14" y="139.95" width="11.83" height="9.57"/><rect class="cls-2" x="178.97" y="146.33" width="11.83" height="3.19"/><rect class="cls-2" x="190.81" y="147.39" width="11.83" height="2.13"/><rect class="cls-2" x="202.64" y="145.26" width="11.84" height="4.25"/><rect class="cls-2" x="214.48" y="144.2" width="11.83" height="5.32"/><rect class="cls-2" x="226.31" y="137.82" width="11.83" height="11.7"/><rect class="cls-2" x="238.15" y="135.69" width="11.83" height="13.82"/><rect class="cls-2" x="249.98" y="129.32" width="11.83" height="20.2"/><rect class="cls-2" x="261.82" y="111.24" width="11.84" height="38.28"/><rect class="cls-2" x="273.65" y="101.67" width="11.83" height="47.85"/><rect class="cls-2" x="285.48" y="96.36" width="11.83" height="53.16"/><rect class="cls-2" x="297.32" y="82.53" width="11.84" height="66.98"/><rect class="cls-2" x="309.16" y="99.54" width="11.83" height="49.97"/><rect class="cls-2" x="320.99" y="104.86" width="11.83" height="44.66"/><rect class="cls-2" x="332.82" y="88.91" width="11.83" height="60.61"/><rect class="cls-2" x="344.65" y="88.91" width="11.84" height="60.61"/><rect class="cls-2" x="356.49" y="103.8" width="11.83" height="45.72"/><rect class="cls-2" x="368.33" y="105.92" width="11.83" height="43.59"/><rect class="cls-2" x="380.16" y="92.1" width="11.83" height="57.42"/><rect class="cls-2" x="391.99" y="92.1" width="11.83" height="57.42"/><rect class="cls-2" x="403.83" y="93.16" width="11.83" height="56.35"/><rect class="cls-2" x="415.66" y="89.97" width="11.84" height="59.54"/><rect class="cls-2" x="427.5" y="89.97" width="11.83" height="59.54"/><rect class="cls-2" x="439.34" y="61.27" width="11.83" height="88.25"/><rect class="cls-2" x="451.17" y="68.71" width="11.83" height="80.81"/><rect class="cls-2" x="463" y="82.53" width="11.83" height="66.98"/><rect class="cls-2" x="474.84" y="70.84" width="11.83" height="78.68"/><rect class="cls-2" x="486.67" y="72.96" width="11.83" height="76.55"/><rect class="cls-2" x="498.51" y="53.82" width="11.83" height="95.69"/><rect class="cls-2" x="510.35" y="40" width="11.83" height="109.52"/><rect class="cls-2" x="522.18" y="28.31" width="11.84" height="121.21"/><rect class="cls-2" x="534.01" y="35.75" width="11.83" height="113.77"/><rect class="cls-2" x="545.85" y="52.76" width="11.83" height="96.76"/><rect class="cls-2" x="557.68" y="69.77" width="11.83" height="79.74"/><rect class="cls-2" x="569.51" y="66.58" width="11.84" height="82.93"/><rect class="cls-2" x="581.35" y="55.95" width="11.84" height="93.57"/><rect class="cls-2" x="593.19" y="84.66" width="11.83" height="64.86"/><rect class="cls-2" x="605.02" y="84.66" width="11.83" height="64.86"/><rect class="cls-2" x="616.86" y="84.66" width="11.83" height="64.86"/><rect class="cls-2" x="628.69" y="113.37" width="11.83" height="36.15"/><rect class="cls-2" x="640.52" y="109.11" width="11.83" height="40.4"/><rect class="cls-2" x="652.36" y="125.06" width="11.83" height="24.45"/><rect class="cls-2" x="664.19" y="136.76" width="11.84" height="12.76"/><text class="cls-3" transform="translate(70.75 150.15)">0</text><text class="cls-3" transform="translate(64.8 118.25)">30</text><text class="cls-3" transform="translate(64.82 86.35)">60</text><text class="cls-3" transform="translate(64.82 54.45)">90</text><text class="cls-4" transform="translate(48.39 151.94) rotate(-90)">Count</text><text class="cls-5" transform="translate(36 548.69) scale(1.05 1)">All <tspan class="cls-6" x="44.38" y="0">P</tspan><tspan x="61.71" y="0">edestrian Crash Cases:</tspan><tspan x="0" y="33.06">Age G</tspan><tspan class="cls-7" x="76.09" y="33.06">r</tspan><tspan x="87.22" y="33.06">oup &amp; Ti</tspan><tspan class="cls-8" x="193.46" y="33.06">m</tspan><tspan class="cls-9" x="219.35" y="33.06">e of D</tspan><tspan class="cls-10" x="292.2" y="33.06">a</tspan><tspan class="cls-9" x="307.17" y="33.06">y</tspan></text><line class="cls-11" x1="90.57" y1="480.75" x2="90.57" y2="151.94"/><text class="cls-12" transform="translate(75.09 467.36)">0%</text><text class="cls-12" transform="translate(98.98 490.97) rotate(-30)">00:01</text><text class="cls-12" transform="translate(144.7 491.35) rotate(-30)">02:00</text><text class="cls-12" transform="translate(190.75 491.47) rotate(-30)">04:00</text><text class="cls-12" transform="translate(236.74 491.33) rotate(-30)">06:00</text><text class="cls-12" transform="translate(283.77 491.38) rotate(-30)">08:00</text><text class="cls-12" transform="translate(330.48 490.97) rotate(-30)">10:00</text><text class="cls-12" transform="translate(378.54 491.03) rotate(-30)">12:00</text><text class="cls-12" transform="translate(423.67 491.15) rotate(-30)">14:00</text><text class="cls-12" transform="translate(470.41 491.01) rotate(-30)">16:00</text><text class="cls-12" transform="translate(516.99 491.06) rotate(-30)">18:00</text><text class="cls-12" transform="translate(562.74 491.35) rotate(-30)">20:00</text><text class="cls-12" transform="translate(608.89 491.41) rotate(-30)">22:00</text><text class="cls-12" transform="translate(655.54 491.32) rotate(-30)">23:59</text><text class="cls-12" transform="translate(68.55 392.63)">25%</text><text class="cls-12" transform="translate(68.67 317.9)">50%</text><text class="cls-12" transform="translate(69.06 243.17)">75%</text><text class="cls-12" transform="translate(62.44 168.44)">100%</text><text class="cls-4" transform="translate(83.49 511.69)">Ti<tspan class="cls-13" x="13.33" y="0">m</tspan><tspan class="cls-14" x="26.45" y="0">e of t</tspan><tspan class="cls-15" x="58.79" y="0">h</tspan><tspan x="67.73" y="0">e D</tspan><tspan class="cls-16" x="88.36" y="0">a</tspan><tspan x="95.95" y="0">y: 30 minute inte</tspan><tspan class="cls-17" x="206.63" y="0">r</tspan><tspan class="cls-16" x="212.53" y="0">v</tspan><tspan x="220.21" y="0">als</tspan></text><text class="cls-4" transform="translate(48.39 475.52) rotate(-90)"><tspan class="cls-18">P</tspan><tspan x="8.78" y="0">e</tspan><tspan class="cls-19" x="16.28" y="0">r</tspan><tspan x="21.92" y="0">centage</tspan></text></g></g><g id="Title"><line class="cls-11" x1="79.55" y1="429.7" x2="704.36" y2="429.7"/><line class="cls-11" x1="79.55" y1="354.95" x2="704.36" y2="354.95"/><line class="cls-11" x1="79.55" y1="280.19" x2="704.36" y2="280.19"/><line class="cls-11" x1="79.55" y1="205.44" x2="704.36" y2="205.44"/><line class="cls-11" x1="90.61" y1="482.03" x2="90.61" y2="153.12"/><line class="cls-11" x1="137.12" y1="482.03" x2="137.12" y2="153.12"/><line class="cls-11" x1="183.63" y1="482.03" x2="183.63" y2="153.12"/><line class="cls-11" x1="230.14" y1="482.03" x2="230.14" y2="153.12"/><line class="cls-11" x1="276.65" y1="482.03" x2="276.65" y2="153.12"/><line class="cls-11" x1="323.16" y1="482.03" x2="323.16" y2="153.12"/><line class="cls-11" x1="369.67" y1="482.03" x2="369.67" y2="153.12"/><line class="cls-11" x1="416.18" y1="482.03" x2="416.18" y2="153.12"/><line class="cls-11" x1="462.69" y1="482.03" x2="462.69" y2="153.12"/><line class="cls-11" x1="509.19" y1="482.03" x2="509.19" y2="153.12"/><line class="cls-11" x1="555.7" y1="482.03" x2="555.7" y2="153.12"/><line class="cls-11" x1="602.22" y1="482.03" x2="602.22" y2="153.12"/><line class="cls-11" x1="648.73" y1="482.03" x2="648.73" y2="153.12"/><line class="cls-11" x1="695.24" y1="482.03" x2="695.24" y2="153.12"/><line class="cls-1" x1="79.55" y1="467.08" x2="704.36" y2="467.08"/><line class="cls-1" x1="79.55" y1="392.33" x2="704.36" y2="392.33"/><line class="cls-1" x1="79.55" y1="317.57" x2="704.36" y2="317.57"/><line class="cls-1" x1="79.55" y1="242.82" x2="704.36" y2="242.82"/><line class="cls-1" x1="79.55" y1="168.07" x2="704.36" y2="168.07"/><line class="cls-1" x1="113.86" y1="482.03" x2="113.86" y2="153.12"/><line class="cls-1" x1="160.38" y1="482.03" x2="160.38" y2="153.12"/><line class="cls-1" x1="206.88" y1="482.03" x2="206.88" y2="153.12"/><line class="cls-1" x1="253.39" y1="482.03" x2="253.39" y2="153.12"/><line class="cls-1" x1="299.9" y1="482.03" x2="299.9" y2="153.12"/><line class="cls-1" x1="346.42" y1="482.03" x2="346.42" y2="153.12"/><line class="cls-1" x1="392.93" y1="482.03" x2="392.93" y2="153.12"/><line class="cls-1" x1="439.44" y1="482.03" x2="439.44" y2="153.12"/><line class="cls-1" x1="485.94" y1="482.03" x2="485.94" y2="153.12"/><line class="cls-1" x1="532.45" y1="482.03" x2="532.45" y2="153.12"/><line class="cls-1" x1="578.96" y1="482.03" x2="578.96" y2="153.12"/><line class="cls-1" x1="625.47" y1="482.03" x2="625.47" y2="153.12"/><line class="cls-1" x1="671.98" y1="482.03" x2="671.98" y2="153.12"/><rect class="cls-20" x="107.95" y="350.79" width="11.84" height="116.29"/><rect class="cls-21" x="107.95" y="251.13" width="11.84" height="99.67"/><rect class="cls-22" x="107.95" y="184.68" width="11.84" height="66.45"/><rect class="cls-23" x="107.95" y="168.07" width="11.84" height="16.61"/><rect class="cls-21" x="119.78" y="168.07" width="11.83" height="299.01"/><rect class="cls-24" x="131.62" y="421.07" width="11.84" height="46"/><rect class="cls-20" x="131.62" y="329.07" width="11.84" height="92"/><rect class="cls-21" x="131.62" y="191.06" width="11.84" height="138.01"/><rect class="cls-23" x="131.62" y="168.07" width="11.84" height="23"/><rect class="cls-20" x="143.45" y="424.36" width="11.84" height="42.72"/><rect class="cls-21" x="143.45" y="210.78" width="11.84" height="213.58"/><rect class="cls-22" x="143.45" y="168.07" width="11.84" height="42.72"/><rect class="cls-24" x="155.28" y="445.72" width="11.83" height="21.36"/><rect class="cls-20" x="155.28" y="381.65" width="11.83" height="64.08"/><rect class="cls-21" x="155.28" y="189.42" width="11.83" height="192.22"/><rect class="cls-22" x="155.28" y="168.07" width="11.83" height="21.35"/><rect class="cls-25" x="167.12" y="433.85" width="11.84" height="33.22"/><rect class="cls-20" x="167.12" y="400.63" width="11.84" height="33.22"/><rect class="cls-21" x="167.12" y="168.07" width="11.84" height="232.56"/><rect class="cls-25" x="178.95" y="367.4" width="11.84" height="99.67"/><rect class="cls-21" x="178.95" y="168.07" width="11.84" height="199.34"/><rect class="cls-21" x="190.78" y="317.57" width="11.84" height="149.5"/><rect class="cls-22" x="190.78" y="168.07" width="11.84" height="149.51"/><rect class="cls-20" x="202.62" y="317.57" width="11.83" height="149.5"/><rect class="cls-21" x="202.62" y="242.82" width="11.83" height="74.75"/><rect class="cls-22" x="202.62" y="168.07" width="11.83" height="74.75"/><rect class="cls-20" x="214.45" y="287.67" width="11.84" height="179.41"/><rect class="cls-21" x="214.45" y="168.07" width="11.84" height="119.61"/><rect class="cls-24" x="226.29" y="358.35" width="11.84" height="108.73"/><rect class="cls-20" x="226.29" y="303.98" width="11.84" height="54.37"/><rect class="cls-21" x="226.29" y="195.25" width="11.84" height="108.73"/><rect class="cls-22" x="226.29" y="168.07" width="11.84" height="27.18"/><rect class="cls-25" x="238.12" y="444.08" width="11.83" height="23"/><rect class="cls-24" x="238.12" y="352.07" width="11.83" height="92"/><rect class="cls-20" x="238.12" y="306.07" width="11.83" height="46"/><rect class="cls-21" x="238.12" y="168.07" width="11.83" height="138.01"/><rect class="cls-24" x="249.95" y="356.91" width="11.84" height="110.16"/><rect class="cls-20" x="249.95" y="246.76" width="11.84" height="110.16"/><rect class="cls-21" x="249.95" y="168.07" width="11.84" height="78.69"/><rect class="cls-25" x="261.79" y="453.48" width="11.84" height="13.59"/><rect class="cls-24" x="261.79" y="378.73" width="11.84" height="74.75"/><rect class="cls-20" x="261.79" y="290.39" width="11.84" height="88.34"/><rect class="cls-21" x="261.79" y="256.41" width="11.84" height="33.98"/><rect class="cls-22" x="261.79" y="222.43" width="11.84" height="33.98"/><rect class="cls-23" x="261.79" y="168.07" width="11.84" height="54.37"/><rect class="cls-25" x="273.63" y="456" width="11.83" height="11.08"/><rect class="cls-24" x="273.63" y="361.87" width="11.83" height="94.13"/><rect class="cls-20" x="273.63" y="300.96" width="11.83" height="60.91"/><rect class="cls-21" x="273.63" y="262.2" width="11.83" height="38.76"/><rect class="cls-22" x="273.63" y="228.98" width="11.83" height="33.22"/><rect class="cls-23" x="273.63" y="179.14" width="11.83" height="49.84"/><rect class="cls-26" x="273.63" y="168.07" width="11.83" height="11.07"/><rect class="cls-25" x="285.45" y="457.88" width="11.83" height="9.2"/><rect class="cls-24" x="285.45" y="411.87" width="11.83" height="46"/><rect class="cls-20" x="285.45" y="324.47" width="11.83" height="87.41"/><rect class="cls-21" x="285.45" y="273.87" width="11.83" height="50.6"/><rect class="cls-22" x="285.45" y="241.67" width="11.83" height="32.2"/><rect class="cls-23" x="285.45" y="172.66" width="11.83" height="69"/><rect class="cls-26" x="285.45" y="168.07" width="11.83" height="4.6"/><rect class="cls-25" x="297.29" y="440.69" width="11.84" height="26.38"/><rect class="cls-24" x="297.29" y="374.74" width="11.84" height="65.96"/><rect class="cls-20" x="297.29" y="304.38" width="11.84" height="70.36"/><rect class="cls-21" x="297.29" y="225.23" width="11.84" height="79.15"/><rect class="cls-22" x="297.29" y="207.64" width="11.84" height="17.59"/><rect class="cls-23" x="297.29" y="185.66" width="11.84" height="21.99"/><rect class="cls-26" x="297.29" y="168.07" width="11.84" height="17.59"/><rect class="cls-25" x="309.12" y="444.08" width="11.84" height="23"/><rect class="cls-24" x="309.12" y="369.32" width="11.84" height="74.75"/><rect class="cls-20" x="309.12" y="294.57" width="11.84" height="74.75"/><rect class="cls-21" x="309.12" y="208.32" width="11.84" height="86.25"/><rect class="cls-22" x="309.12" y="202.57" width="11.84" height="5.75"/><rect class="cls-23" x="309.12" y="173.82" width="11.84" height="28.75"/><rect class="cls-26" x="309.12" y="168.07" width="11.84" height="5.75"/><rect class="cls-25" x="320.95" y="439.89" width="11.84" height="27.19"/><rect class="cls-24" x="320.95" y="371.94" width="11.84" height="67.96"/><rect class="cls-20" x="320.95" y="270" width="11.84" height="101.94"/><rect class="cls-21" x="320.95" y="195.25" width="11.84" height="74.75"/><rect class="cls-22" x="320.95" y="181.66" width="11.84" height="13.59"/><rect class="cls-23" x="320.95" y="168.07" width="11.84" height="13.59"/><rect class="cls-25" x="332.79" y="432.19" width="11.84" height="34.88"/><rect class="cls-24" x="332.79" y="362.42" width="11.84" height="69.77"/><rect class="cls-20" x="332.79" y="297.64" width="11.84" height="64.79"/><rect class="cls-21" x="332.79" y="202.95" width="11.84" height="94.69"/><rect class="cls-22" x="332.79" y="188" width="11.84" height="14.95"/><rect class="cls-23" x="332.79" y="173.05" width="11.84" height="14.95"/><rect class="cls-26" x="332.79" y="168.07" width="11.84" height="4.98"/><rect class="cls-25" x="344.62" y="435.6" width="11.84" height="31.48"/><rect class="cls-24" x="344.62" y="314.95" width="11.84" height="120.66"/><rect class="cls-20" x="344.62" y="231.01" width="11.84" height="83.93"/><rect class="cls-21" x="344.62" y="183.8" width="11.84" height="47.21"/><rect class="cls-22" x="344.62" y="168.07" width="11.84" height="15.74"/><rect class="cls-25" x="356.46" y="413.92" width="11.84" height="53.16"/><rect class="cls-24" x="356.46" y="360.76" width="11.84" height="53.16"/><rect class="cls-20" x="356.46" y="261.09" width="11.84" height="99.67"/><rect class="cls-21" x="356.46" y="194.64" width="11.84" height="66.45"/><rect class="cls-22" x="356.46" y="181.36" width="11.84" height="13.29"/><rect class="cls-23" x="356.46" y="168.07" width="11.84" height="13.29"/><rect class="cls-24" x="368.29" y="328" width="11.83" height="139.07"/><rect class="cls-20" x="368.29" y="272.37" width="11.83" height="55.63"/><rect class="cls-21" x="368.29" y="216.74" width="11.83" height="55.63"/><rect class="cls-22" x="368.29" y="195.88" width="11.83" height="20.86"/><rect class="cls-23" x="368.29" y="181.97" width="11.83" height="13.91"/><rect class="cls-26" x="368.29" y="168.07" width="11.83" height="13.91"/><rect class="cls-25" x="380.12" y="451.61" width="11.84" height="15.46"/><rect class="cls-24" x="380.12" y="338.19" width="11.84" height="113.42"/><rect class="cls-20" x="380.12" y="271.17" width="11.84" height="67.02"/><rect class="cls-21" x="380.12" y="209.31" width="11.84" height="61.87"/><rect class="cls-22" x="380.12" y="193.84" width="11.84" height="15.46"/><rect class="cls-23" x="380.12" y="173.22" width="11.84" height="20.62"/><rect class="cls-26" x="380.12" y="168.07" width="11.84" height="5.16"/><rect class="cls-25" x="391.96" y="456.4" width="11.83" height="10.68"/><rect class="cls-24" x="391.96" y="370.96" width="11.83" height="85.43"/><rect class="cls-20" x="391.96" y="312.23" width="11.83" height="58.74"/><rect class="cls-21" x="391.96" y="226.8" width="11.83" height="85.43"/><rect class="cls-22" x="391.96" y="200.1" width="11.83" height="26.7"/><rect class="cls-23" x="391.96" y="189.42" width="11.83" height="10.68"/><rect class="cls-26" x="391.96" y="168.07" width="11.83" height="21.35"/><rect class="cls-25" x="403.79" y="451.61" width="11.84" height="15.46"/><rect class="cls-24" x="403.79" y="358.81" width="11.84" height="92.8"/><rect class="cls-20" x="403.79" y="281.49" width="11.84" height="77.33"/><rect class="cls-21" x="403.79" y="229.93" width="11.84" height="51.55"/><rect class="cls-22" x="403.79" y="199" width="11.84" height="30.93"/><rect class="cls-23" x="403.79" y="173.22" width="11.84" height="25.78"/><rect class="cls-26" x="403.79" y="168.07" width="11.84" height="5.16"/><rect class="cls-25" x="415.62" y="436.67" width="11.83" height="30.41"/><rect class="cls-24" x="415.62" y="370.79" width="11.83" height="65.88"/><rect class="cls-20" x="415.62" y="309.97" width="11.83" height="60.82"/><rect class="cls-21" x="415.62" y="223.81" width="11.83" height="86.16"/><rect class="cls-22" x="415.62" y="193.41" width="11.83" height="30.41"/><rect class="cls-23" x="415.62" y="178.2" width="11.83" height="15.2"/><rect class="cls-26" x="415.62" y="168.07" width="11.83" height="10.13"/><rect class="cls-25" x="427.45" y="443.72" width="11.84" height="23.36"/><rect class="cls-24" x="427.45" y="364.29" width="11.84" height="79.43"/><rect class="cls-20" x="427.45" y="317.57" width="11.84" height="46.72"/><rect class="cls-21" x="427.45" y="238.15" width="11.84" height="79.42"/><rect class="cls-22" x="427.45" y="214.79" width="11.84" height="23.36"/><rect class="cls-23" x="427.45" y="177.41" width="11.84" height="37.38"/><rect class="cls-26" x="427.45" y="168.07" width="11.84" height="9.34"/><rect class="cls-25" x="439.29" y="436.25" width="11.84" height="30.82"/><rect class="cls-24" x="439.29" y="368.43" width="11.84" height="67.82"/><rect class="cls-20" x="439.29" y="319.12" width="11.84" height="49.32"/><rect class="cls-21" x="439.29" y="238.96" width="11.84" height="80.15"/><rect class="cls-22" x="439.29" y="214.3" width="11.84" height="24.66"/><rect class="cls-23" x="439.29" y="171.15" width="11.84" height="43.16"/><rect class="cls-26" x="439.29" y="168.07" width="11.84" height="3.08"/><rect class="cls-25" x="451.13" y="448.39" width="11.84" height="18.69"/><rect class="cls-24" x="451.13" y="392.33" width="11.84" height="56.07"/><rect class="cls-20" x="451.13" y="317.57" width="11.84" height="74.75"/><rect class="cls-21" x="451.13" y="277.08" width="11.84" height="40.49"/><rect class="cls-22" x="451.13" y="245.93" width="11.84" height="31.15"/><rect class="cls-23" x="451.13" y="183.64" width="11.84" height="62.29"/><rect class="cls-26" x="451.13" y="168.07" width="11.84" height="15.57"/><rect class="cls-25" x="462.96" y="446.45" width="11.83" height="20.62"/><rect class="cls-24" x="462.96" y="384.59" width="11.83" height="61.87"/><rect class="cls-20" x="462.96" y="329.6" width="11.83" height="54.99"/><rect class="cls-21" x="462.96" y="288.36" width="11.83" height="41.25"/><rect class="cls-22" x="462.96" y="257.42" width="11.83" height="30.93"/><rect class="cls-23" x="462.96" y="174.94" width="11.83" height="82.49"/><rect class="cls-26" x="462.96" y="168.07" width="11.83" height="6.87"/><rect class="cls-25" x="474.79" y="447.14" width="11.84" height="19.93"/><rect class="cls-24" x="474.79" y="393.99" width="11.84" height="53.16"/><rect class="cls-20" x="474.79" y="317.57" width="11.84" height="76.41"/><rect class="cls-21" x="474.79" y="261.09" width="11.84" height="56.48"/><rect class="cls-22" x="474.79" y="227.87" width="11.84" height="33.22"/><rect class="cls-23" x="474.79" y="174.71" width="11.84" height="53.16"/><rect class="cls-26" x="474.79" y="168.07" width="11.84" height="6.64"/><rect class="cls-25" x="486.63" y="450.83" width="11.83" height="16.25"/><rect class="cls-24" x="486.63" y="392.33" width="11.83" height="58.5"/><rect class="cls-20" x="486.63" y="330.57" width="11.83" height="61.75"/><rect class="cls-21" x="486.63" y="288.32" width="11.83" height="42.25"/><rect class="cls-22" x="486.63" y="255.82" width="11.83" height="32.5"/><rect class="cls-23" x="486.63" y="190.82" width="11.83" height="65"/><rect class="cls-26" x="486.63" y="168.07" width="11.83" height="22.75"/><rect class="cls-25" x="498.46" y="445.13" width="11.84" height="21.94"/><rect class="cls-24" x="498.46" y="371.06" width="11.84" height="74.06"/><rect class="cls-20" x="498.46" y="318.94" width="11.84" height="52.12"/><rect class="cls-21" x="498.46" y="253.11" width="11.84" height="65.84"/><rect class="cls-22" x="498.46" y="231.16" width="11.84" height="21.95"/><rect class="cls-23" x="498.46" y="179.04" width="11.84" height="52.12"/><rect class="cls-26" x="498.46" y="168.07" width="11.84" height="10.97"/><rect class="cls-25" x="510.29" y="452.49" width="11.83" height="14.58"/><rect class="cls-24" x="510.29" y="396.58" width="11.83" height="55.91"/><rect class="cls-20" x="510.29" y="323.65" width="11.83" height="72.93"/><rect class="cls-21" x="510.29" y="253.15" width="11.83" height="70.5"/><rect class="cls-22" x="510.29" y="223.98" width="11.83" height="29.17"/><rect class="cls-23" x="510.29" y="175.36" width="11.83" height="48.62"/><rect class="cls-26" x="510.29" y="168.07" width="11.83" height="7.29"/><rect class="cls-25" x="522.12" y="457.66" width="11.83" height="9.42"/><rect class="cls-24" x="522.12" y="391.74" width="11.83" height="65.92"/><rect class="cls-20" x="522.12" y="292.85" width="11.83" height="98.89"/><rect class="cls-21" x="522.12" y="226.93" width="11.83" height="65.92"/><rect class="cls-22" x="522.12" y="205.74" width="11.83" height="21.19"/><rect class="cls-23" x="522.12" y="175.13" width="11.83" height="30.61"/><rect class="cls-26" x="522.12" y="168.07" width="11.83" height="7.06"/><rect class="cls-25" x="533.96" y="445.37" width="11.84" height="21.7"/><rect class="cls-24" x="533.96" y="382.68" width="11.84" height="62.69"/><rect class="cls-20" x="533.96" y="317.57" width="11.84" height="65.11"/><rect class="cls-21" x="533.96" y="247.64" width="11.84" height="69.93"/><rect class="cls-22" x="533.96" y="213.88" width="11.84" height="33.76"/><rect class="cls-23" x="533.96" y="172.89" width="11.84" height="40.99"/><rect class="cls-26" x="533.96" y="168.07" width="11.84" height="4.83"/><rect class="cls-25" x="545.79" y="458.45" width="11.84" height="8.63"/><rect class="cls-24" x="545.79" y="383.7" width="11.84" height="74.75"/><rect class="cls-20" x="545.79" y="334.82" width="11.84" height="48.88"/><rect class="cls-21" x="545.79" y="234.19" width="11.84" height="100.63"/><rect class="cls-22" x="545.79" y="214.07" width="11.84" height="20.13"/><rect class="cls-23" x="545.79" y="176.69" width="11.84" height="37.37"/><rect class="cls-26" x="545.79" y="168.07" width="11.84" height="8.63"/><rect class="cls-25" x="557.62" y="459.96" width="11.84" height="7.12"/><rect class="cls-24" x="557.62" y="403" width="11.84" height="56.95"/><rect class="cls-20" x="557.62" y="324.69" width="11.84" height="78.31"/><rect class="cls-21" x="557.62" y="221.46" width="11.84" height="103.23"/><rect class="cls-22" x="557.62" y="207.22" width="11.84" height="14.24"/><rect class="cls-23" x="557.62" y="175.19" width="11.84" height="32.04"/><rect class="cls-26" x="557.62" y="168.07" width="11.84" height="7.12"/><rect class="cls-25" x="569.46" y="453" width="11.84" height="14.07"/><rect class="cls-24" x="569.46" y="389.69" width="11.84" height="63.32"/><rect class="cls-20" x="569.46" y="319.33" width="11.84" height="70.36"/><rect class="cls-21" x="569.46" y="234.9" width="11.84" height="84.43"/><rect class="cls-22" x="569.46" y="196.21" width="11.84" height="38.69"/><rect class="cls-23" x="569.46" y="171.58" width="11.84" height="24.63"/><rect class="cls-26" x="569.46" y="168.07" width="11.84" height="3.52"/><rect class="cls-25" x="581.29" y="460.43" width="11.84" height="6.64"/><rect class="cls-24" x="581.29" y="413.92" width="11.84" height="46.51"/><rect class="cls-20" x="581.29" y="314.25" width="11.84" height="99.67"/><rect class="cls-21" x="581.29" y="217.9" width="11.84" height="96.35"/><rect class="cls-22" x="581.29" y="178.03" width="11.84" height="39.87"/><rect class="cls-23" x="581.29" y="171.39" width="11.84" height="6.64"/><rect class="cls-26" x="581.29" y="168.07" width="11.84" height="3.32"/><rect class="cls-25" x="593.12" y="462.41" width="11.84" height="4.67"/><rect class="cls-24" x="593.12" y="373.63" width="11.84" height="88.77"/><rect class="cls-20" x="593.12" y="280.19" width="11.84" height="93.44"/><rect class="cls-21" x="593.12" y="200.77" width="11.84" height="79.42"/><rect class="cls-22" x="593.12" y="186.75" width="11.84" height="14.02"/><rect class="cls-23" x="593.12" y="172.74" width="11.84" height="14.01"/><rect class="cls-26" x="593.12" y="168.07" width="11.84" height="4.67"/><rect class="cls-25" x="604.96" y="462.61" width="11.84" height="4.46"/><rect class="cls-24" x="604.96" y="413.52" width="11.84" height="49.09"/><rect class="cls-20" x="604.96" y="315.34" width="11.84" height="98.18"/><rect class="cls-21" x="604.96" y="226.08" width="11.84" height="89.26"/><rect class="cls-22" x="604.96" y="194.84" width="11.84" height="31.24"/><rect class="cls-23" x="604.96" y="168.07" width="11.84" height="26.77"/><rect class="cls-25" x="616.79" y="462.25" width="11.84" height="4.83"/><rect class="cls-24" x="616.79" y="418.85" width="11.84" height="43.41"/><rect class="cls-20" x="616.79" y="346.51" width="11.84" height="72.34"/><rect class="cls-21" x="616.79" y="225.94" width="11.84" height="120.57"/><rect class="cls-22" x="616.79" y="172.89" width="11.84" height="53.05"/><rect class="cls-23" x="616.79" y="168.07" width="11.84" height="4.83"/><rect class="cls-24" x="628.63" y="445.2" width="11.83" height="21.88"/><rect class="cls-20" x="628.63" y="364.98" width="11.83" height="80.22"/><rect class="cls-21" x="628.63" y="270.17" width="11.83" height="94.81"/><rect class="cls-22" x="628.63" y="226.41" width="11.83" height="43.76"/><rect class="cls-23" x="628.63" y="175.36" width="11.83" height="51.05"/><rect class="cls-26" x="628.63" y="168.07" width="11.83" height="7.29"/><rect class="cls-24" x="640.45" y="452.13" width="11.84" height="14.95"/><rect class="cls-20" x="640.45" y="369.9" width="11.84" height="82.23"/><rect class="cls-21" x="640.45" y="220.39" width="11.84" height="149.51"/><rect class="cls-22" x="640.45" y="190.49" width="11.84" height="29.9"/><rect class="cls-23" x="640.45" y="175.54" width="11.84" height="14.95"/><rect class="cls-26" x="640.45" y="168.07" width="11.84" height="7.47"/><rect class="cls-24" x="652.29" y="441.08" width="11.84" height="26"/><rect class="cls-20" x="652.29" y="337.07" width="11.84" height="104"/><rect class="cls-21" x="652.29" y="233.07" width="11.84" height="104"/><rect class="cls-22" x="652.29" y="168.07" width="11.84" height="65"/><rect class="cls-24" x="664.13" y="442.16" width="11.83" height="24.92"/><rect class="cls-20" x="664.13" y="392.33" width="11.83" height="49.84"/><rect class="cls-21" x="664.13" y="242.82" width="11.83" height="149.5"/><rect class="cls-22" x="664.13" y="168.07" width="11.83" height="74.75"/><rect class="cls-26" x="681.31" y="384.98" width="12.13" height="8.95"/><rect class="cls-23" x="681.31" y="396.97" width="12.13" height="8.94"/><rect class="cls-22" x="681.31" y="408.89" width="12.13" height="8.94"/><rect class="cls-21" x="681.31" y="420.84" width="12.13" height="8.94"/><rect class="cls-20" x="681.31" y="432.79" width="12.13" height="8.94"/><rect class="cls-24" x="681.31" y="444.74" width="12.13" height="8.95"/><rect class="cls-25" x="681.31" y="456.69" width="12.13" height="8.94"/><text class="cls-27" transform="translate(699.91 392.91)">Younger than 6</text><text class="cls-27" transform="translate(699.91 404.89)">6 to 15</text><text class="cls-27" transform="translate(699.91 416.81)">16 to 20</text><text class="cls-27" transform="translate(699.91 428.76)">21 to 34</text><text class="cls-27" transform="translate(699.91 440.72)">35 to 54</text><text class="cls-27" transform="translate(699.91 452.67)">55 to 74</text><text class="cls-27" transform="translate(699.91 464.62)">Older than 74</text></g></svg>