<svg xmlns="http://www.w3.org/2000/svg" viewBox="0 0 792 612"><defs><style>.cls-1{fill:#f15a29;}.cls-1,.cls-2,.cls-3,.cls-4{stroke:#e6e7e8;opacity:0.8;}.cls-1,.cls-13,.cls-14,.cls-15,.cls-16,.cls-17,.cls-2,.cls-3,.cls-4{stroke-linecap:round;stroke-linejoin:round;stroke-width:2px;}.cls-2{fill:#f7941d;}.cls-3{fill:#ef4136;}.cls-4{fill:#be1e2d;}.cls-5{font-size:14px;}.cls-27,.cls-33,.cls-34,.cls-37,.cls-39,.cls-40,.cls-5,.cls-6{fill:#231f20;}.cls-34,.cls-40,.cls-5{font-family:NewsCycle, News Cycle;}.cls-6{font-size:27.55px;}.cls-18,.cls-27,.cls-28,.cls-33,.cls-41,.cls-6{font-family:RobotoSlab-Regular, Roboto Slab;}.cls-7{letter-spacing:-0.01em;}.cls-8{letter-spacing:-0.01em;}.cls-9{letter-spacing:-0.01em;}.cls-10{letter-spacing:0em;}.cls-11{letter-spacing:0em;}.cls-12{letter-spacing:-0.02em;}.cls-13{fill:#dcb680;}.cls-13,.cls-14,.cls-15,.cls-16{stroke:#f1f2f2;}.cls-14{fill:#969f3c;}.cls-15{fill:#bccd30;}.cls-16{fill:#8db936;}.cls-17{fill:#fff;stroke:#fff;}.cls-18{font-size:11.35px;}.cls-18,.cls-28{fill:#3e480c;}.cls-19{letter-spacing:-0.01em;}.cls-20{letter-spacing:0em;}.cls-21{letter-spacing:-0.01em;}.cls-22{letter-spacing:0em;}.cls-23{letter-spacing:0em;}.cls-24{font-size:7.29px;}.cls-25{letter-spacing:-0.05em;}.cls-26{letter-spacing:-0.11em;}.cls-27,.cls-33,.cls-35,.cls-38{opacity:0.4;}.cls-27{font-size:40.96px;}.cls-28{font-size:16.74px;}.cls-29{letter-spacing:-0.01em;}.cls-30{letter-spacing:-0.01em;}.cls-31{letter-spacing:0em;}.cls-32{letter-spacing:0em;}.cls-33{font-size:51.5px;}.cls-34{font-size:12px;}.cls-36,.cls-38{fill:none;stroke:#231f20;stroke-miterlimit:10;}.cls-38{stroke-dasharray:5 2;}.cls-39{font-size:17px;font-family:NewsCycle-Bold, News Cycle;font-weight:700;}.cls-40{font-size:10px;}.cls-41{font-size:21px;fill:#414042;}.cls-42{letter-spacing:-0.11em;}.cls-43{letter-spacing:0em;}</style></defs><title>pres_slides_svg</title><g id="Intersection"><g id="Pedestrisn"><rect class="cls-1" x="125.45" y="424.31" width="90" height="43.67"/><rect class="cls-2" x="125.44" y="315.67" width="90" height="108.65"/><rect class="cls-3" x="125.45" y="239.5" width="90" height="76.16"/><rect class="cls-4" x="125.45" y="35.99" width="90" height="203.52"/><text class="cls-5" transform="translate(76.59 456.53) scale(1.05 1)">Others</text><text class="cls-5" transform="translate(30.56 374.03) scale(1.05 1)">T Intersections</text><text class="cls-5" transform="translate(77.01 277.58) scale(1.05 1)">4-Way<tspan x="-33.48" y="16.8">Intersections</tspan></text><text class="cls-5" transform="translate(37.75 144.41) scale(1.05 1)">Straight Road</text><text class="cls-6" transform="translate(37.18 548.69) scale(1.05 1)">S<tspan class="cls-7" x="16.78" y="0">ev</tspan><tspan x="46.62" y="0">e</tspan><tspan class="cls-8" x="61.43" y="0">r</tspan><tspan x="72.57" y="0">e </tspan><tspan class="cls-9" x="94.23" y="0">P</tspan><tspan x="111.55" y="0">edestrian Cras</tspan><tspan class="cls-10" x="300.43" y="0">h</tspan><tspan class="cls-11" x="318.09" y="0">es:</tspan><tspan x="0" y="33.06">Road Intersections &amp; </tspan><tspan class="cls-12" x="276.72" y="33.06">V</tspan><tspan class="cls-11" x="295.9" y="33.06">ehicle Action</tspan></text><polygon class="cls-13" points="468.47 151.09 472.52 150.14 476.56 149.19 480.62 148.23 484.66 147.28 488.72 146.33 492.77 145.37 496.83 144.42 500.87 143.47 504.92 142.51 508.98 141.56 513.02 140.61 517.08 139.65 521.13 138.7 525.17 137.75 529.23 136.79 533.28 135.84 537.34 134.88 541.38 133.93 545.44 132.98 549.48 132.03 553.53 131.07 557.59 130.12 561.63 129.17 565.69 128.21 569.74 127.26 573.8 126.31 577.84 125.35 581.89 124.4 585.95 123.44 584.91 119.41 583.75 115.39 582.46 111.43 581.01 107.52 579.44 103.66 577.73 99.84 575.89 96.1 573.93 92.42 571.84 88.81 569.63 85.28 567.29 81.82 563.89 84.21 560.47 86.59 557.07 88.98 553.66 91.37 550.25 93.77 546.85 96.16 543.44 98.54 540.03 100.94 536.62 103.31 533.22 105.7 529.8 108.1 526.4 110.49 523 112.88 519.58 115.27 516.17 117.65 512.77 120.04 509.35 122.43 505.95 124.82 502.55 127.21 499.13 129.6 495.72 131.98 492.32 134.37 488.92 136.76 485.5 139.15 482.1 141.54 478.69 143.93 475.28 146.31 471.87 148.7 468.47 151.09 468.47 151.09"/><polygon class="cls-14" points="468.47 151.09 471.87 148.7 475.28 146.31 478.69 143.93 482.1 141.54 485.5 139.15 488.92 136.76 492.32 134.37 495.72 131.98 499.13 129.6 502.55 127.21 505.95 124.82 509.35 122.43 512.77 120.04 516.17 117.65 519.58 115.27 523 112.88 526.4 110.49 529.8 108.1 533.22 105.7 536.62 103.31 540.03 100.94 543.44 98.54 546.85 96.16 550.25 93.77 553.66 91.37 557.07 88.98 560.47 86.59 563.89 84.21 567.29 81.82 564.86 78.47 562.31 75.22 559.66 72.04 556.89 68.96 554.03 65.98 551.06 63.11 548 60.32 544.85 57.65 541.59 55.08 538.26 52.63 534.85 50.3 531.34 48.09 527.78 45.99 524.14 44.02 520.45 42.18 516.69 40.45 512.86 38.87 508.99 37.41 505.08 36.1 501.11 34.91 497.12 33.85 493.07 32.94 489.01 32.17 484.92 31.54 480.82 31.04 476.69 30.69 472.57 30.48 468.44 30.41 468.43 34.57 468.43 38.74 468.43 42.9 468.44 47.05 468.44 51.21 468.44 55.37 468.44 59.55 468.44 63.7 468.45 67.86 468.44 72.02 468.44 76.18 468.44 80.35 468.44 84.51 468.45 88.67 468.45 92.83 468.45 96.99 468.45 101.16 468.45 105.32 468.46 109.48 468.46 113.64 468.46 117.81 468.46 121.97 468.45 126.13 468.46 130.28 468.46 134.44 468.46 138.62 468.46 142.78 468.46 146.94 468.47 151.09 468.47 151.09"/><polygon class="cls-15" points="468.47 151.09 468.46 146.94 468.46 142.78 468.46 138.62 468.46 134.44 468.46 130.28 468.45 126.13 468.46 121.97 468.46 117.81 468.46 113.64 468.46 109.48 468.45 105.32 468.45 101.16 468.45 96.99 468.45 92.83 468.45 88.67 468.44 84.51 468.44 80.35 468.44 76.18 468.44 72.02 468.45 67.86 468.44 63.7 468.44 59.55 468.44 55.37 468.44 51.21 468.44 47.05 468.43 42.9 468.43 38.74 468.43 34.57 468.44 30.41 464.35 30.48 460.28 30.68 456.2 31.03 452.16 31.52 448.11 32.14 444.11 32.9 440.11 33.78 436.17 34.81 432.25 35.96 428.37 37.26 424.55 38.67 420.77 40.23 417.05 41.91 413.38 43.71 409.78 45.63 406.25 47.68 402.79 49.85 399.4 52.12 396.1 54.52 392.87 57.02 389.73 59.62 386.68 62.34 383.72 65.17 380.87 68.08 378.11 71.09 375.45 74.19 372.9 77.39 370.47 80.66 368.13 84.01 365.93 87.44 363.84 90.95 361.86 94.52 360.01 98.16 358.28 101.86 356.68 105.61 355.2 109.42 353.86 113.28 352.64 117.17 351.56 121.11 350.61 125.08 349.81 129.08 349.13 133.11 348.58 137.15 348.19 141.22 347.92 145.29 347.79 149.37 347.81 153.46 347.95 157.54 348.23 161.61 348.66 165.66 349.23 169.72 349.93 173.74 350.76 177.73 351.72 181.7 352.82 185.63 354.06 189.53 355.42 193.37 356.92 197.17 358.53 200.92 360.29 204.61 362.16 208.24 364.15 211.8 366.27 215.3 368.5 218.71 370.85 222.05 373.3 225.32 375.85 228.49 378.53 231.58 381.31 234.58 384.19 237.47 387.15 240.28 390.21 242.98 393.36 245.58 396.62 248.06 399.92 250.43 403.33 252.7 406.8 254.84 410.35 256.86 413.96 258.77 417.63 260.55 421.36 262.21 425.15 263.74 428.99 265.15 432.86 266.42 436.78 267.56 440.73 268.56 444.72 269.43 448.75 270.15 452.79 270.77 456.84 271.22 460.91 271.55 464.99 271.74 469.07 271.78 473.15 271.69 477.23 271.46 481.29 271.1 485.35 270.6 489.39 269.96 493.39 269.18 497.37 268.27 501.31 267.22 505.22 266.05 509.09 264.74 512.91 263.3 516.69 261.74 520.4 260.03 524.05 258.22 527.64 256.27 531.16 254.21 534.62 252.03 538 249.75 541.29 247.33 544.51 244.81 547.64 242.18 544.91 239.04 542.18 235.91 539.45 232.77 536.72 229.63 533.99 226.48 531.25 223.34 528.52 220.19 525.79 217.06 523.07 213.92 520.34 210.78 517.6 207.63 514.87 204.49 512.15 201.35 509.42 198.22 506.69 195.07 503.96 191.93 501.23 188.79 498.49 185.65 495.76 182.5 493.03 179.37 490.3 176.23 487.57 173.09 484.84 169.94 482.11 166.8 479.38 163.65 476.66 160.52 473.93 157.38 471.2 154.24 468.47 151.09 468.47 151.09"/><polygon class="cls-16" points="468.47 151.09 471.2 154.24 473.93 157.38 476.66 160.52 479.38 163.65 482.11 166.8 484.84 169.94 487.57 173.09 490.3 176.23 493.03 179.37 495.76 182.5 498.49 185.65 501.23 188.79 503.96 191.93 506.69 195.07 509.42 198.22 512.15 201.35 514.87 204.49 517.6 207.63 520.34 210.78 523.07 213.92 525.79 217.06 528.52 220.19 531.25 223.34 533.99 226.48 536.72 229.63 539.45 232.77 542.18 235.91 544.91 239.04 547.64 242.18 550.68 239.45 553.63 236.6 556.49 233.66 559.25 230.62 561.88 227.5 564.43 224.29 566.85 220.98 569.17 217.61 571.37 214.15 573.45 210.62 575.41 207.02 577.24 203.37 578.96 199.63 580.55 195.86 582 192.02 583.32 188.15 584.51 184.23 585.57 180.27 586.5 176.28 587.28 172.27 587.93 168.22 588.45 164.14 588.82 160.08 589.06 155.99 589.16 151.88 589.1 147.78 588.93 143.69 588.6 139.61 588.14 135.54 587.55 131.48 586.82 127.45 585.95 123.44 581.89 124.4 577.84 125.35 573.8 126.31 569.74 127.26 565.69 128.21 561.63 129.17 557.59 130.12 553.53 131.07 549.48 132.03 545.44 132.98 541.38 133.93 537.34 134.88 533.28 135.84 529.23 136.79 525.17 137.75 521.13 138.7 517.08 139.65 513.02 140.61 508.98 141.56 504.92 142.51 500.87 143.47 496.83 144.42 492.77 145.37 488.72 146.33 484.66 147.28 480.62 148.23 476.56 149.19 472.52 150.14 468.47 151.09 468.47 151.09"/><path class="cls-17" d="M415.34,204.57A75.39,75.39,0,1,1,522,204.23,75.38,75.38,0,0,1,415.34,204.57Z"/><polygon class="cls-13" points="468.44 440.54 470.01 443.4 471.58 446.26 473.15 449.13 474.73 451.99 476.3 454.85 477.87 457.71 479.45 460.58 481.02 463.44 482.59 466.29 484.16 469.16 485.74 472.02 487.31 474.88 488.88 477.75 490.45 480.6 492.03 483.47 493.6 486.33 495.17 489.19 496.75 492.05 498.32 494.92 499.89 497.78 501.46 500.64 503.04 503.5 504.61 506.36 506.18 509.23 507.75 512.09 509.33 514.96 510.9 517.81 512.47 520.67 514.05 523.54 516.85 521.94 519.6 520.23 522.29 518.44 524.92 516.55 527.48 514.58 529.97 512.52 532.4 510.38 534.75 508.15 537.01 505.85 539.21 503.47 541.31 501.02 543.34 498.49 545.27 495.9 547.12 493.25 548.87 490.53 550.52 487.75 552.09 484.93 553.55 482.04 554.93 479.11 556.19 476.14 557.36 473.12 558.41 470.07 559.38 466.98 556.24 466.07 553.1 465.15 549.96 464.24 546.83 463.32 543.7 462.42 540.56 461.51 537.42 460.6 534.28 459.68 531.15 458.77 528.02 457.86 524.88 456.95 521.74 456.04 518.6 455.13 515.47 454.21 512.34 453.31 509.2 452.39 506.06 451.48 502.93 450.56 499.8 449.66 496.66 448.75 493.52 447.83 490.38 446.92 487.25 446 484.12 445.1 480.98 444.19 477.84 443.28 474.7 442.36 471.57 441.45 468.44 440.54 468.44 440.54"/><polygon class="cls-14" points="468.44 440.54 471.57 441.45 474.7 442.36 477.84 443.28 480.98 444.19 484.12 445.1 487.25 446 490.38 446.92 493.52 447.83 496.66 448.75 499.8 449.66 502.93 450.56 506.06 451.48 509.2 452.39 512.34 453.31 515.47 454.21 518.6 455.13 521.74 456.04 524.88 456.95 528.02 457.86 531.15 458.77 534.28 459.68 537.42 460.6 540.56 461.51 543.7 462.42 546.83 463.32 549.96 464.24 553.1 465.15 556.24 466.07 559.38 466.98 560.23 463.84 560.98 460.67 561.61 457.48 562.14 454.26 562.56 451.03 562.87 447.8 563.05 444.55 563.13 441.29 563.1 438.03 562.96 434.78 562.71 431.54 562.34 428.3 561.87 425.08 561.28 421.88 560.59 418.7 559.78 415.54 558.86 412.42 557.85 409.33 556.73 406.27 555.49 403.26 554.16 400.29 552.72 397.37 551.19 394.49 549.56 391.68 547.83 388.92 546.01 386.22 544.1 383.59 542.1 381.01 540 378.52 537.83 376.1 535.58 373.75 533.24 371.48 530.83 369.3 528.34 367.2 525.78 365.18 523.16 363.25 520.48 361.41 517.73 359.68 514.92 358.03 512.04 356.48 509.14 355.02 506.17 353.68 503.16 352.43 500.11 351.29 497.02 350.25 493.91 349.33 490.76 348.51 487.58 347.79 484.38 347.19 481.16 346.7 477.93 346.32 474.69 346.04 471.44 345.89 468.18 345.84 468.19 349.11 468.2 352.36 468.21 355.64 468.21 358.9 468.23 362.16 468.23 365.43 468.24 368.7 468.25 371.97 468.26 375.23 468.27 378.5 468.27 381.76 468.29 385.02 468.29 388.29 468.3 391.56 468.31 394.82 468.32 398.08 468.33 401.36 468.33 404.62 468.35 407.88 468.35 411.15 468.36 414.42 468.38 417.68 468.38 420.94 468.39 424.22 468.4 427.48 468.41 430.74 468.41 434.01 468.42 437.27 468.44 440.54 468.44 440.54"/><polygon class="cls-15" points="468.44 440.54 468.42 437.27 468.41 434.01 468.41 430.74 468.4 427.48 468.39 424.22 468.38 420.94 468.38 417.68 468.36 414.42 468.35 411.15 468.35 407.88 468.33 404.62 468.33 401.36 468.32 398.08 468.31 394.82 468.3 391.56 468.29 388.29 468.29 385.02 468.27 381.76 468.27 378.5 468.26 375.23 468.25 371.97 468.24 368.7 468.23 365.43 468.23 362.16 468.21 358.9 468.21 355.64 468.2 352.36 468.19 349.11 468.18 345.84 464.95 345.9 461.72 346.07 458.51 346.36 455.3 346.75 452.11 347.25 448.94 347.86 445.78 348.58 442.66 349.41 439.57 350.35 436.52 351.38 433.49 352.52 430.5 353.76 427.57 355.11 424.68 356.56 421.84 358.09 419.06 359.73 416.33 361.46 413.66 363.29 411.06 365.19 408.52 367.19 406.06 369.28 403.66 371.45 401.35 373.7 399.1 376.03 396.94 378.44 394.87 380.91 392.88 383.45 390.97 386.06 389.16 388.73 387.44 391.47 385.81 394.26 384.28 397.11 382.85 400 381.51 402.94 380.28 405.93 379.15 408.96 378.12 412.02 377.21 415.11 376.4 418.24 375.69 421.39 375.08 424.57 374.6 427.76 374.21 430.96 373.94 434.19 373.78 437.41 373.73 440.65 373.8 443.88 373.95 447.1 374.24 450.32 374.63 453.52 375.12 456.72 375.73 459.89 376.44 463.04 377.26 466.16 378.19 469.26 379.23 472.32 380.36 475.35 381.6 478.33 382.94 481.27 384.37 484.16 385.91 487 387.55 489.79 389.27 492.53 391.09 495.19 393 497.8 395 500.34 397.08 502.81 399.25 505.2 401.49 507.53 403.82 509.77 406.21 511.94 408.68 514.01 411.22 516.01 413.83 517.92 416.51 519.73 419.24 521.46 422.02 523.1 424.87 524.63 427.76 526.06 430.7 527.4 433.68 528.64 436.7 529.77 439.77 530.8 442.87 531.73 445.99 532.54 449.14 533.25 452.31 533.86 455.5 534.36 458.71 534.74 461.93 535.02 462.16 531.76 462.38 528.51 462.6 525.25 462.83 521.99 463.06 518.73 463.28 515.48 463.5 512.21 463.73 508.96 463.95 505.7 464.17 502.44 464.4 499.18 464.62 495.93 464.84 492.66 465.07 489.41 465.3 486.15 465.52 482.9 465.74 479.64 465.97 476.38 466.2 473.13 466.41 469.86 466.65 466.6 466.87 463.35 467.09 460.09 467.31 456.83 467.54 453.57 467.76 450.32 467.98 447.06 468.21 443.8 468.44 440.54 468.44 440.54"/><polygon class="cls-16" points="468.44 440.54 468.21 443.8 467.98 447.06 467.76 450.32 467.54 453.57 467.31 456.83 467.09 460.09 466.87 463.35 466.65 466.6 466.41 469.86 466.2 473.13 465.97 476.38 465.74 479.64 465.52 482.9 465.3 486.15 465.07 489.41 464.84 492.66 464.62 495.93 464.4 499.18 464.17 502.44 463.95 505.7 463.73 508.96 463.5 512.21 463.28 515.48 463.06 518.73 462.83 521.99 462.6 525.25 462.38 528.51 462.16 531.76 461.93 535.02 465.31 535.2 468.68 535.24 472.07 535.18 475.44 534.99 478.81 534.68 482.16 534.24 485.5 533.7 488.81 533.02 492.1 532.24 495.36 531.34 498.59 530.31 501.77 529.18 504.91 527.93 508.01 526.58 511.06 525.11 514.05 523.54 512.47 520.67 510.9 517.81 509.33 514.96 507.75 512.09 506.18 509.23 504.61 506.36 503.04 503.5 501.46 500.64 499.89 497.78 498.32 494.92 496.75 492.05 495.17 489.19 493.6 486.33 492.03 483.47 490.45 480.6 488.88 477.75 487.31 474.88 485.74 472.02 484.16 469.16 482.59 466.29 481.02 463.44 479.45 460.58 477.87 457.71 476.3 454.85 474.73 451.99 473.15 449.13 471.58 446.26 470.01 443.4 468.44 440.54 468.44 440.54"/><path class="cls-17" d="M413.07,461.5a59.21,59.21,0,1,1,76.33,34.42A59.2,59.2,0,0,1,413.07,461.5Z"/><text class="cls-18" transform="translate(450.87 451.55) scale(1.05 1)">S<tspan class="cls-19" x="6.91" y="0">ev</tspan><tspan class="cls-20" x="19.2" y="0">e</tspan><tspan class="cls-21" x="25.3" y="0">r</tspan><tspan x="29.88" y="0">e </tspan><tspan x="0" y="13.62">Cras</tspan><tspan class="cls-22" x="24.04" y="13.62">h</tspan><tspan class="cls-23" x="31.31" y="13.62">es</tspan><tspan class="cls-24"><tspan class="cls-25" x="0" y="22.37">A</tspan><tspan x="4.96" y="22.37">t </tspan><tspan class="cls-26" x="9.45" y="22.37">T</tspan><tspan x="13.19" y="22.37">-Intersections</tspan></tspan></text><text class="cls-27" transform="translate(423.15 432.86)">88</text><text class="cls-28" transform="translate(449.08 171.89) scale(1.05 1)">S<tspan class="cls-29" x="10.2" y="0">ev</tspan><tspan x="28.33" y="0">e</tspan><tspan class="cls-30" x="37.33" y="0">r</tspan><tspan x="44.1" y="0">e</tspan><tspan x="0" y="20.09">Cras</tspan><tspan class="cls-31" x="35.48" y="20.09">h</tspan><tspan class="cls-32" x="46.21" y="20.09">es</tspan></text><text class="cls-33" transform="translate(404.43 149.14)">347</text><path class="cls-14" d="M756,47.67c0,4.35-2.88,7.87-6.43,7.87H630.76c-3.55,0-6.43-3.52-6.43-7.87V38.33c0-4.35,2.88-7.87,6.43-7.87H749.59c3.55,0,6.43,3.52,6.43,7.87Z"/><path class="cls-13" d="M756,113.33c0,4.35-2.88,7.87-6.43,7.87H630.76c-3.55,0-6.43-3.52-6.43-7.87V104c0-4.35,2.88-7.87,6.43-7.87H749.59c3.55,0,6.43,3.52,6.43,7.87Z"/><path class="cls-16" d="M756,201.71c0,4.35-2.88,7.87-6.43,7.87H630.76c-3.55,0-6.43-3.52-6.43-7.87v-9.34c0-4.35,2.88-7.87,6.43-7.87H749.59c3.55,0,6.43,3.52,6.43,7.87Z"/><path class="cls-15" d="M756,249.7c0,4.35-2.88,7.87-6.43,7.87H630.76c-3.55,0-6.43-3.52-6.43-7.87v-9.34c0-4.35,2.88-7.87,6.43-7.87H749.59c3.55,0,6.43,3.52,6.43,7.87Z"/><text class="cls-34" transform="translate(636.24 250.17) scale(1.05 1)">61.4% Driving Straight</text><text class="cls-34" transform="translate(648.94 112.5) scale(1.05 1)">6% Turning Right</text><text class="cls-34" transform="translate(661.34 202.42) scale(1.05 1)">17.3% Other</text><text class="cls-34" transform="translate(645.07 47.74) scale(1.05 1)">15.3% Turning Left</text><path class="cls-14" d="M756,425.51c0,4.35-2.88,7.87-6.43,7.87H630.76c-3.55,0-6.43-3.52-6.43-7.87v-9.35c0-4.34,2.88-7.86,6.43-7.86H749.59c3.55,0,6.43,3.52,6.43,7.86Z"/><path class="cls-13" d="M756,480.19c0,4.35-2.88,7.87-6.43,7.87H630.76c-3.55,0-6.43-3.52-6.43-7.87v-9.34c0-4.35,2.88-7.87,6.43-7.87H749.59c3.55,0,6.43,3.52,6.43,7.87Z"/><path class="cls-16" d="M756,523.76c0,4.35-2.88,7.87-6.43,7.87H630.76c-3.55,0-6.43-3.52-6.43-7.87v-9.34c0-4.35,2.88-7.87,6.43-7.87H749.59c3.55,0,6.43,3.52,6.43,7.87Z"/><path class="cls-15" d="M756,379.2c0,4.35-2.88,7.88-6.43,7.88H630.76c-3.55,0-6.43-3.53-6.43-7.88v-9.34c0-4.35,2.88-7.87,6.43-7.87H749.59c3.55,0,6.43,3.52,6.43,7.87Z"/><text class="cls-34" transform="translate(635.27 379.68) scale(1.05 1)">48.9% Driving Straight</text><text class="cls-34" transform="translate(641.91 479.36) scale(1.05 1)">12.5% Turning Right</text><text class="cls-34" transform="translate(664.39 524.47) scale(1.05 1)">9.1% Other</text><text class="cls-34" transform="translate(643.84 425.58) scale(1.05 1)">29.6% Turning Left</text><g class="cls-35"><line class="cls-36" x1="615.71" y1="43" x2="521" y2="43"/><path class="cls-37" d="M615.62,41.12A1.88,1.88,0,1,1,613.74,43,1.88,1.88,0,0,1,615.62,41.12Z"/></g><g class="cls-35"><line class="cls-36" x1="615.71" y1="108.66" x2="581.43" y2="108.66"/><path class="cls-37" d="M615.62,106.78a1.88,1.88,0,1,1-1.88,1.88A1.88,1.88,0,0,1,615.62,106.78Z"/></g><g class="cls-35"><line class="cls-36" x1="615.71" y1="198.08" x2="579.84" y2="198.08"/><path class="cls-37" d="M615.62,196.2a1.88,1.88,0,1,1-1.88,1.88A1.88,1.88,0,0,1,615.62,196.2Z"/></g><g class="cls-35"><line class="cls-36" x1="615.71" y1="245.03" x2="543.88" y2="245.03"/><path class="cls-37" d="M615.62,243.15a1.88,1.88,0,1,1-1.88,1.88A1.88,1.88,0,0,1,615.62,243.15Z"/></g><g class="cls-35"><line class="cls-36" x1="615.71" y1="519.09" x2="511.25" y2="519.09"/><path class="cls-37" d="M615.62,517.21a1.88,1.88,0,1,1-1.88,1.88A1.88,1.88,0,0,1,615.62,517.21Z"/></g><g class="cls-35"><line class="cls-36" x1="615.71" y1="475.52" x2="555.75" y2="475.52"/><circle class="cls-37" cx="615.62" cy="475.52" r="1.88"/></g><g class="cls-35"><line class="cls-36" x1="615.71" y1="420.84" x2="560.84" y2="420.84"/><path class="cls-37" d="M615.62,419a1.88,1.88,0,1,1-1.88,1.88A1.88,1.88,0,0,1,615.62,419Z"/></g><line class="cls-38" x1="536.88" y1="375.11" x2="468.18" y2="375.11"/><g class="cls-35"><line class="cls-36" x1="615.71" y1="375.11" x2="536.88" y2="375.11"/><path class="cls-37" d="M615.62,373.23a1.88,1.88,0,1,1-1.88,1.88A1.88,1.88,0,0,1,615.62,373.23Z"/></g><text class="cls-39" transform="translate(155.74 137.84) scale(1.05 1)">164</text><text class="cls-40" transform="translate(159.11 150.98) scale(1.05 1)">(47%)</text><text class="cls-39" transform="translate(160.31 277.58) scale(1.05 1)">60</text><text class="cls-40" transform="translate(160.1 290.72) scale(1.05 1)">(17%)</text><text class="cls-39" transform="translate(159.82 367.47) scale(1.05 1)">88</text><text class="cls-40" transform="translate(159.18 380.6) scale(1.05 1)">(25%)</text><text class="cls-39" transform="translate(160.66 446.1) scale(1.05 1)">35</text><text class="cls-40" transform="translate(160.34 459.23) scale(1.05 1)">(11%)</text></g></g><g id="Peds-2" data-name="Peds"><g id="ped_sv-2" data-name="ped_sv"><text class="cls-41" transform="translate(468.47 335.72) scale(1.05 1)">Of which at <tspan class="cls-42" x="119.89" y="0">T</tspan><tspan class="cls-43" x="130.68" y="0">-intersections:</tspan></text></g></g></svg>